<svg width="55" height="55" viewBox="0 0 55 55" fill="none" xmlns="http://www.w3.org/2000/svg">
<path d="M27.6407 5.12208C26.9891 4.83637 26.3472 5.03625 25.9343 5.45674C25.5332 5.86521 25.3326 6.48862 25.4733 7.11717C25.6953 8.10929 25.8125 9.14148 25.8125 10.2017C25.8125 12.6224 25.2024 14.3178 24.1527 15.7232C23.0856 17.1519 21.5408 18.3151 19.5905 19.6275C19.5598 19.6481 19.5313 19.6717 19.5052 19.6979L19.269 19.936C15.0844 22.6395 12.3125 27.3467 12.3125 32.7017C12.3125 41.0896 19.1122 47.8892 27.5 47.8892C35.8878 47.8892 42.6875 41.0896 42.6875 32.7017C42.6875 30.239 42.1009 27.9116 41.0593 25.8533C40.9746 25.6858 40.8119 25.5716 40.6256 25.5489C40.4393 25.5261 40.254 25.5978 40.1314 25.7399C39.9728 25.9238 39.8174 26.1054 39.6643 26.2842C37.6882 28.5932 36.0934 30.4565 32.8239 31.2888C32.6848 31.3242 32.5984 31.2979 32.5372 31.2596C32.465 31.2145 32.3861 31.1245 32.332 30.9808C32.2193 30.6813 32.2677 30.2993 32.4986 30.0489C34.2473 28.1531 35.4895 25.5795 35.9334 21.9185C36.7649 15.0608 33.6481 7.75592 27.6407 5.12208Z" fill="#B0CB1F"/>
</svg>
