<svg width="40" height="43" viewBox="0 0 40 43" fill="none" xmlns="http://www.w3.org/2000/svg">
<path fill-rule="evenodd" clip-rule="evenodd" d="M7.0625 7.375C7.0625 3.33642 10.3364 0.0625 14.375 0.0625C16.6367 0.0625 18.6587 1.08933 20 2.70223C21.3413 1.08933 23.3633 0.0625 25.625 0.0625C29.6636 0.0625 32.9375 3.33642 32.9375 7.375C32.9375 9.07209 32.3594 10.6342 31.3893 11.875H33.5C36.6066 11.875 39.125 14.3934 39.125 17.5V20.3125C39.125 21.2445 38.3695 22 37.4375 22H22.3625C21.9897 22 21.6875 21.6978 21.6875 21.325V13.538C21.0509 13.1304 20.4816 12.6268 20 12.0478C19.5184 12.6268 18.9491 13.1304 18.3125 13.538V21.325C18.3125 21.6978 18.0103 22 17.6375 22H2.5625C1.63052 22 0.875 21.2445 0.875 20.3125V17.5C0.875 14.3934 3.3934 11.875 6.5 11.875H8.61068C7.64063 10.6342 7.0625 9.07209 7.0625 7.375ZM18.3125 7.375C18.3125 5.20038 16.5496 3.4375 14.375 3.4375C12.2004 3.4375 10.4375 5.20038 10.4375 7.375C10.4375 9.54962 12.2004 11.3125 14.375 11.3125C16.5496 11.3125 18.3125 9.54962 18.3125 7.375ZM21.6875 7.375C21.6875 9.54962 23.4504 11.3125 25.625 11.3125C27.7996 11.3125 29.5625 9.54962 29.5625 7.375C29.5625 5.20038 27.7996 3.4375 25.625 3.4375C23.4504 3.4375 21.6875 5.20038 21.6875 7.375Z" fill="#B0CB1F"/>
<path d="M18.3125 25.7125C18.3125 25.3397 18.0103 25.0375 17.6375 25.0375H5.71028C4.79756 25.0375 4.01763 25.6952 3.86348 26.5948C3.36387 29.5104 3.36386 32.4897 3.86347 35.4053L4.36818 38.3505C4.70801 40.3337 6.31867 41.8529 8.31828 42.0764L10.7148 42.3443C13.0118 42.601 15.3169 42.7622 17.6239 42.8278C18.0019 42.8385 18.3125 42.5339 18.3125 42.1557L18.3125 25.7125Z" fill="#B0CB1F"/>
<path d="M22.3761 42.8278C21.9981 42.8385 21.6875 42.5339 21.6875 42.1557L21.6875 25.7125C21.6875 25.3397 21.9897 25.0375 22.3625 25.0375H34.2897C35.2024 25.0375 35.9824 25.6952 36.1365 26.5948C36.6361 29.5104 36.6361 32.4897 36.1365 35.4053L35.6318 38.3505C35.292 40.3337 33.6813 41.8529 31.6817 42.0764L29.2852 42.3443C26.9882 42.601 24.6831 42.7622 22.3761 42.8278Z" fill="#B0CB1F"/>
</svg>
