<svg fill="none" height="55" viewBox="0 0 55 55" width="55" xmlns="http://www.w3.org/2000/svg"><path d="m19.4 12.2883c-6.2569 0-11.5875 4.6785-11.5875 10.7546 0 4.1916 1.96278 7.7206 4.5641 10.6439 2.5924 2.9132 5.937 5.3586 8.9606 7.4052l5.2169 3.5313c.5713.3867 1.3205.3867 1.8918 0l5.2169-3.5313c3.0236-2.0466 6.3682-4.492 8.9606-7.4052 2.6013-2.9233 4.5641-6.4523 4.5641-10.6439 0-6.0761-5.3306-10.7546-11.5875-10.7546-3.2253 0-6.0634 1.5123-8.1 3.4692-2.0366-1.9569-4.8747-3.4692-8.1-3.4692z" fill="#b0cb1f"/></svg>