<svg width="32" height="38" viewBox="0 0 32 38" fill="none" xmlns="http://www.w3.org/2000/svg">
<path d="M14.5081 0.4375C13.4776 0.437517 12.5123 0.941632 11.9234 1.7873L2.40168 15.4608C0.613655 18.0284 -0.183273 21.157 0.158494 24.2672L0.890693 30.9303C1.20358 33.7777 3.43889 36.0331 6.28336 36.3715L11.0467 36.9381C14.6842 37.3708 18.3723 36.9958 21.8482 35.8396C24.2812 35.0304 26.23 33.1837 27.1689 30.7978L31.0133 21.0281C31.1992 20.5556 31.3277 20.0624 31.396 19.5592C31.9907 15.178 28.032 11.5485 23.7188 12.5204L14.9485 14.4966L17.5582 4.37354C18.0721 2.38003 16.5668 0.437466 14.5081 0.4375Z" fill="#B0CB1F"/>
</svg>
