<svg fill="none" height="38" viewBox="0 0 36 38" width="36" xmlns="http://www.w3.org/2000/svg"><g fill="#b0cb1f"><path d="m18 .4375c-4.6599 0-8.4375 3.7776-8.4375 8.4375s3.7776 8.4375 8.4375 8.4375 8.4375-3.7776 8.4375-8.4375-3.7776-8.4375-8.4375-8.4375z"/><path d="m9 21.8125c-4.6599 0-8.4375 3.7776-8.4375 8.4375v2.6736c0 1.6948 1.22824 3.1398 2.90086 3.4129 9.62734 1.5718 19.44594 1.5718 29.07324 0 1.6727-.2731 2.9009-1.7181 2.9009-3.4129v-2.6736c0-4.6599-3.7776-8.4375-8.4375-8.4375h-.767c-.4151 0-.8276.0656-1.2222.1945l-1.9474.6359c-3.2901 1.0743-6.8367 1.0743-10.1268 0l-1.9474-.6359c-.3946-.1289-.8071-.1945-1.22224-.1945z"/></g></svg>