<svg width="55" height="55" viewBox="0 0 55 55" fill="none" xmlns="http://www.w3.org/2000/svg">
<path d="M37.472 9.65255C36.0651 8.24558 33.682 8.70452 32.8982 10.5334L28.9396 19.7702C25.6872 18.8065 22.0216 19.6076 19.4529 22.1763L16.4007 25.2285C15.7417 25.8875 15.7417 26.956 16.4007 27.615L21.2197 32.434L8.30651 45.3471C7.6475 46.0061 7.6475 47.0746 8.30651 47.7336C8.96552 48.3926 10.034 48.3926 10.693 47.7336L23.6062 34.8204L28.4253 39.6396C29.0843 40.2986 30.1528 40.2986 30.8118 39.6396L33.864 36.5873C36.4326 34.0187 37.2337 30.353 36.2701 27.1007L45.5069 23.142C47.3357 22.3582 47.7947 19.9752 46.3877 18.5682L37.472 9.65255Z" fill="#B0CB1F"/>
</svg>
