<svg fill="none" height="55" viewBox="0 0 55 55" width="55" xmlns="http://www.w3.org/2000/svg"><path d="m29.4461 7.21738c-.8672-1.49434-3.0251-1.49435-3.8923-.00001l-6.1066 10.52393c-.4283.7382-1.1687 1.242-2.0126 1.3694l-11.44417 1.7285c-1.92213.2903-2.59637 2.7172-1.09943 3.9574l8.5255 7.0633c.7891.6538 1.1602 1.6851.9685 2.6918l-2.2301 11.7116c-.3526 1.8514 1.5909 3.2898 3.2585 2.4118l10.7762-5.6741c.8202-.4319 1.8005-.4319 2.6207 0l10.7762 5.6741c1.6676.878 3.6111-.5604 3.2585-2.4118l-2.2301-11.7116c-.1917-1.0067.1794-2.038.9686-2.6918l8.5254-7.0633c1.4969-1.2402.8227-3.6671-1.0994-3.9574l-11.4442-1.7285c-.8439-.1274-1.5843-.6312-2.0126-1.3694z" fill="#b0cb1f"/></svg>