<?xml version="1.0" encoding="iso-8859-1"?>
<!-- Uploaded to: SVG Repo, www.svgrepo.com, Generator: SVG Repo Mixer Tools -->
<svg fill="#000000" height="800px" width="800px" version="1.1" id="Layer_1" xmlns="http://www.w3.org/2000/svg" xmlns:xlink="http://www.w3.org/1999/xlink" 
	 viewBox="0 0 512 512" xml:space="preserve">
<g transform="translate(1 1)">
	<g>
		<g>
			<path d="M442.733-1H152.6h-51.2C77.507-1,58.733,17.773,58.733,41.667v426.667C58.733,492.227,77.507,511,101.4,511h341.333
				c5.12,0,8.533-3.413,8.533-8.533V434.2V7.533C451.267,2.413,447.853-1,442.733-1z M434.2,425.667H161.133v-409.6H434.2V425.667z
				 M101.4,16.067h42.667v409.6H101.4c-0.615,0-1.229,0.016-1.843,0.045c-8.953,0.365-17.12,3.371-23.757,8.285V41.667
				C75.8,27.16,86.893,16.067,101.4,16.067z M434.2,493.933H101.4c-14.507,0-25.6-11.093-25.6-25.6c0-14.507,11.093-25.6,25.6-25.6
				h51.2h281.6V493.933z"/>
			<path d="M101.4,468.333c0,5.12,3.413,8.533,8.533,8.533H408.6c5.12,0,8.533-3.413,8.533-8.533s-3.413-8.533-8.533-8.533H109.933
				C104.813,459.8,101.4,463.213,101.4,468.333z"/>
			<path d="M297.667,135.533c-34.987,0-66.56,32.427-68.267,68.267c-0.853,17.067,5.12,33.28,15.36,45.227
				c11.947,15.36,18.773,31.573,18.773,48.64V331.8v8.533c0,18.773,15.36,34.133,34.133,34.133c18.773,0,34.133-15.36,34.133-34.133
				V331.8v-30.099c0.55-1.169,0.853-2.525,0.853-4.035c0-17.067,5.973-34.133,17.067-46.933
				c11.093-11.947,17.067-28.16,17.067-44.373c0-19.627-8.533-38.4-22.187-52.053C331.8,142.36,314.733,135.533,297.667,135.533z
				 M314.733,323.267H280.6V306.2h34.133V323.267z M297.667,357.4c-9.387,0-17.067-7.68-17.067-17.067h34.133
				C314.733,349.72,307.053,357.4,297.667,357.4z M336.067,239.64c-11.947,14.507-19.627,31.573-21.333,49.493h-34.987
				c-1.707-17.92-9.387-34.987-21.333-51.2c-8.533-9.387-12.8-21.333-11.947-34.133c0.853-27.307,24.747-51.2,51.2-52.053
				c11.947,0,24.747,5.12,34.133,14.507c11.093,10.24,17.067,25.6,17.067,40.107C348.867,218.307,343.747,230.253,336.067,239.64z"
				/>
			<path d="M297.667,118.467c5.12,0,8.533-3.413,8.533-8.533v-51.2c0-5.12-3.413-8.533-8.533-8.533s-8.533,3.413-8.533,8.533v51.2
				C289.133,115.053,292.547,118.467,297.667,118.467z"/>
			<path d="M335.213,125.293c1.707,0.853,3.413,1.707,5.12,1.707c2.56,0,5.12-0.853,6.827-3.413l25.6-34.133
				c2.56-3.413,1.707-9.387-1.707-11.947c-3.413-2.56-9.387-1.707-11.947,1.707l-25.6,34.133
				C330.947,116.76,331.8,122.733,335.213,125.293z"/>
			<path d="M222.573,89.453l25.6,34.133C249.88,126.147,252.44,127,255,127c1.707,0,3.413-0.853,5.12-1.707
				c3.413-2.56,4.267-8.533,1.707-11.947l-25.6-34.133c-2.56-3.413-8.533-4.267-11.947-1.707
				C220.867,80.067,220.013,86.04,222.573,89.453z"/>
		</g>
	</g>
</g>
</svg>