<?xml version="1.0" encoding="UTF-8"?>
<svg id="Layer_2" data-name="Layer 2" xmlns="http://www.w3.org/2000/svg" viewBox="0 0 336.04 159.49">
  <defs>
    <style>
      .cls-1, .cls-2, .cls-3, .cls-4 {
        stroke-width: 0px;
      }

      .cls-1, .cls-3 {
        fill: #a6ce39;
      }

      .cls-2 {
        fill: #231f20;
      }

      .cls-3, .cls-4 {
        fill-rule: evenodd;
      }

      .cls-4 {
        fill: #000;
      }
    </style>
  </defs>
  <g id="Layer_1-2" data-name="Layer 1">
    <path class="cls-4" d="M47.07,150.03c1.74-2.97,5.55-3.95,8.49-2.2,2.94,1.76,3.91,5.62,2.17,8.59-1.74,2.97-5.55,3.96-8.49,2.2-2.94-1.76-3.91-5.62-2.17-8.59"/>
    <path class="cls-4" d="M113.77.87c2.94,1.76,3.91,5.62,2.17,8.59-1.74,2.97-5.55,3.96-8.49,2.2-2.94-1.76-3.91-5.62-2.17-8.59,1.74-2.97,5.55-3.96,8.49-2.2"/>
    <path class="cls-4" d="M30.4,85.41c1.74-2.97,5.55-3.96,8.49-2.2,2.94,1.76,3.91,5.62,2.17,8.59-1.74,2.97-5.55,3.96-8.49,2.2-2.94-1.76-3.91-5.62-2.17-8.59"/>
    <path class="cls-4" d="M36.38,110.33c1.74-2.97,5.56-3.96,8.49-2.2,2.94,1.76,3.91,5.62,2.17,8.59-1.74,2.97-5.56,3.96-8.49,2.2-2.94-1.76-3.91-5.62-2.17-8.58"/>
    <path class="cls-4" d="M71.71,143.98c1.74-2.97,5.56-3.96,8.49-2.2,2.94,1.76,3.91,5.62,2.17,8.59-1.74,2.97-5.55,3.96-8.49,2.2-2.94-1.76-3.91-5.62-2.17-8.59"/>
    <path class="cls-4" d="M94.49,137.86c1.74-2.97,5.55-3.96,8.49-2.2,2.94,1.76,3.91,5.62,2.17,8.59-1.74,2.97-5.55,3.96-8.49,2.2-2.94-1.76-3.91-5.62-2.17-8.59"/>
    <path class="cls-4" d="M115.59,132.22c1.74-2.97,5.55-3.96,8.49-2.2,2.94,1.76,3.91,5.62,2.17,8.59-1.74,2.97-5.55,3.96-8.49,2.2-2.94-1.76-3.91-5.62-2.17-8.59"/>
    <path class="cls-4" d="M137.67,126.27c1.74-2.97,5.56-3.96,8.49-2.2,2.94,1.76,3.91,5.62,2.17,8.59-1.74,2.97-5.56,3.96-8.49,2.2-2.94-1.76-3.91-5.62-2.17-8.59"/>
    <path class="cls-4" d="M83.21,6.35c1.74-2.97,5.55-3.96,8.49-2.2,2.94,1.76,3.91,5.62,2.17,8.59-1.74,2.97-5.55,3.96-8.49,2.2-2.94-1.76-3.91-5.62-2.17-8.59"/>
    <path class="cls-4" d="M61.36,12.39c1.74-2.97,5.55-3.96,8.49-2.2,2.94,1.76,3.91,5.62,2.17,8.59-1.74,2.97-5.56,3.96-8.49,2.2-2.94-1.76-3.91-5.62-2.17-8.59"/>
    <path class="cls-4" d="M38.7,18.58c1.74-2.97,5.56-3.96,8.49-2.2,2.94,1.76,3.91,5.62,2.17,8.59-1.74,2.97-5.56,3.96-8.49,2.2-2.94-1.76-3.91-5.62-2.17-8.59"/>
    <path class="cls-4" d="M14.85,25.07c1.74-2.97,5.55-3.96,8.49-2.2,2.94,1.76,3.91,5.62,2.17,8.59-1.74,2.97-5.56,3.96-8.49,2.2-2.94-1.76-3.91-5.62-2.17-8.59"/>
    <path class="cls-4" d="M128.71,42.34c2.94,1.76,3.91,5.62,2.17,8.59-1.74,2.97-5.56,3.96-8.49,2.2-2.94-1.76-3.91-5.62-2.17-8.59,1.74-2.97,5.56-3.96,8.49-2.2"/>
    <path class="cls-4" d="M123.02,19.47c2.94,1.76,3.91,5.62,2.17,8.59-1.74,2.97-5.55,3.96-8.49,2.2-2.94-1.76-3.91-5.62-2.17-8.59,1.74-2.97,5.55-3.96,8.49-2.2"/>
    <path class="cls-4" d="M134.78,62.62c2.94,1.76,3.91,5.62,2.17,8.59-1.74,2.97-5.55,3.95-8.49,2.2-2.94-1.76-3.91-5.62-2.17-8.59,1.74-2.97,5.55-3.96,8.49-2.2"/>
    <path class="cls-3" d="M.14,84.46c2.01-26.55,25.07-46.54,51.33-44.5,19.42,1.51,35.29,14.65,41.42,32.14-5.98-9.64-16.49-16.44-28.86-17.36-20.32-1.52-38.17,13.38-39.73,33.17-1.56,19.79,13.74,37.16,34.07,38.68,10.33.77,20.01-2.7,27.25-8.89-9.53,12.42-24.86,19.95-41.46,18.66C17.9,134.32-1.87,111.01.14,84.46"/>
    <path class="cls-1" d="M320.58,152.29c.5,1.15,1.29,2.05,2.37,2.69,1.06.64,2.3.96,3.69.96,1.21,0,2.17-.21,2.86-.62.8-.56,1.21-1.2,1.21-1.92,0-.46-.19-.88-.57-1.25-.39-.38-.86-.71-1.42-.99-.56-.29-1.2-.55-1.89-.8-.71-.26-1.27-.46-1.66-.61-.39-.16-.72-.29-.97-.4-.25-.1-.49-.21-.75-.31-.25-.11-.57-.24-.98-.4-1.23-.45-2.21-1.19-2.93-2.26-.72-1.06-1.08-2.16-1.08-3.32,0-1.37.38-2.59,1.16-3.68.78-1.09,1.91-1.9,3.4-2.43,1.78-.61,3.31-.91,4.59-.91,2.98,0,5.54.69,7.68,2.07-.45,1.19-.87,2.5-1.24,3.92h-1.55c-.2-.99-.79-1.85-1.77-2.59-.97-.75-2.04-1.11-3.2-1.11s-2.04.21-2.79.62c-.76.42-1.13,1.06-1.13,1.92,0,.44.14.81.42,1.14.29.33.64.6,1.06.81.42.22.89.44,1.4.63.52.21,1.05.4,1.59.59,2.78.92,4.79,1.82,6.06,2.73,1.25.92,1.88,2.42,1.88,4.5,0,2.46-1.23,4.34-3.69,5.65-1.73.96-3.89,1.45-6.52,1.45s-5.13-.62-7.35-1.86c.29-1.24.56-2.64.82-4.2h1.29ZM311.35,128.87c-.37,4.18-.56,6.82-.56,7.93h4.73v2.27h-4.73c-.22,4.07-.34,7.32-.34,9.77,0,.69.05,1.77.16,3.25.12,1.41.35,2.42.69,3.02.35.6,1.08.91,2.18.91.45,0,1.05-.07,1.8-.21.08-.02.16-.05.27-.08.1-.03.22-.08.38-.13v1.71c-.26.1-.39.17-.42.21-2.07.56-3.79.84-5.15.84-2.57,0-4.38-.61-5.43-1.84-1.05-1.23-1.58-2.96-1.58-5.19,0-1.53.11-3.89.31-7.09,0-.59.01-1.45.04-2.59.03-1.15.04-2,.04-2.57h-3.74v-2.27h3.74c0-.61-.03-1.49-.1-2.67-.07-1.17-.11-2.08-.14-2.7,1.81-.6,4.25-1.51,7.27-2.75l.56.2ZM291.93,124.75c1.16,0,2.17.34,3,1.03.83.68,1.25,1.51,1.25,2.48s-.42,1.79-1.27,2.49c-.84.69-1.84,1.03-2.98,1.03s-2.08-.36-2.89-1.07c-.79-.71-1.2-1.53-1.2-2.46s.41-1.76,1.2-2.46c.79-.7,1.76-1.06,2.89-1.06ZM287.93,154.98c.03-.48.05-1.19.08-2.13.03-.94.05-1.65.08-2.13.12-3.41.18-5.68.18-6.82s-.03-2.4-.1-3.9c-.08-1.5-.14-2.66-.16-3.47h.42c.86.09,2.14.14,3.83.14.86,0,2.11-.05,3.76-.14l-.33,5.78c-.16,1.88-.25,4.77-.25,8.68,0,2.69.14,5,.39,6.95-.39-.02-1.09-.06-2.08-.11-.98-.06-1.73-.09-2.23-.09-.42,0-1.06.03-1.89.09-.84.06-1.46.09-1.85.11l.15-2.96ZM269.78,156.42c.6,0,1.2-.15,1.8-.44.6-.29,1.06-.65,1.39-1.08.44-.54.83-1.3,1.16-2.26.48-1.61.72-3.42.72-5.45,0-2.27-.29-4.25-.84-5.91-.57-1.66-1.87-2.49-3.88-2.49-3.34,0-5,2.85-5,8.54,0,2.43.27,4.56.82,6.37.54,1.81,1.82,2.72,3.84,2.72ZM257.67,158.01c.14-2.11.25-4.71.34-7.78v-9.3c0-.94.01-2.33.04-4.18.03-1.85.04-3.24.04-4.15,0-3.18-.11-6-.34-8.47,1.65.18,2.91.28,3.77.28.94,0,2.27-.09,4-.28l-.08,2.82c0,.31-.01.73-.04,1.3-.03.56-.04.98-.04,1.25-.05,1.29-.08,3.19-.08,5.71,0,.48-.03,1.2-.08,2.17-.05.96-.08,1.69-.08,2.17.71-1.12,1.69-2.01,2.95-2.66,1.27-.65,2.64-.99,4.14-.99,2.22,0,4.13.5,5.71,1.53,1.58,1.01,2.78,2.32,3.57,3.92.8,1.61,1.2,3.33,1.2,5.15,0,3.7-1.01,6.54-3.04,8.54-2.31,2.3-5.31,3.44-8.96,3.44-1.44,0-2.82-.26-4.15-.8-1.33-.53-2.37-1.3-3.13-2.31-1.17.61-2.7,1.48-4.58,2.63h-1.16ZM247.65,124.75c1.16,0,2.17.34,3,1.03.83.68,1.25,1.51,1.25,2.48s-.42,1.79-1.27,2.49c-.84.69-1.84,1.03-2.98,1.03s-2.08-.36-2.89-1.07c-.79-.71-1.2-1.53-1.2-2.46s.41-1.76,1.2-2.46c.79-.7,1.76-1.06,2.89-1.06ZM243.64,154.98c.03-.48.05-1.19.08-2.13.03-.94.05-1.65.08-2.13.12-3.41.18-5.68.18-6.82s-.03-2.4-.1-3.9c-.08-1.5-.14-2.66-.16-3.47h.42c.86.09,2.14.14,3.83.14.86,0,2.11-.05,3.76-.14l-.33,5.78c-.16,1.88-.25,4.77-.25,8.68,0,2.69.14,5,.39,6.95-.39-.02-1.09-.06-2.08-.11-.98-.06-1.73-.09-2.23-.09-.42,0-1.06.03-1.89.09-.84.06-1.46.09-1.85.11l.15-2.96ZM220.92,134.74l-.08,4.81c1.02-.93,2.26-1.76,3.72-2.46,1.44-.7,2.82-1.04,4.13-1.04,2.49,0,4.58.69,6.22,2.07,1.46,1.2,2.19,3.1,2.19,5.71v14.11c-.42-.02-1.08-.06-1.96-.11-.87-.06-1.53-.09-1.96-.09s-1.09.03-1.97.09c-.9.06-1.54.09-1.95.11.03-.29.08-.77.15-1.43.07-.65.1-1.15.1-1.46l.16-4.06c.12-.88.18-2.2.18-3.99s-.14-3.26-.42-4.49c-.25-.78-.75-1.42-1.48-1.92-.74-.5-1.58-.76-2.52-.76-1.97,0-3.23.71-3.77,2.13-.53,1.41-.8,3.39-.8,5.92,0,.75.01,1.78.04,3.08.03,1.3.07,2.6.12,3.9.04,1.3.07,2.33.08,3.08-.44-.02-1.06-.06-1.92-.11-.86-.06-1.48-.09-1.92-.09-.41,0-1.03.03-1.88.09-.83.06-1.48.09-1.97.11.11-1.27.16-2.24.16-2.89l.26-11.07c0-.59.01-1.46.04-2.6.03-1.16.04-2.04.04-2.64,0-4.93-.16-9.8-.5-14.6,1.17.18,2.52.28,4.02.28,1.8,0,3.13-.09,4.02-.28l-.5,10.6ZM185.62,157.61c1.85-2.02,4.6-5.16,8.27-9.44-3.02-4.42-5.77-8.21-8.27-11.35v-.29c1.97.09,3.42.14,4.33.14,1.91,0,3.35-.07,4.33-.21,2.17,3.43,3.69,5.77,4.58,7.02,2.07-2.49,3.91-4.81,5.49-6.95.26,0,.48.02.65.07,1.69,0,2.97-.02,3.84-.07v.29c-3,3.03-5.79,5.98-8.35,8.87l2.95,4.2c.74,1.09,1.73,2.5,3,4.25,1.28,1.74,2.18,3.02,2.71,3.81-.48-.02-1.21-.06-2.19-.11-.99-.06-1.73-.09-2.22-.09-.45,0-1.16.03-2.11.09-.97.06-1.67.09-2.14.11l-4.98-7.59c-3.27,4.27-5.17,6.81-5.72,7.59-.25-.02-.6-.06-1.05-.11-.46-.06-.79-.09-1.01-.09-.25,0-.6.03-1.05.09-.46.06-.8.09-1.06.11v-.33ZM161.47,127.3c.95.02,2.3.07,4.04.15,1.74.08,3.19.13,4.34.13,1.8,0,3.92-.03,6.39-.09,2.45-.06,4.33-.09,5.64-.11-.05.73-.08,1.84-.08,3.3.05.14.08.32.08.55-5.19-.37-9.22-.55-12.11-.55-.05,1.06-.08,2.62-.08,4.69,0,.55-.01,1.37-.04,2.47-.03,1.1-.04,1.92-.04,2.47l12.09-.33c-.22.92-.33,1.61-.33,2.07,0,.4.11.98.33,1.72-3.53-.23-6.69-.34-9.48-.34-.27,0-.69-.01-1.28-.03-.59-.02-1.03-.03-1.33-.03v11.35c3.27,0,7.37-.2,12.27-.6-.05.72-.08,1.82-.08,3.29.05.14.08.32.08.55-1.06-.02-2.66-.07-4.79-.15-2.12-.08-3.72-.11-4.78-.11-.71,0-1.76.01-3.17.06-1.4.05-2.44.07-3.1.07-.98,0-2.56.05-4.74.14.04-.28.07-.71.1-1.3.03-.57.05-.99.08-1.26.03-.85.07-2.21.14-4.11.07-1.89.1-3.32.1-4.27,0-.73.01-1.86.04-3.36.03-1.51.04-2.65.04-3.4v-5.23c0-.77-.04-1.95-.14-3.55-.1-1.58-.15-2.77-.18-3.55v-.62Z"/>
    <path class="cls-3" d="M81.87,112.42h0l.15-5.7.08-8.43-.05-7.86c-.05-2.48-.1-4.36-.15-5.64l-.21-2.74,4.14.11,3.55-.11-.23,2.74c-.07,1.26-.12,3.12-.16,5.57l-.03,4.5v1.96l1.27-1.24c1.64-1.42,3.75-2.14,6.36-2.15,5.57.03,8.34,2.86,8.32,8.49l-.03,3.16-.03,4.07c0,1.72.05,3.05.16,3.98l.25,2.13-3.62-.11-3.95.11.21-2.41c.08-1.51.14-2.82.17-3.92l.03-3.77-.05-3.33c-.15-3.06-1.61-4.61-4.39-4.64-2.01-.01-3.36.71-4.06,2.16-.37.75-.58,1.66-.64,2.72l-.1,2.97.03,3.85.13,3.72.25,2.66-3.6-.11-3.98.11.18-2.85ZM111.44,113.55h0c.04-.84.1-2.12.15-3.83l.05-5.25c0-2.55-.03-4.24-.08-5.04l-.25-4.06-.08-1.41,3.73.11,3.6-.11-.33,2.48-.08,2.49c1.91-3.6,4.41-5.39,7.5-5.38l1.38.04c-.27,1.71-.41,3.05-.41,4l.05,2.07-.54.24-.99-.45c-.61-.23-1.27-.35-1.99-.35-1.41.03-2.54.46-3.4,1.28-.88.96-1.32,2.39-1.32,4.27l-.03,3.62c-.02,1.72.06,3.45.23,5.16l.18,1.85-3.49-.11-4.09.11.21-1.72ZM129.79,105.23h0c-.02-1.26.17-2.55.56-3.86.72-2.51,2.23-4.47,4.55-5.9,2.21-1.35,4.89-2.03,8.01-2.04,3.88.03,6.99,1,9.31,2.9,2.23,1.83,3.36,4.47,3.4,7.92-.02,5.82-2.93,9.49-8.73,11-1.39.38-2.86.56-4.39.54-3.81-.01-6.88-.94-9.2-2.78-2.33-1.84-3.49-4.43-3.51-7.78ZM137.29,104.95h0c.03,5.89,1.81,8.84,5.34,8.82,3.64.02,5.47-3.2,5.49-9.64-.02-5.77-1.7-8.66-5.05-8.67-3.87.04-5.79,3.21-5.78,9.5ZM163.98,94.07h0l3.44-.11c-.2.74-.33,1.29-.38,1.66l-.03,1.26,1.66-1.37c1.77-1.36,3.88-2.05,6.35-2.07,2.35,0,4.29.64,5.83,1.92.83.71,1.41,1.43,1.73,2.15.44,1.05.66,2.27.66,3.66l-.05,4.58v3.89c0,1.7.05,2.97.16,3.79l.25,1.85-3.88-.11-3.7.11.13-2.11.23-3.9.05-3.7-.1-3.79c-.15-3.05-1.59-4.57-4.31-4.57-2.93.04-4.49,1.6-4.67,4.66l-.13,3.63-.03,3.68c-.02,1.67.04,3.07.18,4.18l.23,1.92-3.57-.11-4.01.11.25-2.18.1-4.05.05-4.29-.05-5.23c-.05-1.57-.1-2.77-.15-3.61l-.21-1.96,3.95.11ZM189.82,113.29h0l.12-3.89.08-4.64-.05-4.49-.15-4.12-.21-2.2,3.75.11,3.82-.11-.2,2.13c-.09.9-.14,2.26-.16,4.07l-.05,4.6.08,4.64.13,3.89.2,1.98-3.8-.11-3.78.11.21-1.98ZM189.48,85.84h0c-.02-.93.37-1.72,1.16-2.39.79-.67,1.73-1,2.82-1s2,.32,2.8.97c.79.65,1.18,1.45,1.18,2.41.02.93-.37,1.73-1.18,2.41-.8.68-1.73,1.02-2.8,1-1.09.02-2.03-.31-2.82-.98-.79-.67-1.18-1.47-1.16-2.41ZM222.06,99.59h0c-.17-.58-.35-1.07-.53-1.46-.26-.55-.64-1.02-1.18-1.4-.53-.39-1.11-.67-1.75-.85-.64-.19-1.3-.27-1.98-.27-2.41-.02-4.23.99-5.46,3-.93,1.52-1.39,3.4-1.38,5.64.02,2.59.59,4.6,1.73,6.03,1.52,1.87,3.61,2.81,6.28,2.81,1.59-.01,3.04-.37,4.34-1.07l1.27-.8.85.35-.66,1.2-.46,1.15-1.24.68c-1.65.78-3.62,1.18-5.9,1.2-3.98-.01-7.2-.98-9.68-2.9-2.6-2.01-3.89-4.69-3.88-8.01-.02-1.57.29-3.07.91-4.52.64-1.44,1.54-2.68,2.73-3.69,1.19-1.02,2.66-1.81,4.39-2.36,1.84-.59,3.76-.89,5.77-.89,2.93.03,5.43.52,7.53,1.48l1.27.7-.89,1.76-.9,2.22h-1.2ZM230.73,112.44h0l.17-6.09.1-8.47-.05-6.72c-.04-2.82-.1-4.97-.17-6.46l-.18-2.64,3.7.11,3.88-.11-.18,2.62c-.11,1.81-.18,3.97-.2,6.49l-.03,6.75.05,8.27.23,6.27.13,2.83-3.82-.11-3.75.11.13-2.83ZM262.8,114.77h0c-.71.27-1.48.49-2.3.63-1.31.26-2.66.39-4.05.39-6.11-.01-10.05-2.05-11.84-6.11-.77-1.63-1.14-3.35-1.12-5.16-.02-1.89.34-3.6,1.07-5.16.53-1.19,1.39-2.28,2.6-3.27,2.14-1.77,4.93-2.65,8.37-2.65,3.48.01,6.2.89,8.14,2.63,1.94,1.75,2.93,4.06,2.96,6.95l-.08,2.16-1.45-.11-2.83-.08-2.71-.16h-8.57l.13,1.43c.23,1.92.96,3.45,2.17,4.6,1.36,1.28,3.12,1.91,5.28,1.89,1.63.02,3.31-.3,5.03-.96l1.48-.65.66.37-.72,1.34-.77,1.33-1.45.59ZM259.11,102.47l.03-1.2c-.12-3.85-1.39-5.79-3.83-5.82-1.84,0-3.08,1.05-3.75,3.14-.49,1.35-.49,2.5-.54,3.88h8.09Z"/>
    <g>
      <path class="cls-2" d="M274.99,63.47c-.04,2.19-.06,3.84-.06,4.93,0,.55.01,1.38.03,2.5s.03,1.98.03,2.56c0,.69.03,1.74.09,3.17s.09,2.49.09,3.17c-.3-.02-.82-.05-1.56-.1-.74-.05-1.3-.07-1.68-.07-.35,0-.88.02-1.59.07-.71.05-1.26.08-1.64.1.02-.64.06-1.58.13-2.83s.1-2.18.1-2.78c.17-5.68.25-10.17.25-13.48,0-1.17-.04-2.86-.12-5.06-.77,0-1.94.04-3.48.12-1.49.14-2.77.28-3.84.43.12-.37.18-.92.18-1.65,0-.65-.02-1.11-.06-1.4-.02-.04-.04-.12-.06-.25-.02-.12-.04-.21-.06-.25,1.31.08,2.31.12,2.99.12,2.86.09,5.26.13,7.19.13h4.1c.68,0,1.67-.04,2.96-.13,1.29-.08,2.35-.13,3.19-.13-.12.55-.18,1.08-.18,1.59,0,.63.06,1.28.18,1.95-2.35-.37-4.69-.55-7.01-.55l-.12,2.86c0,1.11-.02,2.77-.06,4.96Z"/>
      <path class="cls-2" d="M289.26,52.79c.35.07.63.11.85.11.32,0,.87-.08,1.65-.25,2.21,4.9,5.26,11.17,9.14,18.79l2.32-4.57c2.66-5.13,4.96-9.87,6.9-14.22.06.02.13.04.22.06.09.02.15.04.19.06,1.34,0,2.34-.04,2.99-.12.4,3.66,1.11,9.87,2.13,18.62.15.99.35,2.36.6,4.11.25,1.75.38,2.67.39,2.77.02.16.06.43.13.8.07.38.1.66.1.85-.3-.02-.82-.05-1.56-.1-.74-.05-1.3-.07-1.68-.07-.35,0-.87.02-1.58.07-.71.05-1.26.08-1.65.1-.11-2.67-.33-5.63-.66-8.87-.33-3.24-.66-6.39-.99-9.43-4.44,9.1-7.36,15.21-8.77,18.3h-1.53l-3.05-6.34c-.77-1.65-1.81-3.78-3.11-6.4s-2.13-4.31-2.49-5.07c-.38,2.78-.67,5.12-.86,7.01-.14,1.7-.26,3.18-.36,4.45-.16,1.54-.26,2.84-.31,3.9-.02.27-.04.67-.06,1.21s-.04.95-.06,1.24c-.61-.12-1.24-.18-1.89-.18-.61,0-1.22.06-1.83.18,0-.51.1-.99.31-1.46.15-.71.35-1.88.61-3.49s.4-2.46.42-2.55c.41-2.41.77-4.99,1.1-7.74l1.65-11.9c.14.02.38.07.73.14Z"/>
    </g>
  </g>
</svg>