<?xml version="1.0" encoding="UTF-8"?>
<svg id="Layer_2" data-name="Layer 2" xmlns="http://www.w3.org/2000/svg" viewBox="0 0 225.65 107.1">
  <defs>
    <style>
      .cls-1 {
        fill: #fff;
      }

      .cls-1, .cls-2, .cls-3 {
        stroke-width: 0px;
      }

      .cls-1, .cls-3 {
        fill-rule: evenodd;
      }

      .cls-2, .cls-3 {
        fill: #a6ce39;
      }
    </style>
  </defs>
  <g id="Layer_1-2" data-name="Layer 1">
    <path class="cls-3" d="M.09,56.72c1.35-17.83,16.84-31.25,34.47-29.88,13.04,1.01,23.7,9.84,27.82,21.58-4.02-6.47-11.07-11.04-19.38-11.66-13.65-1.02-25.63,8.99-26.68,22.28-1.05,13.29,9.23,24.96,22.88,25.97,6.93.52,13.44-1.81,18.3-5.97-6.4,8.34-16.69,13.4-27.84,12.53C12.02,90.2-1.26,74.54.09,56.72"/>
    <path class="cls-2" d="M215.28,102.27c.34.77.87,1.38,1.59,1.8.71.43,1.55.65,2.48.65.81,0,1.45-.14,1.92-.42.54-.38.81-.81.81-1.29,0-.31-.13-.59-.38-.84-.27-.25-.58-.48-.95-.66-.37-.19-.8-.37-1.27-.54-.48-.18-.85-.31-1.12-.41-.27-.11-.48-.19-.65-.27-.16-.07-.33-.14-.5-.21-.16-.08-.38-.16-.66-.27-.82-.3-1.48-.8-1.97-1.52-.48-.71-.72-1.45-.72-2.23,0-.92.26-1.74.78-2.47.52-.73,1.28-1.28,2.29-1.63,1.2-.41,2.22-.61,3.08-.61,2,0,3.72.46,5.16,1.39-.3.8-.59,1.68-.83,2.64h-1.04c-.14-.66-.53-1.24-1.19-1.74-.65-.5-1.37-.75-2.15-.75s-1.37.14-1.87.42c-.51.29-.76.71-.76,1.29,0,.29.09.55.28.76.19.22.43.4.71.55.28.15.59.29.94.42.35.14.7.27,1.07.39,1.87.62,3.22,1.23,4.07,1.83.84.62,1.26,1.63,1.26,3.02,0,1.65-.82,2.91-2.48,3.79-1.16.65-2.62.97-4.38.97s-3.45-.42-4.94-1.25c.19-.83.37-1.77.55-2.82h.87ZM209.08,86.54c-.25,2.81-.37,4.58-.37,5.32h3.17v1.53h-3.17c-.15,2.74-.23,4.92-.23,6.56,0,.46.04,1.19.11,2.18.08.95.24,1.63.47,2.03.24.4.72.61,1.46.61.3,0,.7-.05,1.21-.14.05-.02.11-.03.18-.05.06-.02.15-.05.26-.08v1.15c-.17.07-.27.12-.28.14-1.39.38-2.54.56-3.46.56-1.73,0-2.94-.41-3.65-1.23-.7-.82-1.06-1.99-1.06-3.48,0-1.02.07-2.61.21-4.76,0-.39,0-.97.03-1.74.02-.77.03-1.34.03-1.73h-2.51v-1.53h2.51c0-.41-.02-1-.06-1.8-.05-.79-.07-1.39-.09-1.81,1.22-.4,2.85-1.02,4.88-1.85l.37.13ZM196.04,83.77c.78,0,1.45.23,2.01.69.56.45.84,1.02.84,1.66s-.28,1.2-.85,1.67c-.57.46-1.23.69-2,.69s-1.4-.24-1.94-.72c-.53-.48-.8-1.02-.8-1.65s.27-1.18.8-1.65c.53-.47,1.18-.71,1.94-.71ZM193.35,104.07c.02-.32.04-.8.05-1.43.02-.63.04-1.11.05-1.43.08-2.29.12-3.81.12-4.58s-.02-1.61-.06-2.62c-.05-1.01-.09-1.79-.11-2.33h.28c.58.06,1.44.09,2.57.09.58,0,1.42-.03,2.52-.09l-.22,3.88c-.11,1.26-.16,3.21-.16,5.83,0,1.8.09,3.36.27,4.67-.27-.02-.73-.04-1.4-.08-.66-.04-1.16-.06-1.5-.06-.28,0-.71.02-1.27.06-.57.04-.98.06-1.24.08l.1-1.99ZM181.16,105.04c.4,0,.8-.1,1.21-.29.4-.19.71-.44.93-.72.29-.36.56-.87.78-1.52.32-1.08.48-2.3.48-3.66,0-1.53-.19-2.85-.57-3.97-.38-1.12-1.25-1.67-2.61-1.67-2.24,0-3.36,1.91-3.36,5.73,0,1.63.18,3.06.55,4.28.37,1.22,1.23,1.83,2.58,1.83ZM173.03,106.11c.09-1.42.16-3.16.23-5.22v-6.24c0-.63,0-1.56.03-2.81.02-1.24.03-2.17.03-2.79,0-2.13-.07-4.03-.23-5.69,1.11.12,1.96.18,2.53.18.63,0,1.53-.06,2.69-.18l-.05,1.9c0,.21,0,.49-.03.87-.02.38-.03.65-.03.84-.04.86-.05,2.14-.05,3.84,0,.32-.02.81-.05,1.46-.04.65-.05,1.13-.05,1.46.48-.76,1.13-1.35,1.98-1.79.85-.44,1.77-.66,2.78-.66,1.49,0,2.77.34,3.83,1.02,1.06.68,1.87,1.56,2.4,2.64.54,1.08.8,2.23.8,3.46,0,2.48-.68,4.39-2.04,5.73-1.55,1.54-3.57,2.31-6.02,2.31-.97,0-1.89-.18-2.79-.54-.9-.35-1.59-.87-2.1-1.55-.79.41-1.81.99-3.07,1.76h-.78ZM166.3,83.77c.78,0,1.45.23,2.01.69.56.45.84,1.02.84,1.66s-.28,1.2-.85,1.67c-.57.46-1.23.69-2,.69s-1.4-.24-1.94-.72c-.53-.48-.8-1.02-.8-1.65s.27-1.18.8-1.65c.53-.47,1.18-.71,1.94-.71ZM163.61,104.07c.02-.32.04-.8.05-1.43.02-.63.04-1.11.05-1.43.08-2.29.12-3.81.12-4.58s-.02-1.61-.06-2.62c-.05-1.01-.09-1.79-.11-2.33h.28c.58.06,1.44.09,2.57.09.58,0,1.42-.03,2.52-.09l-.22,3.88c-.11,1.26-.16,3.21-.16,5.83,0,1.8.09,3.36.27,4.67-.27-.02-.73-.04-1.4-.08-.66-.04-1.16-.06-1.5-.06-.28,0-.71.02-1.27.06-.57.04-.98.06-1.24.08l.1-1.99ZM148.35,90.48l-.05,3.23c.69-.62,1.52-1.18,2.5-1.65.97-.47,1.89-.7,2.77-.7,1.67,0,3.07.46,4.18,1.39.98.81,1.47,2.08,1.47,3.84v9.48c-.28-.02-.72-.04-1.32-.08-.59-.04-1.02-.06-1.32-.06s-.73.02-1.33.06c-.6.04-1.03.06-1.31.08.02-.19.05-.52.1-.96.05-.44.06-.77.06-.98l.11-2.73c.08-.59.12-1.48.12-2.68s-.09-2.19-.28-3.01c-.16-.52-.5-.96-1-1.29-.49-.34-1.06-.51-1.69-.51-1.33,0-2.17.48-2.53,1.43-.36.95-.54,2.27-.54,3.98,0,.5,0,1.19.03,2.07.02.87.05,1.75.08,2.62.03.87.05,1.56.05,2.07-.29-.02-.71-.04-1.29-.08-.58-.04-1-.06-1.29-.06-.27,0-.69.02-1.26.06-.56.04-1,.06-1.33.08.07-.86.11-1.5.11-1.94l.17-7.44c0-.39,0-.98.03-1.75.02-.78.03-1.37.03-1.77,0-3.31-.11-6.58-.34-9.8.79.12,1.69.18,2.7.18,1.21,0,2.1-.06,2.7-.18l-.34,7.12ZM124.65,105.84c1.24-1.36,3.09-3.47,5.55-6.34-2.03-2.97-3.88-5.51-5.55-7.62v-.19c1.33.06,2.3.09,2.91.09,1.28,0,2.25-.05,2.91-.14,1.45,2.3,2.48,3.88,3.07,4.72,1.39-1.67,2.62-3.23,3.69-4.67.17,0,.32.02.44.05,1.13,0,1.99-.02,2.58-.05v.19c-2.01,2.03-3.89,4.01-5.61,5.96l1.98,2.82c.49.73,1.16,1.68,2.01,2.85.86,1.17,1.46,2.03,1.82,2.56-.32-.02-.81-.04-1.47-.08-.67-.04-1.16-.06-1.49-.06-.3,0-.78.02-1.42.06-.65.04-1.12.06-1.44.08l-3.35-5.09c-2.19,2.87-3.47,4.57-3.84,5.09-.16-.02-.4-.04-.7-.08-.31-.04-.53-.06-.68-.06-.16,0-.4.02-.7.06-.31.04-.54.06-.71.08v-.22ZM108.43,85.48c.64.02,1.55.05,2.72.1,1.17.05,2.14.08,2.92.08,1.21,0,2.63-.02,4.29-.06,1.65-.04,2.91-.06,3.79-.08-.04.49-.05,1.23-.05,2.22.04.09.05.22.05.37-3.48-.25-6.19-.37-8.13-.37-.04.71-.05,1.76-.05,3.15,0,.37,0,.92-.03,1.66-.02.74-.03,1.29-.03,1.66l8.12-.22c-.15.62-.22,1.08-.22,1.39,0,.27.07.66.22,1.16-2.37-.15-4.49-.23-6.36-.23-.18,0-.47,0-.86-.02-.39-.02-.69-.02-.9-.02v7.62c2.19,0,4.95-.13,8.24-.4-.04.49-.05,1.23-.05,2.21.04.09.05.22.05.37-.71-.02-1.78-.05-3.22-.1-1.43-.05-2.5-.08-3.21-.08-.48,0-1.18,0-2.13.04-.94.03-1.64.05-2.08.05-.66,0-1.72.03-3.18.09.03-.18.05-.48.06-.87.02-.39.04-.66.05-.85.02-.57.05-1.49.09-2.76.05-1.27.06-2.23.06-2.87,0-.49,0-1.25.03-2.26.02-1.02.03-1.78.03-2.28v-3.51c0-.52-.03-1.31-.09-2.38-.06-1.06-.1-1.86-.12-2.38v-.42Z"/>
    <path class="cls-3" d="M54.98,75.49h0l.1-3.83.05-5.66-.04-5.28c-.04-1.67-.07-2.93-.1-3.79l-.14-1.84,2.78.07,2.38-.07-.15,1.84c-.05.85-.08,2.1-.11,3.74l-.02,3.02v1.32l.85-.83c1.1-.95,2.52-1.44,4.27-1.45,3.74.02,5.6,1.92,5.59,5.7l-.02,2.12-.02,2.73c0,1.16.03,2.05.11,2.67l.17,1.43-2.43-.07-2.66.07.14-1.62c.05-1.01.09-1.89.12-2.63l.02-2.53-.04-2.24c-.1-2.06-1.08-3.09-2.95-3.11-1.35,0-2.26.47-2.73,1.45-.25.5-.39,1.12-.43,1.83l-.07,1.99.02,2.58.09,2.5.17,1.79-2.42-.07-2.67.07.12-1.92ZM74.84,76.25h0c.03-.56.06-1.42.1-2.57l.03-3.53c0-1.71-.02-2.84-.05-3.39l-.17-2.72-.05-.95,2.5.08,2.42-.08-.22,1.67-.05,1.67c1.28-2.42,2.96-3.62,5.04-3.61l.92.03c-.18,1.15-.27,2.05-.27,2.69l.04,1.39-.36.16-.67-.3c-.41-.16-.85-.23-1.33-.23-.95.02-1.71.31-2.28.86-.59.64-.89,1.6-.89,2.86l-.02,2.43c-.01,1.16.04,2.32.15,3.46l.12,1.24-2.34-.07-2.74.07.14-1.16ZM87.15,70.67h0c-.01-.85.12-1.71.37-2.59.48-1.69,1.5-3,3.05-3.96,1.49-.9,3.28-1.36,5.38-1.37,2.6.02,4.69.67,6.25,1.95,1.5,1.23,2.26,3,2.28,5.32-.01,3.91-1.97,6.37-5.86,7.38-.94.25-1.92.37-2.95.36-2.56,0-4.62-.63-6.18-1.87-1.56-1.23-2.35-2.97-2.36-5.22ZM92.19,70.48h0c.02,3.96,1.22,5.93,3.59,5.92,2.44.01,3.67-2.15,3.68-6.48-.01-3.87-1.14-5.81-3.39-5.82-2.6.03-3.89,2.16-3.88,6.38ZM110.12,63.17h0l2.31-.08c-.14.5-.22.87-.26,1.11l-.02.85,1.12-.92c1.19-.91,2.61-1.38,4.26-1.39,1.58,0,2.88.43,3.91,1.29.56.48.95.96,1.16,1.45.3.7.45,1.52.45,2.46l-.04,3.07v2.61c0,1.14.04,1.99.11,2.55l.17,1.24-2.6-.07-2.49.07.09-1.42.15-2.62.03-2.48-.07-2.54c-.1-2.05-1.07-3.07-2.9-3.07-1.97.03-3.01,1.07-3.14,3.13l-.09,2.44-.02,2.47c-.01,1.12.03,2.06.12,2.81l.15,1.29-2.4-.07-2.69.07.17-1.46.07-2.72.04-2.88-.04-3.51c-.04-1.05-.07-1.86-.1-2.42l-.14-1.32,2.66.08ZM127.47,76.07h0l.08-2.61.05-3.11-.04-3.01-.1-2.76-.14-1.48,2.52.08,2.57-.08-.13,1.43c-.06.6-.09,1.52-.11,2.73l-.04,3.09.05,3.11.09,2.61.13,1.33-2.55-.07-2.54.07.14-1.33ZM127.24,57.64h0c-.01-.62.25-1.16.78-1.61.53-.45,1.16-.67,1.9-.67s1.35.21,1.88.65c.53.43.8.97.8,1.62.01.62-.25,1.16-.79,1.62-.54.46-1.16.68-1.88.67-.73.01-1.36-.21-1.9-.66-.53-.45-.79-.99-.78-1.62ZM149.12,66.88h0c-.11-.39-.23-.72-.36-.98-.17-.37-.43-.68-.79-.94-.36-.26-.74-.45-1.18-.57-.43-.13-.87-.18-1.33-.18-1.62-.01-2.84.66-3.67,2.02-.63,1.02-.94,2.29-.92,3.79.01,1.74.4,3.09,1.16,4.05,1.02,1.26,2.42,1.89,4.22,1.89,1.07,0,2.04-.25,2.91-.72l.85-.54.57.23-.44.8-.31.77-.84.45c-1.11.52-2.43.79-3.96.8-2.67,0-4.84-.66-6.5-1.95-1.75-1.35-2.61-3.15-2.6-5.38-.01-1.05.19-2.06.61-3.03.43-.97,1.04-1.8,1.84-2.48.8-.68,1.78-1.21,2.95-1.58,1.23-.4,2.53-.6,3.87-.6,1.97.02,3.65.35,5.06.99l.85.47-.6,1.18-.6,1.49h-.81ZM154.94,75.51h0l.12-4.09.07-5.69-.04-4.52c-.02-1.89-.06-3.34-.12-4.34l-.12-1.77,2.49.07,2.6-.07-.12,1.76c-.08,1.22-.12,2.67-.13,4.36l-.02,4.53.04,5.55.15,4.21.09,1.9-2.57-.07-2.52.07.09-1.9ZM176.47,77.07h0c-.48.18-.99.33-1.54.42-.88.17-1.78.26-2.72.26-4.1,0-6.75-1.38-7.95-4.11-.51-1.09-.77-2.25-.76-3.47-.01-1.27.23-2.42.72-3.46.36-.8.94-1.53,1.75-2.2,1.44-1.19,3.31-1.78,5.62-1.78,2.34,0,4.16.6,5.46,1.77,1.3,1.17,1.96,2.72,1.99,4.67l-.05,1.45-.98-.07-1.9-.05-1.82-.11h-5.76l.09.96c.16,1.29.64,2.32,1.46,3.09.91.86,2.09,1.28,3.54,1.27,1.09.01,2.22-.2,3.37-.64l.99-.44.45.25-.48.9-.51.89-.98.39ZM173.99,68.81l.02-.8c-.08-2.58-.94-3.89-2.57-3.91-1.23,0-2.07.7-2.52,2.11-.33.91-.33,1.68-.36,2.6h5.43Z"/>
    <g>
      <path class="cls-1" d="M31.61,100.75c1.17-1.99,3.73-2.66,5.7-1.47,1.97,1.18,2.63,3.77,1.46,5.77-1.17,1.99-3.73,2.66-5.7,1.47-1.97-1.18-2.63-3.77-1.46-5.77"/>
      <path class="cls-1" d="M76.4.59c1.97,1.18,2.63,3.77,1.46,5.77-1.17,1.99-3.73,2.66-5.7,1.47-1.97-1.18-2.63-3.77-1.46-5.77,1.17-1.99,3.73-2.66,5.7-1.47"/>
      <path class="cls-1" d="M20.41,57.36c1.17-1.99,3.73-2.66,5.7-1.47,1.97,1.18,2.63,3.77,1.46,5.77-1.17,1.99-3.73,2.66-5.7,1.47-1.97-1.18-2.63-3.77-1.46-5.77"/>
      <path class="cls-1" d="M24.43,74.09c1.17-1.99,3.73-2.66,5.7-1.48,1.97,1.18,2.63,3.77,1.46,5.77-1.17,1.99-3.73,2.66-5.7,1.47-1.97-1.18-2.63-3.77-1.46-5.76"/>
      <path class="cls-1" d="M48.16,96.69c1.17-1.99,3.73-2.66,5.7-1.47,1.97,1.18,2.63,3.77,1.46,5.77-1.17,1.99-3.73,2.66-5.7,1.47-1.97-1.18-2.63-3.77-1.46-5.77"/>
      <path class="cls-1" d="M63.45,92.58c1.17-1.99,3.73-2.66,5.7-1.47,1.97,1.18,2.63,3.77,1.46,5.77-1.17,1.99-3.73,2.66-5.7,1.47-1.97-1.18-2.63-3.77-1.46-5.77"/>
      <path class="cls-1" d="M77.62,88.79c1.17-1.99,3.73-2.66,5.7-1.47,1.97,1.18,2.63,3.77,1.46,5.77-1.17,1.99-3.73,2.66-5.7,1.47-1.97-1.18-2.63-3.77-1.46-5.77"/>
      <path class="cls-1" d="M92.45,84.8c1.17-1.99,3.73-2.66,5.7-1.47,1.97,1.18,2.63,3.77,1.46,5.77-1.17,1.99-3.73,2.66-5.7,1.47-1.97-1.18-2.63-3.77-1.46-5.77"/>
      <path class="cls-1" d="M55.87,4.26c1.17-1.99,3.73-2.66,5.7-1.47,1.97,1.18,2.63,3.77,1.46,5.77-1.17,1.99-3.73,2.66-5.7,1.47-1.97-1.18-2.63-3.77-1.46-5.77"/>
      <path class="cls-1" d="M41.21,8.32c1.17-1.99,3.73-2.66,5.7-1.48,1.97,1.18,2.63,3.77,1.46,5.77-1.17,1.99-3.73,2.66-5.7,1.47-1.97-1.18-2.63-3.77-1.46-5.77"/>
      <path class="cls-1" d="M25.99,12.48c1.17-1.99,3.73-2.66,5.7-1.47,1.97,1.18,2.63,3.77,1.46,5.77-1.17,1.99-3.73,2.66-5.7,1.47-1.97-1.18-2.63-3.77-1.46-5.77"/>
      <path class="cls-1" d="M9.97,16.84c1.17-1.99,3.73-2.66,5.7-1.47,1.97,1.18,2.63,3.77,1.46,5.77-1.17,1.99-3.73,2.66-5.7,1.47-1.97-1.18-2.63-3.77-1.46-5.77"/>
      <path class="cls-1" d="M86.43,28.43c1.97,1.18,2.63,3.77,1.46,5.77-1.17,1.99-3.73,2.66-5.7,1.48-1.97-1.18-2.63-3.77-1.46-5.77,1.17-1.99,3.73-2.66,5.7-1.47"/>
      <path class="cls-1" d="M82.61,13.08c1.97,1.18,2.63,3.77,1.46,5.77-1.17,1.99-3.73,2.66-5.7,1.47-1.97-1.18-2.63-3.77-1.46-5.77,1.17-1.99,3.73-2.66,5.7-1.48"/>
      <path class="cls-1" d="M90.51,42.05c1.97,1.18,2.63,3.77,1.46,5.77-1.17,1.99-3.73,2.66-5.7,1.47-1.97-1.18-2.63-3.77-1.46-5.77,1.17-1.99,3.73-2.66,5.7-1.47"/>
      <path class="cls-1" d="M90.51,42.05c1.97,1.18,2.63,3.77,1.46,5.77-1.17,1.99-3.73,2.66-5.7,1.47-1.97-1.18-2.63-3.77-1.46-5.77,1.17-1.99,3.73-2.66,5.7-1.47"/>
    </g>
  </g>
</svg>