<?xml version="1.0" encoding="UTF-8"?>
<svg id="Layer_2" data-name="Layer 2" xmlns="http://www.w3.org/2000/svg" viewBox="0 0 225.17 106.87">
  <defs>
    <style>
      .cls-1, .cls-2, .cls-3, .cls-4 {
        stroke-width: 0px;
      }

      .cls-1, .cls-3 {
        fill: #fff;
      }

      .cls-1, .cls-4 {
        fill-rule: evenodd;
      }

      .cls-2, .cls-4 {
        fill: #a5cd39;
      }
    </style>
  </defs>
  <g id="Layer_2-2" data-name="Layer 2">
    <g>
      <path class="cls-1" d="M31.54,100.53c1.17-1.99,3.72-2.65,5.69-1.47,1.97,1.18,2.62,3.76,1.46,5.75-1.17,1.99-3.72,2.65-5.69,1.47-1.97-1.18-2.62-3.76-1.45-5.75"/>
      <path class="cls-1" d="M76.23.58c1.97,1.18,2.62,3.76,1.46,5.75-1.17,1.99-3.72,2.65-5.69,1.47-1.97-1.18-2.62-3.76-1.45-5.75,1.17-1.99,3.72-2.65,5.69-1.47"/>
      <path class="cls-1" d="M20.37,57.23c1.17-1.99,3.72-2.65,5.69-1.47,1.97,1.18,2.62,3.76,1.46,5.75-1.17,1.99-3.72,2.65-5.69,1.47-1.97-1.18-2.62-3.76-1.46-5.75"/>
      <path class="cls-1" d="M24.38,73.93c1.17-1.99,3.72-2.65,5.69-1.47,1.97,1.18,2.62,3.76,1.46,5.75-1.17,1.99-3.72,2.65-5.69,1.47-1.97-1.18-2.62-3.76-1.46-5.75"/>
      <path class="cls-1" d="M48.05,96.48c1.17-1.99,3.72-2.65,5.69-1.47,1.97,1.18,2.62,3.76,1.45,5.75-1.17,1.99-3.72,2.65-5.69,1.47-1.97-1.18-2.62-3.76-1.46-5.75"/>
      <path class="cls-1" d="M63.31,92.38c1.17-1.99,3.72-2.65,5.69-1.47,1.97,1.18,2.62,3.76,1.46,5.75-1.17,1.99-3.72,2.65-5.69,1.47-1.97-1.18-2.62-3.76-1.46-5.75"/>
      <path class="cls-1" d="M77.45,88.6c1.17-1.99,3.72-2.65,5.69-1.47,1.97,1.18,2.62,3.76,1.45,5.75-1.17,1.99-3.72,2.65-5.69,1.47-1.97-1.18-2.62-3.76-1.45-5.75"/>
      <path class="cls-1" d="M92.25,84.61c1.17-1.99,3.72-2.65,5.69-1.47,1.97,1.18,2.62,3.76,1.46,5.75-1.17,1.99-3.72,2.65-5.69,1.47-1.97-1.18-2.62-3.76-1.46-5.75"/>
      <path class="cls-1" d="M55.75,4.25c1.17-1.99,3.72-2.65,5.69-1.47,1.97,1.18,2.62,3.76,1.46,5.75-1.17,1.99-3.72,2.65-5.69,1.47-1.97-1.18-2.62-3.76-1.46-5.75"/>
      <path class="cls-1" d="M41.12,8.3c1.17-1.99,3.72-2.65,5.69-1.47,1.97,1.18,2.62,3.76,1.46,5.75-1.17,1.99-3.72,2.65-5.69,1.47-1.97-1.18-2.62-3.76-1.46-5.75"/>
      <path class="cls-1" d="M25.93,12.45c1.17-1.99,3.72-2.65,5.69-1.47,1.97,1.18,2.62,3.76,1.46,5.75-1.17,1.99-3.72,2.65-5.69,1.47-1.97-1.18-2.62-3.76-1.46-5.75"/>
      <path class="cls-1" d="M9.95,16.8c1.17-1.99,3.72-2.65,5.69-1.47,1.97,1.18,2.62,3.76,1.46,5.75-1.17,1.99-3.72,2.65-5.69,1.47-1.97-1.18-2.62-3.76-1.46-5.75"/>
      <path class="cls-1" d="M86.25,28.37c1.97,1.18,2.62,3.76,1.46,5.75-1.17,1.99-3.72,2.65-5.69,1.47-1.97-1.18-2.62-3.76-1.46-5.75,1.17-1.99,3.72-2.65,5.69-1.47"/>
      <path class="cls-1" d="M82.43,13.05c1.97,1.18,2.62,3.76,1.46,5.75-1.17,1.99-3.72,2.65-5.69,1.47-1.97-1.18-2.62-3.76-1.46-5.75,1.17-1.99,3.72-2.65,5.69-1.47"/>
      <path class="cls-1" d="M90.31,41.96c1.97,1.18,2.62,3.76,1.46,5.75-1.17,1.99-3.72,2.65-5.69,1.47-1.97-1.18-2.62-3.76-1.46-5.75,1.17-1.99,3.72-2.65,5.69-1.47"/>
      <path class="cls-4" d="M.09,56.59c1.35-17.79,16.8-31.18,34.39-29.82,13.01,1.01,23.65,9.82,27.76,21.54-4.01-6.46-11.05-11.02-19.34-11.64-13.62-1.02-25.58,8.97-26.62,22.23-1.04,13.26,9.21,24.9,22.83,25.92,6.92.52,13.41-1.81,18.26-5.96-6.39,8.32-16.65,13.37-27.78,12.5C11.99,90-1.25,74.38.09,56.59"/>
      <path class="cls-2" d="M214.81,102.05c.34.77.87,1.38,1.59,1.8.71.43,1.54.65,2.47.65.81,0,1.45-.14,1.92-.42.54-.38.81-.81.81-1.28,0-.31-.13-.59-.38-.84-.26-.25-.57-.48-.95-.66-.37-.19-.8-.37-1.27-.54-.47-.18-.85-.31-1.11-.41-.26-.11-.48-.19-.65-.27-.16-.07-.33-.14-.5-.21-.16-.08-.38-.16-.66-.27-.82-.3-1.48-.8-1.96-1.51-.48-.71-.72-1.45-.72-2.22,0-.92.26-1.74.78-2.47.52-.73,1.28-1.28,2.28-1.63,1.2-.41,2.22-.61,3.07-.61,2,0,3.71.46,5.15,1.38-.3.8-.58,1.68-.83,2.63h-1.04c-.14-.66-.53-1.24-1.19-1.74-.65-.5-1.37-.75-2.14-.75s-1.37.14-1.87.42c-.51.28-.76.71-.76,1.28,0,.29.09.55.28.76.19.22.43.4.71.55.28.15.59.29.94.42.35.14.7.27,1.07.39,1.86.62,3.21,1.22,4.06,1.83.84.62,1.26,1.62,1.26,3.01,0,1.65-.82,2.91-2.47,3.78-1.16.65-2.61.97-4.37.97s-3.44-.42-4.93-1.25c.19-.83.37-1.77.55-2.81h.87ZM208.63,86.35c-.25,2.8-.37,4.57-.37,5.31h3.17v1.52h-3.17c-.15,2.73-.23,4.91-.23,6.54,0,.46.04,1.18.11,2.18.08.95.24,1.62.47,2.02.24.4.72.61,1.46.61.3,0,.7-.05,1.2-.14.05-.02.11-.03.18-.05.06-.02.15-.05.26-.08v1.15c-.17.07-.26.12-.28.14-1.39.38-2.54.56-3.45.56-1.72,0-2.94-.41-3.64-1.23-.7-.82-1.06-1.98-1.06-3.48,0-1.02.07-2.61.21-4.75,0-.39,0-.97.03-1.74.02-.77.03-1.34.03-1.72h-2.51v-1.52h2.51c0-.41-.02-1-.06-1.79-.05-.78-.07-1.39-.09-1.81,1.21-.4,2.85-1.01,4.87-1.85l.37.13ZM195.61,83.59c.78,0,1.45.23,2.01.69.56.45.84,1.01.84,1.66s-.28,1.2-.85,1.67c-.57.46-1.23.69-2,.69s-1.4-.24-1.93-.72c-.53-.48-.8-1.02-.8-1.65s.27-1.18.8-1.65c.53-.47,1.18-.71,1.93-.71ZM192.93,103.85c.02-.32.04-.8.05-1.43.02-.63.04-1.11.05-1.43.08-2.28.12-3.81.12-4.57s-.02-1.61-.06-2.61c-.05-1.01-.09-1.78-.11-2.32h.28c.57.06,1.43.09,2.56.09.57,0,1.41-.03,2.52-.09l-.22,3.88c-.11,1.26-.16,3.2-.16,5.81,0,1.8.09,3.35.26,4.66-.26-.02-.73-.04-1.4-.08-.66-.04-1.16-.06-1.5-.06-.28,0-.71.02-1.27.06-.57.04-.98.06-1.24.08l.1-1.98ZM180.77,104.82c.4,0,.8-.1,1.2-.29.4-.19.71-.44.93-.72.29-.36.56-.87.78-1.51.32-1.08.48-2.29.48-3.65,0-1.52-.19-2.85-.57-3.96-.38-1.12-1.25-1.67-2.6-1.67-2.24,0-3.35,1.91-3.35,5.72,0,1.63.18,3.05.55,4.27.36,1.21,1.22,1.82,2.57,1.82ZM172.66,105.88c.09-1.41.16-3.15.23-5.21v-6.23c0-.63,0-1.56.03-2.8.02-1.24.03-2.17.03-2.78,0-2.13-.07-4.02-.23-5.67,1.1.12,1.95.18,2.53.18.63,0,1.52-.06,2.68-.18l-.05,1.89c0,.21,0,.49-.03.87-.02.38-.03.65-.03.84-.04.86-.05,2.14-.05,3.83,0,.32-.02.81-.05,1.45-.04.65-.05,1.13-.05,1.45.47-.75,1.13-1.35,1.98-1.78.85-.44,1.77-.66,2.77-.66,1.49,0,2.76.34,3.82,1.02,1.06.68,1.86,1.55,2.39,2.63.54,1.08.8,2.23.8,3.45,0,2.48-.68,4.38-2.03,5.72-1.55,1.54-3.56,2.31-6,2.31-.97,0-1.89-.18-2.78-.54-.89-.35-1.59-.87-2.1-1.55-.78.41-1.81.99-3.07,1.76h-.78ZM165.94,83.59c.78,0,1.45.23,2.01.69.56.45.84,1.01.84,1.66s-.28,1.2-.85,1.67c-.57.46-1.23.69-2,.69s-1.4-.24-1.93-.72c-.53-.48-.8-1.02-.8-1.65s.27-1.18.8-1.65c.53-.47,1.18-.71,1.93-.71ZM163.26,103.85c.02-.32.04-.8.05-1.43.02-.63.04-1.11.05-1.43.08-2.28.12-3.81.12-4.57s-.02-1.61-.06-2.61c-.05-1.01-.09-1.78-.11-2.32h.28c.57.06,1.43.09,2.56.09.57,0,1.41-.03,2.52-.09l-.22,3.88c-.11,1.26-.16,3.2-.16,5.81,0,1.8.09,3.35.26,4.66-.26-.02-.73-.04-1.4-.08-.66-.04-1.16-.06-1.5-.06-.28,0-.71.02-1.27.06-.57.04-.98.06-1.24.08l.1-1.98ZM148.03,90.28l-.05,3.22c.68-.62,1.51-1.18,2.49-1.65.97-.47,1.89-.7,2.76-.7,1.67,0,3.07.46,4.17,1.38.98.81,1.47,2.08,1.47,3.83v9.46c-.28-.02-.72-.04-1.31-.08-.58-.04-1.02-.06-1.31-.06s-.73.02-1.32.06c-.6.04-1.03.06-1.3.08.02-.19.05-.52.1-.96.05-.44.06-.77.06-.98l.11-2.72c.08-.59.12-1.48.12-2.68s-.09-2.18-.28-3.01c-.16-.52-.5-.95-.99-1.28-.49-.34-1.06-.51-1.69-.51-1.32,0-2.16.48-2.53,1.43-.36.95-.54,2.27-.54,3.97,0,.5,0,1.19.03,2.06.02.87.05,1.75.08,2.61.03.87.05,1.56.05,2.06-.29-.02-.71-.04-1.29-.08-.57-.04-.99-.06-1.29-.06-.27,0-.69.02-1.26.06-.56.04-.99.06-1.32.08.07-.85.11-1.5.11-1.94l.17-7.42c0-.39,0-.98.03-1.75.02-.78.03-1.37.03-1.77,0-3.31-.11-6.57-.34-9.78.78.12,1.69.18,2.69.18,1.2,0,2.1-.06,2.69-.18l-.34,7.11ZM124.38,105.61c1.24-1.35,3.08-3.46,5.54-6.33-2.03-2.96-3.87-5.5-5.54-7.6v-.19c1.32.06,2.29.09,2.9.09,1.28,0,2.24-.05,2.9-.14,1.45,2.3,2.47,3.87,3.07,4.71,1.39-1.67,2.62-3.22,3.68-4.66.17,0,.32.02.44.05,1.13,0,1.99-.02,2.57-.05v.19c-2.01,2.03-3.88,4.01-5.59,5.94l1.98,2.81c.49.73,1.16,1.68,2.01,2.85.86,1.17,1.46,2.02,1.82,2.55-.32-.02-.81-.04-1.47-.08-.67-.04-1.16-.06-1.49-.06-.3,0-.78.02-1.41.06-.65.04-1.12.06-1.43.08l-3.34-5.08c-2.19,2.86-3.47,4.56-3.83,5.08-.16-.02-.4-.04-.7-.08-.31-.04-.53-.06-.68-.06-.16,0-.4.02-.7.06-.31.04-.54.06-.71.08v-.22ZM108.19,85.3c.64.02,1.54.05,2.71.1,1.17.05,2.14.08,2.91.08,1.2,0,2.63-.02,4.28-.06,1.64-.04,2.9-.06,3.78-.08-.04.49-.05,1.23-.05,2.21.04.09.05.22.05.37-3.48-.25-6.18-.37-8.11-.37-.04.71-.05,1.75-.05,3.15,0,.37,0,.92-.03,1.65-.02.74-.03,1.28-.03,1.65l8.1-.22c-.15.62-.22,1.08-.22,1.38,0,.27.07.65.22,1.15-2.36-.15-4.48-.23-6.35-.23-.18,0-.47,0-.86-.02-.39-.02-.69-.02-.89-.02v7.6c2.19,0,4.94-.13,8.22-.4-.04.48-.05,1.22-.05,2.21.04.09.05.22.05.37-.71-.02-1.78-.05-3.21-.1-1.42-.05-2.49-.08-3.2-.08-.47,0-1.18,0-2.13.04-.94.03-1.63.05-2.08.05-.66,0-1.72.03-3.18.09.03-.18.05-.48.06-.87.02-.38.04-.66.05-.85.02-.57.05-1.48.09-2.75.05-1.27.06-2.22.06-2.86,0-.49,0-1.25.03-2.25.02-1.02.03-1.78.03-2.28v-3.51c0-.52-.03-1.31-.09-2.38-.06-1.06-.1-1.85-.12-2.38v-.42Z"/>
      <path class="cls-4" d="M54.86,75.33h0l.1-3.82.05-5.65-.04-5.27c-.04-1.66-.07-2.92-.1-3.78l-.14-1.84,2.77.07,2.38-.07-.15,1.84c-.05.85-.08,2.09-.1,3.73l-.02,3.02v1.31l.85-.83c1.1-.95,2.52-1.43,4.26-1.44,3.73.02,5.59,1.92,5.57,5.69l-.02,2.12-.02,2.73c0,1.15.03,2.05.1,2.67l.17,1.43-2.43-.07-2.65.07.14-1.62c.05-1.01.09-1.89.12-2.63l.02-2.52-.04-2.23c-.1-2.05-1.08-3.09-2.94-3.11-1.35,0-2.25.47-2.72,1.44-.25.5-.39,1.11-.43,1.82l-.07,1.99.02,2.58.09,2.49.17,1.78-2.41-.07-2.67.07.12-1.91ZM74.68,76.09h0c.03-.56.06-1.42.1-2.56l.03-3.52c0-1.71-.02-2.84-.05-3.38l-.17-2.72-.05-.95,2.5.08,2.41-.08-.22,1.66-.05,1.67c1.28-2.41,2.95-3.61,5.03-3.6l.92.03c-.18,1.15-.27,2.04-.27,2.68l.04,1.38-.36.16-.67-.3c-.41-.15-.85-.23-1.33-.23-.95.02-1.7.31-2.28.86-.59.64-.89,1.6-.89,2.86l-.02,2.42c-.01,1.16.04,2.31.15,3.46l.12,1.24-2.34-.07-2.74.07.14-1.15ZM86.97,70.51h0c-.01-.85.12-1.71.37-2.58.48-1.68,1.49-3,3.05-3.95,1.48-.9,3.27-1.36,5.37-1.37,2.6.02,4.68.67,6.24,1.94,1.49,1.23,2.25,2.99,2.28,5.31-.01,3.9-1.96,6.36-5.85,7.37-.93.25-1.91.37-2.94.36-2.55,0-4.61-.63-6.16-1.86-1.56-1.23-2.34-2.97-2.35-5.21ZM91.99,70.32h0c.02,3.95,1.21,5.92,3.58,5.91,2.44.01,3.67-2.15,3.68-6.46-.01-3.86-1.14-5.8-3.38-5.81-2.59.03-3.88,2.15-3.87,6.36ZM109.88,63.03h0l2.31-.08c-.13.5-.22.87-.26,1.11l-.02.85,1.12-.92c1.18-.91,2.6-1.37,4.25-1.38,1.58,0,2.88.43,3.9,1.28.55.48.95.96,1.16,1.44.3.7.44,1.52.44,2.45l-.04,3.07v2.61c0,1.14.04,1.99.1,2.54l.17,1.24-2.6-.07-2.48.07.09-1.41.15-2.61.03-2.48-.07-2.54c-.1-2.04-1.06-3.06-2.89-3.06-1.96.03-3.01,1.07-3.13,3.12l-.09,2.43-.02,2.46c-.01,1.12.03,2.06.12,2.8l.15,1.28-2.39-.07-2.68.07.17-1.46.07-2.71.04-2.87-.04-3.5c-.04-1.05-.07-1.86-.1-2.42l-.14-1.31,2.65.08ZM127.19,75.91h0l.08-2.61.05-3.11-.04-3.01-.1-2.76-.14-1.47,2.52.08,2.56-.08-.13,1.43c-.06.6-.09,1.51-.1,2.73l-.04,3.08.05,3.11.09,2.61.13,1.33-2.54-.07-2.53.07.14-1.33ZM126.96,57.52h0c-.01-.62.24-1.15.78-1.6.53-.45,1.16-.67,1.89-.67s1.34.21,1.87.65c.53.43.79.97.79,1.61.01.62-.25,1.16-.79,1.62-.54.46-1.16.68-1.88.67-.73.01-1.36-.21-1.89-.66-.53-.45-.79-.99-.78-1.62ZM148.8,66.73h0c-.11-.39-.23-.72-.36-.98-.17-.37-.43-.68-.79-.94-.36-.26-.74-.45-1.17-.57-.43-.12-.87-.18-1.32-.18-1.62-.01-2.84.66-3.66,2.01-.62,1.02-.93,2.28-.92,3.78.01,1.73.4,3.08,1.16,4.04,1.02,1.25,2.42,1.88,4.21,1.88,1.07,0,2.04-.25,2.91-.72l.85-.54.57.23-.44.8-.31.77-.83.45c-1.11.52-2.43.79-3.95.8-2.67,0-4.83-.66-6.48-1.94-1.75-1.35-2.61-3.14-2.6-5.37-.01-1.05.19-2.06.61-3.03.43-.97,1.03-1.79,1.83-2.47.8-.68,1.78-1.21,2.94-1.58,1.23-.4,2.52-.6,3.86-.6,1.96.02,3.64.35,5.05.99l.85.47-.6,1.18-.6,1.49h-.81ZM154.61,75.34h0l.12-4.08.07-5.68-.04-4.51c-.02-1.89-.06-3.33-.12-4.33l-.12-1.77,2.48.07,2.6-.07-.12,1.75c-.08,1.21-.12,2.66-.13,4.35l-.02,4.52.04,5.54.15,4.2.09,1.9-2.56-.07-2.52.07.09-1.9ZM176.09,76.9h0c-.48.18-.99.33-1.54.42-.88.17-1.78.26-2.71.26-4.09,0-6.74-1.37-7.93-4.1-.51-1.09-.76-2.25-.75-3.46-.01-1.26.23-2.41.72-3.46.36-.8.93-1.53,1.74-2.19,1.44-1.19,3.3-1.78,5.61-1.78,2.33,0,4.16.6,5.45,1.76,1.3,1.17,1.96,2.72,1.98,4.66l-.05,1.44-.97-.07-1.9-.05-1.81-.11h-5.74l.09.96c.16,1.28.64,2.32,1.45,3.08.91.86,2.09,1.28,3.54,1.27,1.09.01,2.22-.2,3.37-.64l.99-.44.44.25-.48.9-.51.89-.97.39ZM173.62,68.66l.02-.8c-.08-2.58-.93-3.88-2.57-3.9-1.23,0-2.07.7-2.51,2.1-.33.91-.33,1.68-.36,2.6h5.42Z"/>
      <path class="cls-3" d="M179.51,51.76v-10.28h3.12l1.84,7.01,1.82-7.01h3.12v10.28h-1.92v-8.09s-2.03,8.09-2.03,8.09h-2l-2.02-8.09v8.09h-1.93ZM173.08,51.76v-8.54h-3.04v-1.74h8.15v1.74h-3.03v8.54h-2.08Z"/>
    </g>
  </g>
</svg>