<svg width="144" height="145" viewBox="0 0 144 145" fill="none" xmlns="http://www.w3.org/2000/svg">
<path d="M137.042 79.759L131.102 81.739L113.162 36.199L132.722 27.799C134.222 27.139 134.942 25.399 134.282 23.839C134.128 23.4731 133.903 23.1416 133.62 22.8641C133.336 22.5866 133 22.3687 132.631 22.2233C132.262 22.0779 131.867 22.0079 131.471 22.0175C131.074 22.027 130.683 22.116 130.322 22.279L108.122 31.819C106.622 32.479 105.902 34.159 106.502 35.659L108.002 39.559L105.662 40.519C102.602 41.839 99.1815 42.139 95.9415 41.299L89.8215 39.799C84.7815 38.539 79.5015 39.199 74.8815 41.539L73.6815 42.139C68.3415 39.199 62.2815 38.119 56.1015 39.439L50.6415 40.939C46.9215 41.959 43.0215 42.019 39.2415 41.119L35.4615 40.219L36.6015 37.399C37.2015 35.899 36.4815 34.159 34.9815 33.499L12.1815 23.659C10.6815 22.999 8.88154 23.659 8.22154 25.219C7.56154 26.719 8.22154 28.519 9.78154 29.179L29.8815 37.879L12.8415 80.299L6.78154 78.379C6.40359 78.2533 6.00418 78.2051 5.60718 78.2372C5.21018 78.2694 4.82372 78.3812 4.47089 78.566C4.11806 78.7508 3.80611 79.0048 3.55365 79.3129C3.30119 79.621 3.11342 79.9768 3.00154 80.359C2.52154 81.919 3.36154 83.599 4.98154 84.139L13.6815 86.899C13.6815 86.899 14.2815 87.019 14.5815 87.019C15.7815 87.019 16.9215 86.299 17.3415 85.159L18.9615 81.139L23.0415 82.819C22.5417 84.2231 22.3815 85.7256 22.574 87.2035C22.7665 88.6814 23.3063 90.0927 24.1491 91.3218C24.992 92.551 26.1139 93.5631 27.4232 94.2752C28.7324 94.9874 30.1917 95.3793 31.6815 95.419C31.7415 97.879 32.7015 100.099 34.4415 101.839C36.1815 103.579 38.4615 104.539 40.8615 104.599C40.9215 106.999 41.8815 109.279 43.6215 111.019C45.3615 112.759 47.6415 113.719 50.0415 113.779C50.1015 116.179 51.0615 118.459 52.8015 120.199C54.5415 121.939 57.0015 122.959 59.5215 122.959C62.0415 122.959 64.4415 121.939 66.2415 120.199L68.7015 117.739L71.1615 120.199C72.9615 121.999 75.3615 122.959 77.8815 122.959C80.4015 122.959 82.8015 121.939 84.6015 120.199C85.5615 119.239 86.2215 118.159 86.7015 116.959C88.2015 117.859 89.8815 118.399 91.6215 118.399C94.1415 118.399 96.5415 117.379 98.3415 115.639C100.082 113.899 101.042 111.619 101.102 109.219C103.502 109.159 105.782 108.199 107.522 106.459C109.262 104.719 110.222 102.439 110.282 100.039C112.747 99.9716 115.088 98.9419 116.804 97.1701C118.519 95.3983 119.473 93.0253 119.462 90.559C119.462 89.359 119.222 88.159 118.802 87.079L125.222 83.599L126.422 86.719C126.902 87.919 128.042 88.639 129.242 88.639C129.542 88.639 129.902 88.639 130.202 88.459L138.842 85.519C139.212 85.393 139.554 85.1952 139.848 84.937C140.142 84.6788 140.382 84.3653 140.554 84.0143C140.727 83.6632 140.829 83.2817 140.854 82.8913C140.88 82.5009 140.828 82.1094 140.702 81.739C140.575 81.3687 140.378 81.0268 140.12 80.7329C139.861 80.4391 139.548 80.1989 139.197 80.0262C138.846 79.8535 138.464 79.7516 138.074 79.7263C137.683 79.7011 137.292 79.753 136.922 79.879L137.042 79.759ZM28.6215 85.939C28.6215 84.979 28.9815 84.139 29.6415 83.479L34.2015 78.859C35.5815 77.479 37.8015 77.479 39.1215 78.859C40.5015 80.239 40.5015 82.459 39.1215 83.779L34.5615 88.339C33.1815 89.719 30.9615 89.719 29.6415 88.339C28.9888 87.6867 28.6219 86.8018 28.6215 85.879V85.939ZM37.8015 95.119C37.8015 94.159 38.1615 93.319 38.8215 92.659L48.0015 83.479C48.6564 82.8312 49.5404 82.4679 50.4615 82.4679C51.3827 82.4679 52.2667 82.8312 52.9215 83.479C53.5693 84.1339 53.9327 85.0179 53.9327 85.939C53.9327 86.8602 53.5693 87.7442 52.9215 88.399L43.7415 97.579C42.4215 98.899 40.1415 98.899 38.8215 97.579C38.1688 96.9267 37.8019 96.0418 37.8015 95.119ZM46.9815 104.299C46.9815 103.339 47.3415 102.499 48.0015 101.839L57.1815 92.659C57.8364 92.0112 58.7204 91.6479 59.6415 91.6479C60.5627 91.6479 61.4467 92.0112 62.1015 92.659C62.7493 93.3139 63.1127 94.1979 63.1127 95.119C63.1127 96.0402 62.7493 96.9242 62.1015 97.579L57.5415 102.139L52.9815 106.699C51.6615 108.019 49.3815 108.019 48.0615 106.699C47.4088 106.047 47.0419 105.162 47.0415 104.239L46.9815 104.299ZM57.1815 115.939C56.5337 115.284 56.1704 114.4 56.1704 113.479C56.1704 112.558 56.5337 111.674 57.1815 111.019L61.7415 106.459C62.3964 105.811 63.2804 105.448 64.2015 105.448C65.1227 105.448 66.0067 105.811 66.6615 106.459C67.3093 107.114 67.6727 107.998 67.6727 108.919C67.6727 109.84 67.3093 110.724 66.6615 111.379L62.1015 115.939C60.7815 117.259 58.5015 117.259 57.1815 115.939ZM112.562 93.019C111.242 94.339 108.962 94.339 107.642 93.019L98.4615 83.839C97.2615 82.639 95.4015 82.639 94.2015 83.839C93.0015 85.039 93.0015 86.899 94.2015 88.099L103.382 97.279C104.029 97.9339 104.393 98.8179 104.393 99.739C104.393 100.66 104.029 101.544 103.382 102.199C102.062 103.519 99.7815 103.519 98.4615 102.199L89.2815 93.019C88.0815 91.819 86.2215 91.819 85.0215 93.019C83.8215 94.219 83.8215 96.079 85.0215 97.279L94.2015 106.459C94.8493 107.114 95.2127 107.998 95.2127 108.919C95.2127 109.84 94.8493 110.724 94.2015 111.379C92.8815 112.699 90.6015 112.699 89.2815 111.379L80.1015 102.199C78.9015 100.999 77.0415 100.999 75.8415 102.199C74.6415 103.399 74.6415 105.259 75.8415 106.459L80.4015 111.019C81.0493 111.674 81.4127 112.558 81.4127 113.479C81.4127 114.4 81.0493 115.284 80.4015 115.939C79.0815 117.259 76.8015 117.259 75.4815 115.939L72.6615 113.119C73.5568 111.347 73.8706 109.338 73.5582 107.378C73.2458 105.417 72.3232 103.605 70.9215 102.199C69.9949 101.287 68.8926 100.572 67.6815 100.099C68.5815 98.599 69.1215 96.919 69.1215 95.179C69.1215 92.659 68.1615 90.259 66.3615 88.459C64.6215 86.719 62.2815 85.879 59.9415 85.819C59.9415 83.359 58.9215 81.019 57.1815 79.279C54.1215 76.219 49.2015 75.919 45.6015 78.079C45.1215 76.819 44.4615 75.679 43.4415 74.659C41.6546 72.8857 39.2391 71.8905 36.7215 71.8905C34.204 71.8905 31.7885 72.8857 30.0015 74.659L26.8215 77.839L21.3615 75.619L33.3015 45.919L37.9215 46.999C42.6615 48.139 47.5815 48.019 52.2615 46.759L57.5415 45.319C60.6615 44.659 63.8415 44.899 66.8415 45.739L59.8215 49.339C55.9215 51.319 53.5815 55.399 53.9415 59.719C54.0615 62.359 55.2015 64.819 57.0615 66.679C58.2615 67.939 59.9415 68.839 61.9215 69.499L62.7615 69.739C65.2215 70.459 67.8015 70.219 70.1415 69.199L75.0615 66.979C77.9415 65.719 81.0015 64.879 84.1815 64.639C87.3015 64.399 90.3615 65.659 92.8815 68.119L112.742 87.979C113.402 88.639 113.762 89.479 113.762 90.439C113.762 91.399 113.402 92.239 112.742 92.899L112.562 93.019ZM115.202 82.279L96.9015 63.979C93.1815 60.259 88.3215 58.339 83.4615 58.759C79.6815 59.119 75.9615 60.079 72.4815 61.579L67.5015 63.799C66.4815 64.279 65.2815 64.339 64.1415 64.039L63.4215 63.859C62.5784 63.6111 61.8001 63.1809 61.1415 62.599C60.3054 61.7697 59.8126 60.6556 59.7615 59.479C59.6415 57.499 60.6615 55.699 62.4015 54.799L77.5815 47.059C80.8815 45.379 84.7215 44.899 88.3815 45.799L94.5015 47.299C98.9415 48.439 103.802 48.019 108.002 46.159L110.162 45.259L123.062 77.959L115.202 82.279Z" fill="#B0CB1F"/>
</svg>
