<svg width="36" height="37" viewBox="0 0 36 37" fill="none" xmlns="http://www.w3.org/2000/svg">
<path d="M10.9342 7.837C15.6362 7.42827 20.3647 7.42827 25.0667 7.837L27.3321 8.03392C28.8401 8.16501 30.1317 9.06452 30.8009 10.3512C30.8866 10.5158 30.8224 10.7151 30.6646 10.8127L21.2657 16.6311C19.2499 17.879 16.7081 17.9052 14.667 16.6991L5.20529 11.1081C5.05243 11.0177 4.98226 10.8318 5.05115 10.6681C5.66339 9.2138 7.03983 8.17553 8.66888 8.03392L10.9342 7.837Z" fill="#B0CB1F"/>
<path d="M5.04345 13.6259C4.80951 13.4877 4.511 13.6364 4.48373 13.9068C4.10313 17.6802 4.19525 21.4894 4.76008 25.2456C5.05785 27.2257 6.67397 28.7438 8.66888 28.9172L10.9342 29.1141C15.6362 29.5229 20.3648 29.5229 25.0667 29.1141L27.3321 28.9172C29.327 28.7438 30.9431 27.2257 31.2409 25.2456C31.8222 21.38 31.9028 17.4582 31.4827 13.577C31.4533 13.3047 31.1497 13.1587 30.9168 13.3028L22.45 18.5442C19.7227 20.2325 16.2839 20.268 13.5224 18.6362L5.04345 13.6259Z" fill="#B0CB1F"/>
</svg>
