<svg width="162" height="131" viewBox="0 0 162 131" fill="none" xmlns="http://www.w3.org/2000/svg">
<path d="M27.54 16.736C31.752 17.276 32.724 17.384 35.208 17.384C38.232 17.384 40.284 17.168 44.064 16.736C43.632 24.08 43.524 26.672 43.524 30.128V59.72C47.088 59.612 50.004 59.396 52.272 58.964C51.84 61.448 51.732 63.932 51.732 66.524C51.732 69.008 51.84 70.952 52.272 73.436C49.356 73.22 46.116 73.112 43.524 73.004C43.524 83.588 43.74 85.964 44.388 90.5C41.472 90.176 38.34 89.744 35.208 89.744C32.616 89.744 28.08 90.068 26.028 90.5C26.568 87.044 26.784 76.46 26.784 73.004C25.812 72.896 24.84 72.896 23.868 72.896C12.744 72.896 5.94 73.436 0.432 73.868C0.864 71.708 0.972 69.224 0.972 66.956C0.972 65.768 0.864 64.58 0.432 60.26L11.772 43.196C16.848 35.528 23.22 25.268 27.54 16.736ZM26.784 59.72V35.852C26.784 34.556 26.676 33.152 26.568 31.964C22.68 37.688 13.5 51.836 8.748 59.504C9.936 59.504 16.2 59.828 20.304 59.828C22.464 59.828 24.624 59.72 26.784 59.72ZM81.216 16.088C93.528 16.088 105.732 22.892 105.732 51.08C105.732 65.12 103.572 74.948 99.792 81.104C94.608 89.528 86.94 91.904 80.568 91.904C68.256 91.904 56.268 83.264 56.268 55.616C56.268 27.428 66.204 16.088 81.216 16.088ZM80.676 22.352C75.816 22.352 74.196 28.4 74.196 40.928V70.736C74.196 81.428 75.708 85.64 80.568 85.64C85.32 85.64 87.588 81.428 87.588 70.736V40.928C87.588 28.4 86.94 22.352 80.676 22.352ZM135.54 16.736C139.752 17.276 140.724 17.384 143.208 17.384C146.232 17.384 148.284 17.168 152.064 16.736C151.632 24.08 151.524 26.672 151.524 30.128V59.72C155.088 59.612 158.004 59.396 160.272 58.964C159.84 61.448 159.732 63.932 159.732 66.524C159.732 69.008 159.84 70.952 160.272 73.436C157.356 73.22 154.116 73.112 151.524 73.004C151.524 83.588 151.74 85.964 152.388 90.5C149.472 90.176 146.34 89.744 143.208 89.744C140.616 89.744 136.08 90.068 134.028 90.5C134.568 87.044 134.784 76.46 134.784 73.004C133.812 72.896 132.84 72.896 131.868 72.896C120.744 72.896 113.94 73.436 108.432 73.868C108.864 71.708 108.972 69.224 108.972 66.956C108.972 65.768 108.864 64.58 108.432 60.26L119.772 43.196C124.848 35.528 131.22 25.268 135.54 16.736ZM134.784 59.72V35.852C134.784 34.556 134.676 33.152 134.568 31.964C130.68 37.688 121.5 51.836 116.748 59.504C117.936 59.504 124.2 59.828 128.304 59.828C130.464 59.828 132.624 59.72 134.784 59.72Z" fill="#B0CB1F"/>
</svg>
