<svg width="41" height="48" viewBox="0 0 41 48" fill="none" xmlns="http://www.w3.org/2000/svg">
<path d="M36.6487 2.98798C37.3077 2.32897 37.3077 1.26051 36.6487 0.601496C35.9896 -0.0575137 34.9212 -0.0575136 34.2622 0.601496L32.6712 2.19249C31.5565 3.30721 31.6134 5.03941 32.586 6.12463C39.1166 13.4118 38.8797 24.6218 31.8757 31.6258C28.2531 35.2484 23.5054 37.0607 18.7573 37.0627L18.75 37.0626L18.7432 37.0627C14.3158 37.0611 9.88894 35.4856 6.37451 32.3361C5.28929 31.3635 3.55709 31.3066 2.44236 32.4213L0.851374 34.0123C0.192364 34.6713 0.192364 35.7398 0.851374 36.3988C1.51038 37.0578 2.57885 37.0578 3.23786 36.3988L4.47637 35.1603C8.12088 38.2891 12.5484 40.0267 17.0625 40.373V43.8126H13.125C12.193 43.8126 11.4375 44.5682 11.4375 45.5001C11.4375 46.4321 12.193 47.1876 13.125 47.1876H24.375C25.307 47.1876 26.0625 46.4321 26.0625 45.5001C26.0625 44.5682 25.307 43.8126 24.375 43.8126H20.4375V40.3731C25.4768 39.9867 30.408 37.8665 34.2622 34.0123C42.4278 25.8466 42.8104 12.8464 35.4101 4.22649L36.6487 2.98798Z" fill="#B0CB1F"/>
<path fill-rule="evenodd" clip-rule="evenodd" d="M4.12502 18.5001C4.12502 10.423 10.6729 3.87514 18.75 3.87514C26.8272 3.87514 33.375 10.423 33.375 18.5001C33.375 26.5773 26.8272 33.1251 18.75 33.1251C10.6729 33.1251 4.12502 26.5773 4.12502 18.5001ZM23.25 10.0626C19.8328 10.0626 17.0625 12.8329 17.0625 16.2501C17.0625 19.6674 19.8328 22.4376 23.25 22.4376C26.6673 22.4376 29.4375 19.6674 29.4375 16.2501C29.4375 12.8329 26.6673 10.0626 23.25 10.0626ZM8.06252 24.1251C8.06252 22.5718 9.32171 21.3126 10.875 21.3126C12.4283 21.3126 13.6875 22.5718 13.6875 24.1251C13.6875 25.6784 12.4283 26.9376 10.875 26.9376C9.32171 26.9376 8.06252 25.6784 8.06252 24.1251Z" fill="#B0CB1F"/>
</svg>
