<svg width="55" height="55" viewBox="0 0 55 55" fill="none" xmlns="http://www.w3.org/2000/svg">
<path d="M19.4 12.2883C13.1431 12.2883 7.8125 16.9668 7.8125 23.0429C7.8125 27.2345 9.77528 30.7635 12.3766 33.6868C14.969 36.6 18.3136 39.0454 21.3372 41.092L26.5541 44.6233C27.1254 45.01 27.8746 45.01 28.4459 44.6233L33.6628 41.092C36.6864 39.0454 40.031 36.6 42.6234 33.6868C45.2247 30.7635 47.1875 27.2345 47.1875 23.0429C47.1875 16.9668 41.8569 12.2883 35.6 12.2883C32.3747 12.2883 29.5366 13.8006 27.5 15.7575C25.4634 13.8006 22.6253 12.2883 19.4 12.2883Z" fill="#B0CB1F"/>
</svg>
