<?xml version="1.0" encoding="iso-8859-1"?>
<svg width="38" height="37" viewBox="0 0 38 37" fill="none" xmlns="http://www.w3.org/2000/svg">
  <rect x="0.951782" width="36.4759" height="36.4759" rx="6.38328" fill="white" fill-opacity="0.5"/>
  <path fill-rule="evenodd" clip-rule="evenodd" 
    d="M27.172,7.83H10.829C8.713,7.83,7,9.543,7,11.659v13.682c0,2.116,1.713,3.829,3.829,3.829h16.343c2.116,0,3.829-1.713,3.829-3.829V11.659C31,9.543,29.287,7.83,27.172,7.83zM19,24.156c-2.847,0-5.156-2.309-5.156-5.156c0-2.847,2.309-5.156,5.156-5.156s5.156,2.309,5.156,5.156C24.156,21.847,21.847,24.156,19,24.156z M25.172,14.086c-0.829,0-1.5-0.671-1.5-1.5c0-0.829,0.671-1.5,1.5-1.5c0.829,0,1.5,0.671,1.5,1.5C26.672,13.415,26.001,14.086,25.172,14.086z"
    fill="#000000"
  />
</svg>
