<svg width="96" height="97" viewBox="0 0 96 97" fill="none" xmlns="http://www.w3.org/2000/svg">
<g clip-path="url(#clip0_720_248)">
<path d="M91.6404 28.2879L50.8004 7.16391C49.9248 6.71177 48.9537 6.47583 47.9684 6.47583C46.983 6.47583 46.0119 6.71177 45.1364 7.16391L4.30436 28.2879C3.90213 28.4946 3.56466 28.8082 3.32904 29.1942C3.09341 29.5802 2.96875 30.0237 2.96875 30.4759C2.96875 30.9281 3.09341 31.3716 3.32904 31.7576C3.56466 32.1436 3.90213 32.4572 4.30436 32.6639L45.1404 53.7879C46.0159 54.2401 46.987 54.476 47.9724 54.476C48.9578 54.476 49.9288 54.2401 50.8044 53.7879L91.6404 32.6639C92.0414 32.4562 92.3777 32.1423 92.6124 31.7564C92.8471 31.3705 92.9712 30.9276 92.9712 30.4759C92.9712 30.0243 92.8471 29.5813 92.6124 29.1954C92.3777 28.8096 92.0414 28.4956 91.6404 28.2879Z" stroke="#B0CB1F" stroke-width="6" stroke-linecap="round" stroke-linejoin="round"/>
<path d="M3.03125 51.4758L45.1392 71.7878C46.0148 72.24 46.9859 72.4759 47.9712 72.4759C48.9566 72.4759 49.9277 72.24 50.8032 71.7878L93.0312 51.4758" stroke="#B0CB1F" stroke-width="6" stroke-linecap="round" stroke-linejoin="round"/>
<path d="M3.03125 69.4758L45.1392 89.7878C46.0148 90.24 46.9859 90.4759 47.9712 90.4759C48.9566 90.4759 49.9277 90.24 50.8032 89.7878L93.0312 69.4758" stroke="#B0CB1F" stroke-width="6" stroke-linecap="round" stroke-linejoin="round"/>
</g>
<defs>
<clipPath id="clip0_720_248">
<rect width="96" height="96" fill="white" transform="translate(0 0.47583)"/>
</clipPath>
</defs>
</svg>
