<svg width="37" height="37" viewBox="0 0 37 37" fill="none" xmlns="http://www.w3.org/2000/svg">
<rect x="0.427734" width="36.4759" height="36.4759" rx="6.38328" fill="white" fill-opacity="0.5"/>
<path d="M25.9609 18.9169V23.9466H23.0167V19.2236C23.0167 18.0581 22.5873 17.2607 21.5446 17.2607C20.7472 17.2607 20.2565 17.8128 20.0724 18.3035C20.0111 18.4875 19.9498 18.7328 19.9498 19.0395V23.9466H17.0055C17.0055 23.9466 17.0669 15.9726 17.0055 15.1752H19.9498V16.402C20.3178 15.7886 21.0539 14.9299 22.5873 14.9299C24.4888 14.9299 25.9609 16.218 25.9609 18.9169ZM13.9386 10.9429C12.9572 10.9429 12.2825 11.6176 12.2825 12.4763C12.2825 13.3351 12.8959 14.0098 13.8773 14.0098C14.92 14.0098 15.5334 13.3351 15.5334 12.4763C15.5947 11.5563 14.9814 10.9429 13.9386 10.9429ZM12.4665 23.9466H15.4107V15.1752H12.4665V23.9466Z" fill="#5D2A42"/>
</svg>
