<svg width="36" height="37" viewBox="0 0 36 37" fill="none" xmlns="http://www.w3.org/2000/svg">
<path fill-rule="evenodd" clip-rule="evenodd" d="M5.65738 13.7919C6.17284 7.5385 11.3985 2.72583 17.6732 2.72583H18.3211C24.5957 2.72583 29.8214 7.5385 30.3368 13.7919C30.6144 17.1588 29.5744 20.502 27.4359 23.1173L20.2463 31.91C19.0838 33.3317 16.9104 33.3317 15.748 31.91L8.55836 23.1173C6.41987 20.502 5.37986 17.1588 5.65738 13.7919ZM17.9971 8.35083C14.062 8.35083 10.8721 11.5408 10.8721 15.4758C10.8721 19.4109 14.062 22.6008 17.9971 22.6008C21.9321 22.6008 25.1221 19.4109 25.1221 15.4758C25.1221 11.5408 21.9321 8.35083 17.9971 8.35083Z" fill="#B0CB1F"/>
</svg>
