<svg width="28" height="23" viewBox="0 0 28 23" fill="none" xmlns="http://www.w3.org/2000/svg">
    <path d="M6.93374 0.599518C11.6357 0.190786 16.3643 0.190785 21.0662 0.599518L23.3316 0.796441C24.8396 0.927533 26.1312 1.82704 26.8004 3.1137C26.8861 3.27831 26.8219 3.4776 26.6641 3.57526L17.2652 9.39365C15.2494 10.6415 12.7076 10.6677 10.6665 9.46162L1.20481 3.87059C1.05194 3.78026 0.981774 3.59432 1.05067 3.43067C1.6629 1.97632 3.03935 0.938051 4.66839 0.796441L6.93374 0.599518Z" fill="white" fill-opacity="0.5"/>
    <path d="M1.04297 6.38842C0.80902 6.25018 0.510516 6.39894 0.483246 6.66931C0.102643 10.4428 0.194759 14.2519 0.759595 18.0081C1.05737 19.9883 2.67348 21.5063 4.6684 21.6797L6.93374 21.8767C11.6357 22.2854 16.3643 22.2854 21.0662 21.8767L23.3316 21.6797C25.3265 21.5063 26.9426 19.9883 27.2404 18.0081C27.8217 14.1425 27.9023 10.2207 27.4822 6.33951C27.4528 6.06724 27.1492 5.92121 26.9163 6.06536L18.4495 11.3067C15.7222 12.995 12.2834 13.0305 9.5219 11.3987L1.04297 6.38842Z" fill="white" fill-opacity="0.5"/>
    </svg>
    