<?xml version="1.0" encoding="UTF-8" standalone="no" ?>
<!DOCTYPE svg PUBLIC "-//W3C//DTD SVG 1.1//EN" "http://www.w3.org/Graphics/SVG/1.1/DTD/svg11.dtd">
<svg xmlns="http://www.w3.org/2000/svg" xmlns:xlink="http://www.w3.org/1999/xlink" version="1.1" width="1080" height="1080" viewBox="0 0 1080 1080" xml:space="preserve">
<desc>Created with Fabric.js 5.2.4</desc>
<defs>
</defs>
<rect x="0" y="0" width="100%" height="100%" fill="transparent"></rect>
<g transform="matrix(1 0 0 1 540 540)" id="f87b785d-4e41-4941-b285-d0e4dfbc0a3a"  >
<rect style="stroke: none; stroke-width: 1; stroke-dasharray: none; stroke-linecap: butt; stroke-dashoffset: 0; stroke-linejoin: miter; stroke-miterlimit: 4; fill: rgb(255,255,255); fill-rule: nonzero; opacity: 1; visibility: hidden;" vector-effect="non-scaling-stroke"  x="-540" y="-540" rx="0" ry="0" width="1080" height="1080" />
</g>
<g transform="matrix(1 0 0 1 540 540)" id="b8bb6eaa-506b-417d-8a37-d3409bb0cef8"  >
</g>
<g transform="matrix(1 0 0 1 540 540)"  >
<g style="" vector-effect="non-scaling-stroke"   >
		<g transform="matrix(1 0 0 1 -81.64 5.65)"  >
<path style="stroke: none; stroke-width: 0; stroke-dasharray: none; stroke-linecap: butt; stroke-dashoffset: 0; stroke-linejoin: miter; stroke-miterlimit: 4; fill: rgb(166,206,57); fill-rule: evenodd; opacity: 1;" vector-effect="non-scaling-stroke"  transform=" translate(-31.19, -59.21)" d="M 0.09 56.72 C 1.4400000000000002 38.89 16.93 25.47 34.56 26.84 C 47.6 27.85 58.260000000000005 36.68 62.38 48.42 C 58.36 41.95 51.31 37.38 43 36.760000000000005 C 29.35 35.74 17.37 45.75000000000001 16.32 59.040000000000006 C 15.27 72.33000000000001 25.55 84 39.2 85.01 C 46.13 85.53 52.64 83.2 57.5 79.04 C 51.1 87.38000000000001 40.81 92.44000000000001 29.66 91.57000000000001 C 12.02 90.2 -1.26 74.54 0.09 56.72" stroke-linecap="round" />
</g>
		<g transform="matrix(1 0 0 1 54.17 41.35)"  >
<path style="stroke: none; stroke-width: 0; stroke-dasharray: none; stroke-linecap: butt; stroke-dashoffset: 0; stroke-linejoin: miter; stroke-miterlimit: 4; fill: rgb(166,206,57); fill-rule: nonzero; opacity: 1;" vector-effect="non-scaling-stroke"  transform=" translate(-167, -94.9)" d="M 215.28 102.27 C 215.62 103.03999999999999 216.15 103.64999999999999 216.87 104.07 C 217.58 104.5 218.42000000000002 104.72 219.35 104.72 C 220.16 104.72 220.79999999999998 104.58 221.26999999999998 104.3 C 221.80999999999997 103.92 222.07999999999998 103.49 222.07999999999998 103.00999999999999 C 222.07999999999998 102.69999999999999 221.95 102.41999999999999 221.7 102.16999999999999 C 221.42999999999998 101.91999999999999 221.11999999999998 101.68999999999998 220.75 101.50999999999999 C 220.38 101.32 219.95 101.13999999999999 219.48 100.96999999999998 C 219 100.78999999999998 218.63 100.65999999999998 218.35999999999999 100.55999999999999 C 218.08999999999997 100.44999999999999 217.88 100.36999999999999 217.70999999999998 100.28999999999999 C 217.54999999999998 100.22 217.37999999999997 100.14999999999999 217.20999999999998 100.08 C 217.04999999999998 100 216.82999999999998 99.92 216.54999999999998 99.81 C 215.73 99.51 215.07 99.01 214.57999999999998 98.29 C 214.1 97.58000000000001 213.85999999999999 96.84 213.85999999999999 96.06 C 213.85999999999999 95.14 214.11999999999998 94.32000000000001 214.64 93.59 C 215.16 92.86 215.92 92.31 216.92999999999998 91.96000000000001 C 218.12999999999997 91.55000000000001 219.14999999999998 91.35000000000001 220.01 91.35000000000001 C 222.01 91.35000000000001 223.73 91.81 225.17 92.74000000000001 C 224.86999999999998 93.54 224.57999999999998 94.42000000000002 224.33999999999997 95.38000000000001 L 223.29999999999998 95.38000000000001 C 223.16 94.72000000000001 222.76999999999998 94.14000000000001 222.10999999999999 93.64000000000001 C 221.45999999999998 93.14000000000001 220.73999999999998 92.89000000000001 219.95999999999998 92.89000000000001 C 219.17999999999998 92.89000000000001 218.58999999999997 93.03000000000002 218.08999999999997 93.31000000000002 C 217.57999999999998 93.60000000000002 217.32999999999998 94.02000000000001 217.32999999999998 94.60000000000002 C 217.32999999999998 94.89000000000003 217.42 95.15000000000002 217.60999999999999 95.36000000000003 C 217.79999999999998 95.58000000000003 218.04 95.76000000000003 218.32 95.91000000000003 C 218.6 96.06000000000003 218.91 96.20000000000003 219.26 96.33000000000003 C 219.60999999999999 96.47000000000003 219.95999999999998 96.60000000000002 220.32999999999998 96.72000000000003 C 222.2 97.34000000000003 223.54999999999998 97.95000000000003 224.39999999999998 98.55000000000003 C 225.23999999999998 99.17000000000003 225.65999999999997 100.18000000000002 225.65999999999997 101.57000000000002 C 225.65999999999997 103.22000000000003 224.83999999999997 104.48000000000002 223.17999999999998 105.36000000000003 C 222.01999999999998 106.01000000000003 220.55999999999997 106.33000000000003 218.79999999999998 106.33000000000003 C 217.04 106.33000000000003 215.35 105.91000000000003 213.85999999999999 105.08000000000003 C 214.04999999999998 104.25000000000003 214.23 103.31000000000003 214.41 102.26000000000003 L 215.28 102.26000000000003 Z M 209.08 86.54 C 208.83 89.35000000000001 208.71 91.12 208.71 91.86000000000001 L 211.88 91.86000000000001 L 211.88 93.39000000000001 L 208.71 93.39000000000001 C 208.56 96.13000000000001 208.48000000000002 98.31000000000002 208.48000000000002 99.95000000000002 C 208.48000000000002 100.41000000000001 208.52 101.14000000000001 208.59000000000003 102.13000000000002 C 208.67000000000004 103.08000000000003 208.83000000000004 103.76000000000002 209.06000000000003 104.16000000000003 C 209.30000000000004 104.56000000000003 209.78000000000003 104.77000000000002 210.52000000000004 104.77000000000002 C 210.82000000000005 104.77000000000002 211.22000000000003 104.72000000000003 211.73000000000005 104.63000000000002 C 211.78000000000006 104.61000000000003 211.84000000000006 104.60000000000002 211.91000000000005 104.58000000000003 C 211.97000000000006 104.56000000000003 212.06000000000006 104.53000000000003 212.17000000000004 104.50000000000003 L 212.17000000000004 105.65000000000003 C 212.00000000000006 105.72000000000003 211.90000000000003 105.77000000000004 211.89000000000004 105.79000000000003 C 210.50000000000006 106.17000000000003 209.35000000000005 106.35000000000004 208.43000000000004 106.35000000000004 C 206.70000000000005 106.35000000000004 205.49000000000004 105.94000000000004 204.78000000000003 105.12000000000003 C 204.08000000000004 104.30000000000004 203.72000000000003 103.13000000000004 203.72000000000003 101.64000000000003 C 203.72000000000003 100.62000000000003 203.79000000000002 99.03000000000003 203.93000000000004 96.88000000000002 C 203.93000000000004 96.49000000000002 203.93000000000004 95.91000000000003 203.96000000000004 95.14000000000003 C 203.98000000000005 94.37000000000003 203.99000000000004 93.80000000000003 203.99000000000004 93.41000000000003 L 201.48000000000005 93.41000000000003 L 201.48000000000005 91.88000000000002 L 203.99000000000004 91.88000000000002 C 203.99000000000004 91.47000000000003 203.97000000000003 90.88000000000002 203.93000000000004 90.08000000000003 C 203.88000000000002 89.29000000000002 203.86000000000004 88.69000000000003 203.84000000000003 88.27000000000002 C 205.06000000000003 87.87000000000002 206.69000000000003 87.25000000000003 208.72000000000003 86.42000000000003 L 209.09000000000003 86.55000000000003 Z M 196.04 83.77 C 196.82 83.77 197.48999999999998 84 198.04999999999998 84.46 C 198.60999999999999 84.91 198.89 85.47999999999999 198.89 86.11999999999999 C 198.89 86.75999999999999 198.60999999999999 87.32 198.04 87.78999999999999 C 197.47 88.24999999999999 196.81 88.47999999999999 196.04 88.47999999999999 C 195.26999999999998 88.47999999999999 194.64 88.24 194.1 87.75999999999999 C 193.57 87.27999999999999 193.29999999999998 86.74 193.29999999999998 86.10999999999999 C 193.29999999999998 85.47999999999998 193.57 84.92999999999998 194.1 84.45999999999998 C 194.63 83.98999999999998 195.28 83.74999999999999 196.04 83.74999999999999 Z M 193.35 104.07 C 193.37 103.75 193.39 103.27 193.4 102.63999999999999 C 193.42000000000002 102.00999999999999 193.44 101.52999999999999 193.45000000000002 101.20999999999998 C 193.53000000000003 98.91999999999997 193.57000000000002 97.39999999999998 193.57000000000002 96.62999999999998 C 193.57000000000002 95.85999999999999 193.55 95.01999999999998 193.51000000000002 94.00999999999998 C 193.46 92.99999999999997 193.42000000000002 92.21999999999997 193.4 91.67999999999998 L 193.68 91.67999999999998 C 194.26000000000002 91.73999999999998 195.12 91.76999999999998 196.25 91.76999999999998 C 196.83 91.76999999999998 197.67 91.73999999999998 198.77 91.67999999999998 L 198.55 95.55999999999997 C 198.44 96.81999999999998 198.39000000000001 98.76999999999997 198.39000000000001 101.38999999999997 C 198.39000000000001 103.18999999999997 198.48000000000002 104.74999999999997 198.66000000000003 106.05999999999997 C 198.39000000000001 106.03999999999998 197.93000000000004 106.01999999999997 197.26000000000002 105.97999999999998 C 196.60000000000002 105.93999999999997 196.10000000000002 105.91999999999997 195.76000000000002 105.91999999999997 C 195.48000000000002 105.91999999999997 195.05 105.93999999999997 194.49 105.97999999999998 C 193.92000000000002 106.01999999999998 193.51000000000002 106.03999999999998 193.25 106.05999999999997 L 193.35 104.06999999999998 Z M 181.16 105.04 C 181.56 105.04 181.96 104.94000000000001 182.37 104.75 C 182.77 104.56 183.08 104.31 183.3 104.03 C 183.59 103.67 183.86 103.16 184.08 102.51 C 184.4 101.43 184.56 100.21000000000001 184.56 98.85000000000001 C 184.56 97.32000000000001 184.37 96.00000000000001 183.99 94.88000000000001 C 183.61 93.76 182.74 93.21000000000001 181.38 93.21000000000001 C 179.14 93.21000000000001 178.01999999999998 95.12 178.01999999999998 98.94000000000001 C 178.01999999999998 100.57000000000001 178.2 102.00000000000001 178.57 103.22000000000001 C 178.94 104.44000000000001 179.79999999999998 105.05000000000001 181.15 105.05000000000001 Z M 173.03 106.11 C 173.12 104.69 173.19 102.95 173.26 100.89 L 173.26 94.65 C 173.26 94.02000000000001 173.26 93.09 173.29 91.84 C 173.31 90.60000000000001 173.32 89.67 173.32 89.05 C 173.32 86.92 173.25 85.02 173.09 83.36 C 174.20000000000002 83.48 175.05 83.54 175.62 83.54 C 176.25 83.54 177.15 83.48 178.31 83.36 L 178.26 85.26 C 178.26 85.47 178.26 85.75 178.23 86.13000000000001 C 178.20999999999998 86.51 178.2 86.78000000000002 178.2 86.97000000000001 C 178.16 87.83000000000001 178.14999999999998 89.11000000000001 178.14999999999998 90.81000000000002 C 178.14999999999998 91.13000000000001 178.12999999999997 91.62000000000002 178.09999999999997 92.27000000000001 C 178.05999999999997 92.92000000000002 178.04999999999995 93.4 178.04999999999995 93.73 C 178.52999999999994 92.97 179.17999999999995 92.38000000000001 180.02999999999994 91.94 C 180.87999999999994 91.5 181.79999999999995 91.28 182.80999999999995 91.28 C 184.29999999999995 91.28 185.57999999999996 91.62 186.63999999999996 92.3 C 187.69999999999996 92.98 188.50999999999996 93.86 189.03999999999996 94.94 C 189.57999999999996 96.02 189.83999999999997 97.17 189.83999999999997 98.39999999999999 C 189.83999999999997 100.88 189.15999999999997 102.78999999999999 187.79999999999998 104.13 C 186.24999999999997 105.67 184.23 106.44 181.77999999999997 106.44 C 180.80999999999997 106.44 179.89 106.25999999999999 178.98999999999998 105.89999999999999 C 178.08999999999997 105.55 177.39999999999998 105.02999999999999 176.89 104.35 C 176.1 104.75999999999999 175.07999999999998 105.33999999999999 173.82 106.11 L 173.04 106.11 Z M 166.3 83.77 C 167.08 83.77 167.75 84 168.31 84.46 C 168.87 84.91 169.15 85.47999999999999 169.15 86.11999999999999 C 169.15 86.75999999999999 168.87 87.32 168.3 87.78999999999999 C 167.73000000000002 88.24999999999999 167.07000000000002 88.47999999999999 166.3 88.47999999999999 C 165.53 88.47999999999999 164.9 88.24 164.36 87.75999999999999 C 163.83 87.27999999999999 163.56 86.74 163.56 86.10999999999999 C 163.56 85.47999999999998 163.83 84.92999999999998 164.36 84.45999999999998 C 164.89000000000001 83.98999999999998 165.54000000000002 83.74999999999999 166.3 83.74999999999999 Z M 163.61 104.07 C 163.63000000000002 103.75 163.65 103.27 163.66000000000003 102.63999999999999 C 163.68000000000004 102.00999999999999 163.70000000000002 101.52999999999999 163.71000000000004 101.20999999999998 C 163.79000000000005 98.91999999999997 163.83000000000004 97.39999999999998 163.83000000000004 96.62999999999998 C 163.83000000000004 95.85999999999999 163.81000000000003 95.01999999999998 163.77000000000004 94.00999999999998 C 163.72000000000003 92.99999999999997 163.68000000000004 92.21999999999997 163.66000000000003 91.67999999999998 L 163.94000000000003 91.67999999999998 C 164.52000000000004 91.73999999999998 165.38000000000002 91.76999999999998 166.51000000000002 91.76999999999998 C 167.09000000000003 91.76999999999998 167.93 91.73999999999998 169.03000000000003 91.67999999999998 L 168.81000000000003 95.55999999999997 C 168.70000000000002 96.81999999999998 168.65000000000003 98.76999999999997 168.65000000000003 101.38999999999997 C 168.65000000000003 103.18999999999997 168.74000000000004 104.74999999999997 168.92000000000004 106.05999999999997 C 168.65000000000003 106.03999999999998 168.19000000000005 106.01999999999997 167.52000000000004 105.97999999999998 C 166.86000000000004 105.93999999999997 166.36000000000004 105.91999999999997 166.02000000000004 105.91999999999997 C 165.74000000000004 105.91999999999997 165.31000000000003 105.93999999999997 164.75000000000003 105.97999999999998 C 164.18000000000004 106.01999999999998 163.77000000000004 106.03999999999998 163.51000000000002 106.05999999999997 L 163.61 104.06999999999998 Z M 148.35 90.48 L 148.29999999999998 93.71000000000001 C 148.98999999999998 93.09 149.82 92.53 150.79999999999998 92.06 C 151.76999999999998 91.59 152.68999999999997 91.36 153.57 91.36 C 155.23999999999998 91.36 156.64 91.82 157.75 92.75 C 158.73 93.56 159.22 94.83 159.22 96.59 L 159.22 106.07000000000001 C 158.94 106.05000000000001 158.5 106.03 157.9 105.99000000000001 C 157.31 105.95 156.88 105.93 156.58 105.93 C 156.28000000000003 105.93 155.85000000000002 105.95 155.25 105.99000000000001 C 154.65 106.03000000000002 154.22 106.05000000000001 153.94 106.07000000000001 C 153.96 105.88000000000001 153.99 105.55000000000001 154.04 105.11000000000001 C 154.09 104.67000000000002 154.1 104.34000000000002 154.1 104.13000000000001 L 154.21 101.4 C 154.29000000000002 100.81 154.33 99.92 154.33 98.72 C 154.33 97.52 154.24 96.53 154.05 95.71 C 153.89000000000001 95.19 153.55 94.75 153.05 94.41999999999999 C 152.56 94.07999999999998 151.99 93.90999999999998 151.36 93.90999999999998 C 150.03 93.90999999999998 149.19000000000003 94.38999999999999 148.83 95.33999999999999 C 148.47 96.28999999999999 148.29000000000002 97.60999999999999 148.29000000000002 99.32 C 148.29000000000002 99.82 148.29000000000002 100.50999999999999 148.32000000000002 101.38999999999999 C 148.34000000000003 102.25999999999999 148.37000000000003 103.13999999999999 148.40000000000003 104.00999999999999 C 148.43000000000004 104.88 148.45000000000005 105.57 148.45000000000005 106.07999999999998 C 148.16000000000005 106.05999999999999 147.74000000000004 106.03999999999998 147.16000000000005 105.99999999999999 C 146.58000000000004 105.95999999999998 146.16000000000005 105.93999999999998 145.87000000000006 105.93999999999998 C 145.60000000000005 105.93999999999998 145.18000000000006 105.95999999999998 144.61000000000007 105.99999999999999 C 144.05000000000007 106.03999999999999 143.61000000000007 106.05999999999999 143.28000000000006 106.07999999999998 C 143.35000000000005 105.21999999999998 143.39000000000007 104.57999999999998 143.39000000000007 104.13999999999999 L 143.56000000000006 96.69999999999999 C 143.56000000000006 96.30999999999999 143.56000000000006 95.71999999999998 143.59000000000006 94.94999999999999 C 143.61000000000007 94.16999999999999 143.62000000000006 93.57999999999998 143.62000000000006 93.17999999999999 C 143.62000000000006 89.86999999999999 143.51000000000005 86.6 143.28000000000006 83.38 C 144.07000000000005 83.5 144.97000000000006 83.56 145.98000000000005 83.56 C 147.19000000000005 83.56 148.08000000000004 83.5 148.68000000000004 83.38 L 148.34000000000003 90.5 Z M 124.65 105.84 C 125.89 104.48 127.74000000000001 102.37 130.20000000000002 99.5 C 128.17000000000002 96.53 126.32000000000002 93.99 124.65000000000002 91.88 L 124.65000000000002 91.69 C 125.98000000000002 91.75 126.95000000000002 91.78 127.56000000000002 91.78 C 128.84 91.78 129.81 91.73 130.47000000000003 91.64 C 131.92000000000002 93.94 132.95000000000002 95.52 133.54000000000002 96.36 C 134.93 94.69 136.16000000000003 93.13 137.23000000000002 91.69 C 137.4 91.69 137.55 91.71 137.67000000000002 91.74 C 138.8 91.74 139.66000000000003 91.72 140.25000000000003 91.69 L 140.25000000000003 91.88 C 138.24000000000004 93.91 136.36000000000004 95.89 134.64000000000001 97.83999999999999 L 136.62 100.65999999999998 C 137.11 101.38999999999999 137.78 102.33999999999999 138.63 103.50999999999998 C 139.49 104.67999999999998 140.09 105.53999999999998 140.45 106.06999999999998 C 140.13 106.04999999999998 139.64 106.02999999999997 138.98 105.98999999999998 C 138.31 105.94999999999997 137.82 105.92999999999998 137.48999999999998 105.92999999999998 C 137.18999999999997 105.92999999999998 136.70999999999998 105.94999999999997 136.07 105.98999999999998 C 135.42 106.02999999999999 134.95 106.04999999999998 134.63 106.06999999999998 L 131.28 100.97999999999998 C 129.09 103.84999999999998 127.81 105.54999999999998 127.44 106.06999999999998 C 127.28 106.04999999999998 127.03999999999999 106.02999999999997 126.74 105.98999999999998 C 126.42999999999999 105.94999999999997 126.21 105.92999999999998 126.05999999999999 105.92999999999998 C 125.89999999999999 105.92999999999998 125.65999999999998 105.94999999999997 125.35999999999999 105.98999999999998 C 125.04999999999998 106.02999999999999 124.81999999999998 106.04999999999998 124.64999999999999 106.06999999999998 L 124.64999999999999 105.84999999999998 Z M 108.43 85.48 C 109.07000000000001 85.5 109.98 85.53 111.15 85.58 C 112.32000000000001 85.63 113.29 85.66 114.07000000000001 85.66 C 115.28 85.66 116.7 85.64 118.36000000000001 85.6 C 120.01000000000002 85.55999999999999 121.27000000000001 85.53999999999999 122.15000000000002 85.52 C 122.11000000000001 86.00999999999999 122.10000000000002 86.75 122.10000000000002 87.74 C 122.14000000000003 87.83 122.15000000000002 87.96 122.15000000000002 88.11 C 118.67000000000002 87.86 115.96000000000002 87.74 114.02000000000002 87.74 C 113.98000000000002 88.44999999999999 113.97000000000003 89.5 113.97000000000003 90.89 C 113.97000000000003 91.26 113.97000000000003 91.81 113.94000000000003 92.55 C 113.92000000000003 93.28999999999999 113.91000000000003 93.84 113.91000000000003 94.21 L 122.03000000000003 93.99 C 121.88000000000002 94.61 121.81000000000003 95.07 121.81000000000003 95.38 C 121.81000000000003 95.64999999999999 121.88000000000002 96.03999999999999 122.03000000000003 96.53999999999999 C 119.66000000000003 96.38999999999999 117.54000000000003 96.30999999999999 115.67000000000003 96.30999999999999 C 115.49000000000002 96.30999999999999 115.20000000000003 96.30999999999999 114.81000000000003 96.28999999999999 C 114.42000000000003 96.27 114.12000000000003 96.27 113.91000000000003 96.27 L 113.91000000000003 103.89 C 116.10000000000002 103.89 118.86000000000003 103.76 122.15000000000002 103.49 C 122.11000000000001 103.97999999999999 122.10000000000002 104.72 122.10000000000002 105.69999999999999 C 122.14000000000003 105.78999999999999 122.15000000000002 105.91999999999999 122.15000000000002 106.07 C 121.44000000000003 106.05 120.37000000000002 106.02 118.93000000000002 105.97 C 117.50000000000001 105.92 116.43000000000002 105.89 115.72000000000003 105.89 C 115.24000000000002 105.89 114.54000000000002 105.89 113.59000000000003 105.93 C 112.65000000000003 105.96000000000001 111.95000000000003 105.98 111.51000000000003 105.98 C 110.85000000000004 105.98 109.79000000000003 106.01 108.33000000000003 106.07000000000001 C 108.36000000000003 105.89 108.38000000000002 105.59 108.39000000000003 105.2 C 108.41000000000003 104.81 108.43000000000004 104.54 108.44000000000003 104.35000000000001 C 108.46000000000002 103.78000000000002 108.49000000000002 102.86000000000001 108.53000000000003 101.59 C 108.58000000000003 100.32000000000001 108.59000000000003 99.36 108.59000000000003 98.72 C 108.59000000000003 98.23 108.59000000000003 97.47 108.62000000000003 96.46 C 108.64000000000003 95.44 108.65000000000003 94.67999999999999 108.65000000000003 94.17999999999999 L 108.65000000000003 90.66999999999999 C 108.65000000000003 90.14999999999999 108.62000000000003 89.35999999999999 108.56000000000003 88.28999999999999 C 108.50000000000003 87.22999999999999 108.46000000000004 86.42999999999999 108.44000000000003 85.91 L 108.44000000000003 85.49 Z" stroke-linecap="round" />
</g>
		<g transform="matrix(1 0 0 1 4.11 12.87)"  >
<path style="stroke: none; stroke-width: 0; stroke-dasharray: none; stroke-linecap: butt; stroke-dashoffset: 0; stroke-linejoin: miter; stroke-miterlimit: 4; fill: rgb(166,206,57); fill-rule: evenodd; opacity: 1;" vector-effect="non-scaling-stroke"  transform=" translate(-116.94, -66.43)" d="M 54.98 75.49 L 54.98 75.49 L 55.08 71.66 L 55.129999999999995 66 L 55.089999999999996 60.72 C 55.05 59.05 55.019999999999996 57.79 54.989999999999995 56.93 L 54.849999999999994 55.089999999999996 L 57.629999999999995 55.16 L 60.01 55.089999999999996 L 59.86 56.93 C 59.81 57.78 59.78 59.03 59.75 60.67 L 59.73 63.690000000000005 L 59.73 65.01 L 60.58 64.18 C 61.68 63.230000000000004 63.1 62.74000000000001 64.85 62.730000000000004 C 68.58999999999999 62.75000000000001 70.44999999999999 64.65 70.44 68.43 L 70.42 70.55000000000001 L 70.4 73.28000000000002 C 70.4 74.44000000000001 70.43 75.33000000000001 70.51 75.95000000000002 L 70.68 77.38000000000002 L 68.25 77.31000000000003 L 65.59 77.38000000000002 L 65.73 75.76000000000002 C 65.78 74.75000000000001 65.82000000000001 73.87000000000002 65.85000000000001 73.13000000000002 L 65.87 70.60000000000002 L 65.83 68.36000000000003 C 65.73 66.30000000000003 64.75 65.27000000000002 62.879999999999995 65.25000000000003 C 61.529999999999994 65.25000000000003 60.62 65.72000000000003 60.15 66.70000000000003 C 59.9 67.20000000000003 59.76 67.82000000000004 59.72 68.53000000000003 L 59.65 70.52000000000002 L 59.67 73.10000000000002 L 59.760000000000005 75.60000000000002 L 59.93000000000001 77.39000000000003 L 57.510000000000005 77.32000000000004 L 54.84 77.39000000000003 L 54.96 75.47000000000003 Z M 74.84 76.25 L 74.84 76.25 C 74.87 75.69 74.9 74.83 74.94 73.68 L 74.97 70.15 C 74.97 68.44000000000001 74.95 67.31 74.92 66.76 L 74.75 64.04 L 74.7 63.09 L 77.2 63.17 L 79.62 63.09 L 79.4 64.76 L 79.35000000000001 66.43 C 80.63000000000001 64.01 82.31 62.81000000000001 84.39000000000001 62.82000000000001 L 85.31000000000002 62.85000000000001 C 85.13000000000001 64.00000000000001 85.04000000000002 64.9 85.04000000000002 65.54 L 85.08000000000003 66.93 L 84.72000000000003 67.09 L 84.05000000000003 66.79 C 83.64000000000003 66.63000000000001 83.20000000000003 66.56 82.72000000000003 66.56 C 81.77000000000002 66.58 81.01000000000003 66.87 80.44000000000003 67.42 C 79.85000000000002 68.06 79.55000000000003 69.02 79.55000000000003 70.28 L 79.53000000000003 72.71000000000001 C 79.52000000000002 73.87 79.57000000000004 75.03 79.68000000000004 76.17 L 79.80000000000004 77.41 L 77.46000000000004 77.34 L 74.72000000000004 77.41 L 74.86000000000004 76.25 Z M 87.15 70.67 L 87.15 70.67 C 87.14 69.82000000000001 87.27000000000001 68.96000000000001 87.52000000000001 68.08 C 88.00000000000001 66.39 89.02000000000001 65.08 90.57000000000001 64.12 C 92.06 63.220000000000006 93.85000000000001 62.760000000000005 95.95 62.75000000000001 C 98.55 62.77000000000001 100.64 63.42000000000001 102.2 64.7 C 103.7 65.93 104.46000000000001 67.7 104.48 70.02000000000001 C 104.47 73.93 102.51 76.39000000000001 98.62 77.4 C 97.68 77.65 96.7 77.77000000000001 95.67 77.76 C 93.11 77.76 91.05 77.13000000000001 89.49000000000001 75.89 C 87.93 74.66 87.14000000000001 72.92 87.13000000000001 70.67 Z M 92.19 70.48 L 92.19 70.48 C 92.21 74.44 93.41 76.41 95.78 76.4 C 98.22 76.41000000000001 99.45 74.25 99.46000000000001 69.92 C 99.45 66.05 98.32000000000001 64.11 96.07000000000001 64.1 C 93.47000000000001 64.13 92.18 66.25999999999999 92.19000000000001 70.47999999999999 Z M 110.12 63.17 L 110.12 63.17 L 112.43 63.09 C 112.29 63.59 112.21000000000001 63.96 112.17 64.2 L 112.15 65.05 L 113.27000000000001 64.13 C 114.46000000000001 63.22 115.88000000000001 62.74999999999999 117.53000000000002 62.739999999999995 C 119.11000000000001 62.739999999999995 120.41000000000001 63.169999999999995 121.44000000000001 64.03 C 122.00000000000001 64.51 122.39000000000001 64.99 122.60000000000001 65.48 C 122.9 66.18 123.05000000000001 67 123.05000000000001 67.94 L 123.01 71.00999999999999 L 123.01 73.61999999999999 C 123.01 74.75999999999999 123.05000000000001 75.60999999999999 123.12 76.16999999999999 L 123.29 77.40999999999998 L 120.69000000000001 77.33999999999999 L 118.20000000000002 77.40999999999998 L 118.29000000000002 75.98999999999998 L 118.44000000000003 73.36999999999998 L 118.47000000000003 70.88999999999997 L 118.40000000000003 68.34999999999997 C 118.30000000000004 66.29999999999997 117.33000000000004 65.27999999999997 115.50000000000003 65.27999999999997 C 113.53000000000003 65.30999999999997 112.49000000000002 66.34999999999997 112.36000000000003 68.40999999999997 L 112.27000000000002 70.84999999999997 L 112.25000000000003 73.31999999999996 C 112.24000000000002 74.43999999999997 112.28000000000003 75.37999999999997 112.37000000000003 76.12999999999997 L 112.52000000000004 77.41999999999997 L 110.12000000000003 77.34999999999998 L 107.43000000000004 77.41999999999997 L 107.60000000000004 75.95999999999998 L 107.67000000000003 73.23999999999998 L 107.71000000000004 70.35999999999999 L 107.67000000000003 66.84999999999998 C 107.63000000000002 65.79999999999998 107.60000000000004 64.98999999999998 107.57000000000004 64.42999999999998 L 107.43000000000004 63.10999999999998 L 110.09000000000003 63.189999999999976 Z M 127.47 76.07 L 127.47 76.07 L 127.55 73.46 L 127.6 70.35 L 127.55999999999999 67.33999999999999 L 127.46 64.57999999999998 L 127.32 63.09999999999999 L 129.84 63.179999999999986 L 132.41 63.09999999999999 L 132.28 64.52999999999999 C 132.22 65.12999999999998 132.19 66.04999999999998 132.17 67.25999999999999 L 132.13 70.35 L 132.18 73.46 L 132.27 76.07 L 132.4 77.39999999999999 L 129.85 77.33 L 127.30999999999999 77.39999999999999 L 127.44999999999999 76.07 Z M 127.24 57.64 L 127.24 57.64 C 127.22999999999999 57.02 127.49 56.480000000000004 128.01999999999998 56.03 C 128.54999999999998 55.58 129.17999999999998 55.36 129.92 55.36 C 130.66 55.36 131.26999999999998 55.57 131.79999999999998 56.01 C 132.32999999999998 56.44 132.6 56.98 132.6 57.629999999999995 C 132.60999999999999 58.24999999999999 132.35 58.78999999999999 131.81 59.24999999999999 C 131.27 59.709999999999994 130.65 59.92999999999999 129.93 59.919999999999995 C 129.20000000000002 59.92999999999999 128.57 59.709999999999994 128.03 59.26 C 127.5 58.809999999999995 127.24 58.269999999999996 127.25 57.64 Z M 149.12 66.88 L 149.12 66.88 C 149.01 66.49 148.89000000000001 66.16 148.76 65.89999999999999 C 148.59 65.52999999999999 148.32999999999998 65.21999999999998 147.97 64.96 C 147.60999999999999 64.69999999999999 147.23 64.50999999999999 146.79 64.39 C 146.35999999999999 64.26 145.92 64.21 145.45999999999998 64.21 C 143.83999999999997 64.19999999999999 142.61999999999998 64.86999999999999 141.79 66.22999999999999 C 141.16 67.24999999999999 140.85 68.52 140.87 70.02 C 140.88 71.75999999999999 141.27 73.11 142.03 74.07 C 143.05 75.33 144.45 75.96 146.25 75.96 C 147.32 75.96 148.29 75.71 149.16 75.24 L 150.01 74.69999999999999 L 150.57999999999998 74.92999999999999 L 150.14 75.72999999999999 L 149.82999999999998 76.49999999999999 L 148.98999999999998 76.94999999999999 C 147.87999999999997 77.46999999999998 146.55999999999997 77.74 145.02999999999997 77.74999999999999 C 142.35999999999999 77.74999999999999 140.18999999999997 77.08999999999999 138.52999999999997 75.79999999999998 C 136.77999999999997 74.44999999999999 135.91999999999996 72.64999999999998 135.92999999999998 70.41999999999999 C 135.92 69.36999999999999 136.11999999999998 68.35999999999999 136.54 67.38999999999999 C 136.97 66.41999999999999 137.57999999999998 65.58999999999999 138.38 64.90999999999998 C 139.18 64.22999999999998 140.16 63.69999999999998 141.32999999999998 63.329999999999984 C 142.55999999999997 62.929999999999986 143.85999999999999 62.72999999999998 145.2 62.72999999999998 C 147.17 62.749999999999986 148.85 63.079999999999984 150.26 63.719999999999985 L 151.10999999999999 64.18999999999998 L 150.51 65.36999999999999 L 149.91 66.85999999999999 L 149.1 66.85999999999999 Z M 154.94 75.51 L 154.94 75.51 L 155.06 71.42 L 155.13 65.73 L 155.09 61.21000000000001 C 155.07 59.32000000000001 155.03 57.870000000000005 154.97 56.870000000000005 L 154.85 55.1 L 157.34 55.17 L 159.94 55.1 L 159.82 56.86 C 159.73999999999998 58.08 159.7 59.53 159.69 61.22 L 159.67 65.75 L 159.70999999999998 71.3 L 159.85999999999999 75.50999999999999 L 159.95 77.41 L 157.38 77.34 L 154.85999999999999 77.41 L 154.95 75.50999999999999 Z M 176.47 77.07 L 176.47 77.07 C 175.99 77.25 175.48 77.39999999999999 174.93 77.49 C 174.05 77.66 173.15 77.75 172.21 77.75 C 168.11 77.75 165.46 76.37 164.26000000000002 73.64 C 163.75000000000003 72.55 163.49 71.39 163.50000000000003 70.17 C 163.49000000000004 68.9 163.73000000000002 67.75 164.22000000000003 66.71000000000001 C 164.58000000000004 65.91000000000001 165.16000000000003 65.18 165.97000000000003 64.51 C 167.41000000000003 63.32000000000001 169.28000000000003 62.730000000000004 171.59000000000003 62.730000000000004 C 173.93000000000004 62.730000000000004 175.75000000000003 63.330000000000005 177.05000000000004 64.5 C 178.35000000000005 65.67 179.01000000000005 67.22 179.04000000000005 69.17 L 178.99000000000004 70.62 L 178.01000000000005 70.55000000000001 L 176.11000000000004 70.50000000000001 L 174.29000000000005 70.39000000000001 L 168.53000000000006 70.39000000000001 L 168.62000000000006 71.35000000000001 C 168.78000000000006 72.64000000000001 169.26000000000005 73.67 170.08000000000007 74.44000000000001 C 170.99000000000007 75.30000000000001 172.17000000000007 75.72000000000001 173.62000000000006 75.71000000000001 C 174.71000000000006 75.72000000000001 175.84000000000006 75.51 176.99000000000007 75.07000000000001 L 177.98000000000008 74.63000000000001 L 178.43000000000006 74.88000000000001 L 177.95000000000007 75.78000000000002 L 177.44000000000008 76.67000000000002 L 176.4600000000001 77.06000000000002 Z M 173.99 68.81 L 174.01000000000002 68.01 C 173.93 65.43 173.07000000000002 64.12 171.44000000000003 64.10000000000001 C 170.21000000000004 64.10000000000001 169.37000000000003 64.80000000000001 168.92000000000002 66.21000000000001 C 168.59 67.12 168.59 67.89000000000001 168.56 68.81 L 173.99 68.81 Z" stroke-linecap="round" />
</g>
		<g transform="matrix(1 0 0 1 -77.64 49.34)"  >
<path style="stroke: none; stroke-width: 0; stroke-dasharray: none; stroke-linecap: butt; stroke-dashoffset: 0; stroke-linejoin: miter; stroke-miterlimit: 4; fill: rgb(255,255,255); fill-rule: evenodd; opacity: 1;" vector-effect="non-scaling-stroke"  transform=" translate(-35.19, -102.9)" d="M 31.61 100.75 C 32.78 98.76 35.339999999999996 98.09 37.31 99.28 C 39.28 100.46000000000001 39.940000000000005 103.05 38.77 105.05 C 37.6 107.03999999999999 35.040000000000006 107.71 33.07 106.52 C 31.1 105.33999999999999 30.44 102.75 31.61 100.75" stroke-linecap="round" />
</g>
		<g transform="matrix(1 0 0 1 -38.55 -49.34)"  >
<path style="stroke: none; stroke-width: 0; stroke-dasharray: none; stroke-linecap: butt; stroke-dashoffset: 0; stroke-linejoin: miter; stroke-miterlimit: 4; fill: rgb(255,255,255); fill-rule: evenodd; opacity: 1;" vector-effect="non-scaling-stroke"  transform=" translate(-74.28, -4.21)" d="M 76.4 0.59 C 78.37 1.77 79.03 4.36 77.86 6.359999999999999 C 76.69 8.35 74.13 9.02 72.16 7.829999999999999 C 70.19 6.6499999999999995 69.53 4.059999999999999 70.7 2.0599999999999996 C 71.87 0.06999999999999962 74.43 -0.6000000000000005 76.4 0.5899999999999996" stroke-linecap="round" />
</g>
		<g transform="matrix(1 0 0 1 -88.84 5.96)"  >
<path style="stroke: none; stroke-width: 0; stroke-dasharray: none; stroke-linecap: butt; stroke-dashoffset: 0; stroke-linejoin: miter; stroke-miterlimit: 4; fill: rgb(255,255,255); fill-rule: evenodd; opacity: 1;" vector-effect="non-scaling-stroke"  transform=" translate(-23.99, -59.51)" d="M 20.41 57.36 C 21.58 55.37 24.14 54.7 26.11 55.89 C 28.08 57.07 28.74 59.660000000000004 27.57 61.66 C 26.4 63.65 23.84 64.32 21.87 63.129999999999995 C 19.900000000000002 61.949999999999996 19.240000000000002 59.35999999999999 20.41 57.36" stroke-linecap="round" />
</g>
		<g transform="matrix(1 0 0 1 -84.82 22.68)"  >
<path style="stroke: none; stroke-width: 0; stroke-dasharray: none; stroke-linecap: butt; stroke-dashoffset: 0; stroke-linejoin: miter; stroke-miterlimit: 4; fill: rgb(255,255,255); fill-rule: evenodd; opacity: 1;" vector-effect="non-scaling-stroke"  transform=" translate(-28.01, -76.23)" d="M 24.43 74.09 C 25.6 72.10000000000001 28.16 71.43 30.13 72.61 C 32.1 73.79 32.76 76.38 31.59 78.38 C 30.42 80.36999999999999 27.86 81.03999999999999 25.89 79.85 C 23.92 78.66999999999999 23.26 76.08 24.43 74.08999999999999" stroke-linecap="round" />
</g>
		<g transform="matrix(1 0 0 1 -61.09 45.29)"  >
<path style="stroke: none; stroke-width: 0; stroke-dasharray: none; stroke-linecap: butt; stroke-dashoffset: 0; stroke-linejoin: miter; stroke-miterlimit: 4; fill: rgb(255,255,255); fill-rule: evenodd; opacity: 1;" vector-effect="non-scaling-stroke"  transform=" translate(-51.74, -98.84)" d="M 48.16 96.69 C 49.33 94.7 51.88999999999999 94.03 53.86 95.22 C 55.83 96.4 56.49 98.99 55.32 100.99 C 54.15 102.97999999999999 51.59 103.64999999999999 49.62 102.46 C 47.65 101.27999999999999 46.989999999999995 98.69 48.16 96.69" stroke-linecap="round" />
</g>
		<g transform="matrix(1 0 0 1 -45.8 41.18)"  >
<path style="stroke: none; stroke-width: 0; stroke-dasharray: none; stroke-linecap: butt; stroke-dashoffset: 0; stroke-linejoin: miter; stroke-miterlimit: 4; fill: rgb(255,255,255); fill-rule: evenodd; opacity: 1;" vector-effect="non-scaling-stroke"  transform=" translate(-67.03, -94.73)" d="M 63.45 92.58 C 64.62 90.59 67.18 89.92 69.15 91.11 C 71.12 92.29 71.78 94.88 70.61 96.88 C 69.44 98.86999999999999 66.88 99.53999999999999 64.91 98.35 C 62.94 97.16999999999999 62.279999999999994 94.58 63.449999999999996 92.58" stroke-linecap="round" />
</g>
		<g transform="matrix(1 0 0 1 -31.63 37.38)"  >
<path style="stroke: none; stroke-width: 0; stroke-dasharray: none; stroke-linecap: butt; stroke-dashoffset: 0; stroke-linejoin: miter; stroke-miterlimit: 4; fill: rgb(255,255,255); fill-rule: evenodd; opacity: 1;" vector-effect="non-scaling-stroke"  transform=" translate(-81.2, -90.94)" d="M 77.62 88.79 C 78.79 86.80000000000001 81.35000000000001 86.13000000000001 83.32000000000001 87.32000000000001 C 85.29 88.50000000000001 85.95 91.09 84.78 93.09 C 83.61 95.08 81.05 95.75 79.08 94.56 C 77.11 93.38 76.45 90.79 77.62 88.79" stroke-linecap="round" />
</g>
		<g transform="matrix(1 0 0 1 -16.8 33.39)"  >
<path style="stroke: none; stroke-width: 0; stroke-dasharray: none; stroke-linecap: butt; stroke-dashoffset: 0; stroke-linejoin: miter; stroke-miterlimit: 4; fill: rgb(255,255,255); fill-rule: evenodd; opacity: 1;" vector-effect="non-scaling-stroke"  transform=" translate(-96.03, -86.95)" d="M 92.45 84.8 C 93.62 82.81 96.18 82.14 98.15 83.33 C 100.12 84.51 100.78 87.1 99.61 89.1 C 98.44 91.08999999999999 95.88 91.75999999999999 93.91 90.57 C 91.94 89.38999999999999 91.28 86.8 92.45 84.8" stroke-linecap="round" />
</g>
		<g transform="matrix(1 0 0 1 -53.38 -47.14)"  >
<path style="stroke: none; stroke-width: 0; stroke-dasharray: none; stroke-linecap: butt; stroke-dashoffset: 0; stroke-linejoin: miter; stroke-miterlimit: 4; fill: rgb(255,255,255); fill-rule: evenodd; opacity: 1;" vector-effect="non-scaling-stroke"  transform=" translate(-59.45, -6.41)" d="M 55.87 4.26 C 57.04 2.2699999999999996 59.599999999999994 1.5999999999999996 61.57 2.79 C 63.54 3.9699999999999998 64.2 6.5600000000000005 63.03 8.559999999999999 C 61.86 10.549999999999999 59.300000000000004 11.219999999999999 57.33 10.03 C 55.36 8.85 54.699999999999996 6.26 55.87 4.26" stroke-linecap="round" />
</g>
		<g transform="matrix(1 0 0 1 -68.04 -43.09)"  >
<path style="stroke: none; stroke-width: 0; stroke-dasharray: none; stroke-linecap: butt; stroke-dashoffset: 0; stroke-linejoin: miter; stroke-miterlimit: 4; fill: rgb(255,255,255); fill-rule: evenodd; opacity: 1;" vector-effect="non-scaling-stroke"  transform=" translate(-44.79, -10.46)" d="M 41.21 8.32 C 42.38 6.33 44.94 5.66 46.910000000000004 6.84 C 48.88 8.02 49.540000000000006 10.61 48.370000000000005 12.61 C 47.2 14.6 44.64000000000001 15.27 42.67 14.08 C 40.7 12.9 40.04 10.31 41.21 8.31" stroke-linecap="round" />
</g>
		<g transform="matrix(1 0 0 1 -83.26 -38.92)"  >
<path style="stroke: none; stroke-width: 0; stroke-dasharray: none; stroke-linecap: butt; stroke-dashoffset: 0; stroke-linejoin: miter; stroke-miterlimit: 4; fill: rgb(255,255,255); fill-rule: evenodd; opacity: 1;" vector-effect="non-scaling-stroke"  transform=" translate(-29.57, -14.63)" d="M 25.99 12.48 C 27.159999999999997 10.49 29.72 9.82 31.689999999999998 11.01 C 33.66 12.19 34.32 14.78 33.15 16.78 C 31.979999999999997 18.77 29.419999999999998 19.44 27.45 18.25 C 25.48 17.07 24.82 14.48 25.99 12.48" stroke-linecap="round" />
</g>
		<g transform="matrix(1 0 0 1 -99.28 -34.56)"  >
<path style="stroke: none; stroke-width: 0; stroke-dasharray: none; stroke-linecap: butt; stroke-dashoffset: 0; stroke-linejoin: miter; stroke-miterlimit: 4; fill: rgb(255,255,255); fill-rule: evenodd; opacity: 1;" vector-effect="non-scaling-stroke"  transform=" translate(-13.55, -18.99)" d="M 9.97 16.84 C 11.14 14.85 13.700000000000001 14.18 15.670000000000002 15.37 C 17.64 16.55 18.3 19.14 17.130000000000003 21.14 C 15.960000000000003 23.13 13.400000000000002 23.8 11.430000000000003 22.61 C 9.460000000000003 21.43 8.800000000000004 18.84 9.970000000000002 16.84" stroke-linecap="round" />
</g>
		<g transform="matrix(1 0 0 1 -28.52 -21.5)"  >
<path style="stroke: none; stroke-width: 0; stroke-dasharray: none; stroke-linecap: butt; stroke-dashoffset: 0; stroke-linejoin: miter; stroke-miterlimit: 4; fill: rgb(255,255,255); fill-rule: evenodd; opacity: 1;" vector-effect="non-scaling-stroke"  transform=" translate(-84.31, -32.06)" d="M 86.43 28.43 C 88.4 29.61 89.06 32.2 87.89 34.2 C 86.72 36.190000000000005 84.16 36.86 82.19 35.68 C 80.22 34.5 79.56 31.91 80.73 29.91 C 81.9 27.92 84.46000000000001 27.25 86.43 28.44" stroke-linecap="round" />
</g>
		<g transform="matrix(1 0 0 1 -32.34 -36.86)"  >
<path style="stroke: none; stroke-width: 0; stroke-dasharray: none; stroke-linecap: butt; stroke-dashoffset: 0; stroke-linejoin: miter; stroke-miterlimit: 4; fill: rgb(255,255,255); fill-rule: evenodd; opacity: 1;" vector-effect="non-scaling-stroke"  transform=" translate(-80.49, -16.7)" d="M 82.61 13.08 C 84.58 14.26 85.24 16.85 84.07 18.85 C 82.89999999999999 20.84 80.33999999999999 21.51 78.36999999999999 20.32 C 76.39999999999999 19.14 75.74 16.55 76.91 14.55 C 78.08 12.56 80.64 11.89 82.61 13.07" stroke-linecap="round" />
</g>
		<g transform="matrix(1 0 0 1 -24.44 -7.89)"  >
<path style="stroke: none; stroke-width: 0; stroke-dasharray: none; stroke-linecap: butt; stroke-dashoffset: 0; stroke-linejoin: miter; stroke-miterlimit: 4; fill: rgb(255,255,255); fill-rule: evenodd; opacity: 1;" vector-effect="non-scaling-stroke"  transform=" translate(-88.39, -45.67)" d="M 90.51 42.05 C 92.48 43.23 93.14 45.82 91.97 47.81999999999999 C 90.8 49.809999999999995 88.24 50.47999999999999 86.27 49.28999999999999 C 84.3 48.10999999999999 83.64 45.51999999999999 84.81 43.519999999999996 C 85.98 41.529999999999994 88.54 40.86 90.51 42.05" stroke-linecap="round" />
</g>
		<g transform="matrix(1 0 0 1 -24.44 -7.89)"  >
<path style="stroke: none; stroke-width: 0; stroke-dasharray: none; stroke-linecap: butt; stroke-dashoffset: 0; stroke-linejoin: miter; stroke-miterlimit: 4; fill: rgb(255,255,255); fill-rule: evenodd; opacity: 1;" vector-effect="non-scaling-stroke"  transform=" translate(-88.39, -45.67)" d="M 90.51 42.05 C 92.48 43.23 93.14 45.82 91.97 47.81999999999999 C 90.8 49.809999999999995 88.24 50.47999999999999 86.27 49.28999999999999 C 84.3 48.10999999999999 83.64 45.51999999999999 84.81 43.519999999999996 C 85.98 41.529999999999994 88.54 40.86 90.51 42.05" stroke-linecap="round" />
</g>
</g>
</g>
<g transform="matrix(0.41 0 0 0.56 627.14 540.8)" style="" id="83830501-4682-446c-bf70-25412f639cf7"  >
		<text xml:space="preserve" font-family="Lato" font-size="18" font-style="normal" font-weight="400" style="stroke: none; stroke-width: 1; stroke-dasharray: none; stroke-linecap: butt; stroke-dashoffset: 0; stroke-linejoin: miter; stroke-miterlimit: 4; fill: rgb(255,255,255); fill-rule: nonzero; opacity: 1; white-space: pre;" ><tspan x="-30.2" y="12.57" style="stroke-width: 1; font-family: 'Lato'; font-size: 40px; font-style: normal; font-weight: 400; fill: rgb(0,0,0); ">TM</tspan></text>
</g>
</svg>