<svg width="36" height="38" viewBox="0 0 36 38" fill="none" xmlns="http://www.w3.org/2000/svg">
<path d="M18 0.4375C13.3401 0.4375 9.5625 4.2151 9.5625 8.875C9.5625 13.5349 13.3401 17.3125 18 17.3125C22.6599 17.3125 26.4375 13.5349 26.4375 8.875C26.4375 4.2151 22.6599 0.4375 18 0.4375Z" fill="#B0CB1F"/>
<path d="M9 21.8125C4.3401 21.8125 0.5625 25.5901 0.5625 30.25V32.9236C0.5625 34.6184 1.79074 36.0634 3.46336 36.3365C13.0907 37.9083 22.9093 37.9083 32.5366 36.3365C34.2093 36.0634 35.4375 34.6184 35.4375 32.9236V30.25C35.4375 25.5901 31.6599 21.8125 27 21.8125H26.233C25.8179 21.8125 25.4054 21.8781 25.0108 22.007L23.0634 22.6429C19.7733 23.7172 16.2267 23.7172 12.9366 22.6429L10.9892 22.007C10.5946 21.8781 10.1821 21.8125 9.76696 21.8125H9Z" fill="#B0CB1F"/>
</svg>
