<svg width="37" height="37" viewBox="0 0 37 37" fill="none" xmlns="http://www.w3.org/2000/svg">
<path d="M7.99958 15.2667C10.8742 21.5275 15.9892 26.5053 22.3485 29.2038L23.3679 29.658C25.7001 30.6971 28.4417 29.9076 29.8642 27.7874L31.1964 25.8018C31.6295 25.1563 31.4976 24.2868 30.8926 23.7987L26.3748 20.154C25.7112 19.6186 24.7355 19.7433 24.2278 20.4283L22.8302 22.3142C19.244 20.5452 16.3324 17.6336 14.5634 14.0474L16.4493 12.6498C17.1343 12.1422 17.259 11.1664 16.7237 10.5029L13.0788 5.98494C12.5908 5.38002 11.7216 5.24807 11.076 5.68092L9.07676 7.02146C6.94325 8.45203 6.15818 11.2163 7.22128 13.5547L7.99841 15.2641L7.99958 15.2667Z" fill="#B0CB1F"/>
</svg>
