<svg xmlns="http://www.w3.org/2000/svg" width="25" height="25" viewBox="0 0 25 25" fill="none">
    <path d="M1.50031 10.0287C4.37491 16.2896 9.48992 21.2673 15.8492 23.9658L16.8686 24.42C19.2008 25.4591 21.9425 24.6697 23.365 22.5494L24.6971 20.5638C25.1302 19.9183 24.9983 19.0488 24.3933 18.5607L19.8755 14.916C19.212 14.3807 18.2362 14.5054 17.7286 15.1904L16.331 17.0762C12.7448 15.3072 9.83318 12.3957 8.06416 8.80944L9.95004 7.41185C10.635 6.90422 10.7597 5.92845 10.2244 5.26488L6.57958 0.746962C6.09156 0.14204 5.22231 0.010089 4.57676 0.442942L2.5775 1.78349C0.443981 3.21405 -0.34109 5.97832 0.722008 8.31675L1.49914 10.0262L1.50031 10.0287Z" fill="white" fill-opacity="0.5"/>
    </svg>