<svg width="38" height="37" viewBox="0 0 38 37" fill="none" xmlns="http://www.w3.org/2000/svg">
<path d="M37.3794 6.38328C37.3794 2.8579 34.5215 0 30.9962 0H7.28685C3.76146 0 0.903564 2.85789 0.903564 6.38328V30.0926C0.903564 33.618 3.76146 36.4759 7.28684 36.4759H30.9962C34.5215 36.4759 37.3794 33.618 37.3794 30.0926V6.38328Z" fill="white" fill-opacity="0.5"/>
<path d="M19.1414 9.11938C14.126 9.11938 10.0225 13.2229 10.0225 18.2384C10.0225 21.9999 12.3022 25.1916 15.4938 26.5594C15.4938 25.8755 15.4938 25.1916 15.6078 24.5076C15.8358 23.7097 16.7477 19.4922 16.7477 19.4922C16.7477 19.4922 16.4057 18.9223 16.4057 18.0104C16.4057 16.6425 17.2037 15.6166 18.1156 15.6166C18.9135 15.6166 19.3694 16.1866 19.3694 16.9845C19.3694 17.7824 18.7995 19.0363 18.5715 20.1761C18.3435 21.088 19.0274 21.8859 20.0533 21.8859C21.7631 21.8859 22.903 19.7202 22.903 16.9845C22.903 14.9327 21.5352 13.4509 19.1414 13.4509C16.4057 13.4509 14.6959 15.5027 14.6959 17.7824C14.6959 18.5803 14.9239 19.1503 15.2659 19.6062C15.3799 19.8342 15.4938 19.8342 15.3799 20.0621C15.3799 20.1761 15.2659 20.6321 15.1519 20.7461C15.0379 20.974 14.9239 21.088 14.6959 20.974C13.4421 20.4041 12.8721 19.0363 12.8721 17.4404C12.8721 14.8187 15.0379 11.7411 19.3694 11.7411C22.903 11.7411 25.1827 14.2488 25.1827 16.9845C25.1827 20.5181 23.245 23.2538 20.2813 23.2538C19.2554 23.2538 18.3435 22.6838 18.0016 22.1139C18.0016 22.1139 17.4316 24.1657 17.3176 24.6216C17.0897 25.3056 16.7477 25.9895 16.4057 26.5594C17.2037 26.7874 18.1155 26.9014 19.0274 26.9014C24.0429 26.9014 28.1464 22.7978 28.1464 17.7824C28.2604 13.2229 24.1569 9.11938 19.1414 9.11938Z" fill="#5D2A42"/>
</svg>
