<svg width="55" height="55" viewBox="0 0 55 55" fill="none" xmlns="http://www.w3.org/2000/svg">
<path d="M29.4461 7.21738C28.5789 5.72304 26.421 5.72303 25.5538 7.21737L19.4472 17.7413C19.0189 18.4795 18.2785 18.9833 17.4346 19.1107L5.99043 20.8392C4.0683 21.1295 3.39406 23.5564 4.891 24.7966L13.4165 31.8599C14.2056 32.5137 14.5767 33.545 14.385 34.5517L12.1549 46.2633C11.8023 48.1147 13.7458 49.5531 15.4134 48.6751L26.1896 43.001C27.0098 42.5691 27.9901 42.5691 28.8103 43.001L39.5865 48.6751C41.2541 49.5531 43.1976 48.1147 42.845 46.2633L40.6149 34.5517C40.4232 33.545 40.7943 32.5137 41.5835 31.8599L50.1089 24.7966C51.6058 23.5564 50.9316 21.1295 49.0095 20.8392L37.5653 19.1107C36.7214 18.9833 35.981 18.4795 35.5527 17.7413L29.4461 7.21738Z" fill="#B0CB1F"/>
</svg>
