<svg width="37" height="37" viewBox="0 0 37 37" fill="none" xmlns="http://www.w3.org/2000/svg">
<rect x="0.47583" width="36.4759" height="36.4759" rx="6.38328" fill="white" fill-opacity="0.5"/>
<path d="M28.3799 13.5868C27.7416 13.8604 27.0121 14.0428 26.2825 14.134C27.0121 13.678 27.6504 12.9485 27.9239 12.1278C27.1944 12.5838 26.4649 12.8573 25.553 13.0397C24.9147 12.3102 23.9116 11.8542 22.9085 11.8542C20.9023 11.8542 19.2609 13.4957 19.2609 15.5018C19.2609 15.7754 19.2609 16.049 19.3521 16.3225C16.3429 16.1402 13.6072 14.6811 11.7834 12.4926C11.5098 13.0397 11.3274 13.678 11.3274 14.3164C11.3274 15.593 11.9657 16.6873 12.9688 17.3256C12.3305 17.3256 11.7834 17.1432 11.3274 16.8697C11.3274 18.6023 12.6041 20.1525 14.2455 20.4261C13.9719 20.5173 13.6072 20.5173 13.2424 20.5173C12.9688 20.5173 12.7865 20.5173 12.5129 20.4261C12.9688 21.8851 14.3367 22.9794 15.9781 22.9794C14.7014 23.9825 13.1512 24.5296 11.4186 24.5296C11.145 24.5296 10.8715 24.5296 10.5067 24.4384C12.1481 25.4415 14.0631 26.0798 16.1605 26.0798C22.9085 26.0798 26.5561 20.5173 26.5561 15.6842V15.2283C27.2856 14.9547 27.9239 14.3164 28.3799 13.5868Z" fill="#5D2A42"/>
</svg>
