<svg width="1294" height="820" viewBox="0 0 1394 820" fill="none" xmlns="http://www.w3.org/2000/svg">
<path fill-rule="evenodd" clip-rule="evenodd" d="M1333.1 213.075L1332.69 212.805V213.21L1333.1 213.075ZM1329.04 209.426L1329.99 209.021V208.48L1329.04 209.426ZM1345.82 198.886L1345.68 196.994L1345.41 195.913L1345.82 198.886ZM1286.69 184.968L1285.74 185.373L1278.03 187.67L1275.32 188.616L1272.21 189.562L1271.13 189.968V190.373L1271.53 197.4L1271.94 203.886L1272.35 209.832L1273.02 210.237L1275.46 209.561L1286.42 206.318L1286.69 206.994L1306.17 199.562L1306.31 199.832L1308.07 199.156L1314.29 196.724L1320.25 203.886L1321.06 203.21L1321.46 201.183L1321.33 204.427H1322.68L1323.09 206.048L1324.3 208.345L1330.66 200.643L1335.94 202.4L1337.16 199.697L1345.82 195.103L1342.16 187.941L1343.11 192.535L1338.65 195.913L1333.64 196.319L1323.63 185.643L1319.16 178.887L1323.63 174.157L1319.03 173.887L1317.13 169.428L1317 169.157L1309.29 177.536L1292.24 183.211L1286.69 184.968Z" fill="#B0CB1F" stroke="#5D2A42" stroke-width="1.40251" stroke-linejoin="round"/>
<path fill-rule="evenodd" clip-rule="evenodd" d="M778.612 102.809L781.319 112.403L787.001 146.997L789.707 160.78L790.519 172.942L793.631 180.239L794.308 186.455L794.849 188.482L794.714 188.887L789.302 197.806L792.819 203.751L799.585 251.317L799.855 257.533L806.621 257.128L833.276 255.641L899.846 250.101L906.477 249.425V248.75L904.582 238.345L896.329 234.156L889.834 227.399L879.551 221.183L876.303 220.913L871.297 217.129L872.65 198.481L867.914 194.157L869.538 186.59L878.198 178.752L876.709 162.537L879.821 159.023L890.375 147.943L902.417 132.538L907.018 129.295L915.136 125.376L923.66 119.025L917.978 120.106L914.595 117.538L901.605 119.295L899.576 116.863L887.94 121.592L878.603 117.673L876.033 114.565L868.591 115.106L863.585 112.538L865.208 110.647L858.849 108.62H853.166L844.1 112.538L842.341 109.836L827.999 107.809L823.128 95.6472L822.587 91.9986L816.363 90.2419L816.904 100.647L800.397 101.863L779.965 102.674L778.612 102.809Z" fill="#B0CB1F" stroke="#5D2A42" stroke-width="1.40251" stroke-linejoin="round"/>
<path fill-rule="evenodd" clip-rule="evenodd" d="M649.124 101.594L604.338 98.6207L571.729 95.5127L539.255 91.729L519.095 89.0264L486.892 84.0266L470.791 81.324L434.799 74.4324L431.011 73.6216L425.192 101.188L427.763 106.188L429.793 113.89L428.575 114.971L431.146 121.998L434.664 124.971L444.676 141.727L445.624 144.565L449.683 144.295L444.947 166.456L443.053 166.997L440.482 174.429L453.877 175.375L454.96 181.591L462.537 200.104L463.89 201.185L469.167 211.995L470.52 210.914L481.75 210.779L495.957 212.265L499.475 207.671L503.67 215.238L504.482 215.643L504.617 214.833L506.511 201.59L552.786 207.265L589.725 210.779L609.209 212.4L643.982 214.427L645.741 214.562H646.147L646.282 212.671L646.688 203.347L647.23 191.05L647.365 187.942L647.636 182.537L649.8 140.106L651.559 107.134L651.695 101.729L649.124 101.594Z" fill="#B0CB1F" stroke="#5D2A42" stroke-width="1.40251" stroke-linejoin="round"/>
<path fill-rule="evenodd" clip-rule="evenodd" d="M775.772 102.81L734.909 103.62L706.36 103.485L681.869 102.945L653.184 101.864L651.696 101.729L651.561 107.134L649.802 140.106L647.637 182.536L647.366 187.942L652.643 188.212L712.313 189.834L767.383 189.428L790.249 188.753L794.85 188.482L794.309 186.455L793.632 180.239L790.52 172.942L789.708 160.781L787.002 146.997L781.319 112.404L778.613 102.81L775.772 102.81Z" fill="#B0CB1F" stroke="#5D2A42" stroke-width="1.40251" stroke-linejoin="round"/>
<path fill-rule="evenodd" clip-rule="evenodd" d="M580.389 716.977L576.195 713.869L572.541 714.815L573.353 722.382L568.347 728.598L572.677 738.462L573.894 748.597L578.901 751.84L582.013 746.841L587.56 742.787L594.326 741.03L601.767 734.679L594.461 728.463L594.325 724.679L580.389 716.977ZM555.763 706.031L553.734 704.275L551.839 706.842L555.763 706.031ZM545.615 700.221L546.157 695.221L543.586 694.815L545.615 700.221ZM554.14 691.978L551.839 693.059L553.463 698.194L556.981 698.464L558.063 702.923L561.852 704.545L570.241 700.626L562.393 694.14L554.14 691.978ZM536.82 686.437L535.603 690.086L541.421 689.951L546.833 691.302L543.992 686.843L536.82 686.437ZM519.772 675.762L516.66 672.789L510.706 677.384L514.495 684.41L517.201 681.573L524.914 683.194L524.237 679.951L519.772 675.762ZM459.155 669.816L459.967 667.924L462.267 666.708L459.155 669.816ZM480.668 657.519L471.197 661.033L470.25 663.6L474.038 666.303L479.315 667.654L483.104 660.222L480.668 657.519ZM415.045 632.655V632.52H414.774L415.045 632.655ZM343.333 614.953V615.224H343.468L343.333 614.953ZM303.012 604.684H302.741V604.819L303.012 604.684ZM261.337 569.685L261.202 569.279V569.415L261.337 569.685ZM168.653 540.091L168.247 540.497L168.517 540.632L168.653 540.091ZM15.4863 446.581L15.8922 446.446V446.176L15.4863 446.581Z" fill="#B0CB1F"/>
<path d="M305.718 608.737L305.853 608.873M303.959 604.684H303.823V604.548M73.9385 471.986H73.8032M580.389 716.977L576.195 713.869L572.541 714.815L573.353 722.382L568.347 728.598L572.677 738.462L573.894 748.597L578.901 751.84L582.013 746.841L587.56 742.787L594.326 741.03L601.767 734.679L594.461 728.463L594.325 724.679L580.389 716.977ZM555.763 706.031L553.734 704.275L551.839 706.842L555.763 706.031ZM545.615 700.221L546.157 695.221L543.586 694.815L545.615 700.221ZM554.14 691.978L551.839 693.059L553.463 698.194L556.981 698.464L558.064 702.923L561.852 704.545L570.241 700.626L562.393 694.14L554.14 691.978ZM536.82 686.437L535.603 690.086L541.421 689.951L546.833 691.302L543.992 686.843L536.82 686.437ZM519.772 675.762L516.66 672.789L510.706 677.384L514.495 684.41L517.201 681.573L524.914 683.194L524.237 679.951L519.772 675.762ZM459.155 669.816L459.967 667.924L462.267 666.708L459.155 669.816ZM480.668 657.519L471.197 661.033L470.25 663.6L474.038 666.303L479.315 667.654L483.104 660.222L480.668 657.519ZM415.045 632.655V632.52H414.774L415.045 632.655ZM343.333 614.953V615.224H343.468L343.333 614.953ZM303.012 604.684H302.741V604.819L303.012 604.684ZM261.337 569.685L261.202 569.279V569.415L261.337 569.685ZM168.653 540.091L168.247 540.497L168.517 540.632L168.653 540.091ZM15.4863 446.581L15.8922 446.446V446.176L15.4863 446.581Z" stroke="#5D2A42" stroke-width="1.40251" stroke-linejoin="round"/>
<path fill-rule="evenodd" clip-rule="evenodd" d="M430.876 73.6215L418.833 71.1892L414.91 70.2433L413.151 69.8379L397.455 140.376L398.132 146.187L397.59 152.267L397.861 153.619V153.754L397.996 156.321L402.597 161.321L395.967 177.942L381.895 196.32L381.489 199.698L385.142 208.347L372.288 261.588L371.747 264.426L375.536 265.236L413.827 272.804L429.117 275.641L433.041 276.317L436.829 276.993L456.313 280.101L491.222 285.371L495.146 285.911L495.687 281.452L496.905 272.669L501.506 237.535L503.941 220.103L504.482 215.644L503.67 215.238L499.476 207.671L495.958 212.265L481.751 210.779L470.52 210.914L469.167 211.995L463.89 201.185L462.537 200.104L454.96 181.591L453.878 175.375L440.483 174.429L443.053 166.997L444.948 166.456L449.683 144.295L445.624 144.565L444.677 141.727L434.664 124.971L431.146 121.998L428.576 114.972L429.793 113.89L427.764 106.188L425.193 101.188L431.011 73.6216L430.876 73.6215Z" fill="#B0CB1F" stroke="#5D2A42" stroke-width="1.40251" stroke-linejoin="round"/>
<path fill-rule="evenodd" clip-rule="evenodd" d="M267.832 107.269L267.967 104.972L267.697 105.107L267.832 107.269ZM296.652 94.9719L297.464 93.6206L296.517 93.4855L296.652 94.9719ZM294.081 92.5396L294.893 89.837L294.081 89.5667V92.5396ZM303.959 88.6208L303.823 85.9182L301.523 89.4316L303.959 88.6208ZM304.229 82.9453L304.635 80.2427L304.365 79.5671L304.229 82.9453ZM304.635 69.7025L304.5 68.2161L303.959 68.081L304.635 69.7025ZM308.965 60.7839L307.747 60.6488L305.312 64.4325L308.965 60.7839ZM305.582 57.1354L306.259 56.5949L306.394 56.1895L305.582 57.1354ZM304.906 57.5408L304.5 54.8382L303.282 57.1354L304.906 57.5408ZM304.229 53.7572L303.012 53.2166L303.959 54.5679L304.229 53.7572ZM308.289 56.0544V54.2977L307.883 54.9733L308.289 56.0544ZM309.506 54.2977L308.965 53.8923H308.83L309.506 54.2977ZM301.794 51.3248L301.117 50.7843L300.847 50.6492L301.794 51.3248ZM306.8 50.7843L303.147 51.7302L304.094 52.0005L306.8 50.7843ZM303.823 50.514L303.147 49.7032L303.012 49.8384L303.823 50.514ZM306.665 48.8925H306.124L306.8 49.1627L306.665 48.8925ZM280.145 118.214L285.016 123.484L284.204 133.619L285.151 136.187L292.458 140.105L313.024 141.997L313.836 144.43L323.578 144.565L332.779 145.781L347.798 144.159L355.24 145.376L357.269 144.43L395.29 153.078L397.861 153.619L397.591 152.267L398.132 146.186L397.455 140.376L413.151 69.8377L410.986 69.4323L379.324 62.0002L351.722 54.9734L320.466 46.325L311.13 44.0278L313.295 55.7842L311.265 59.5678L307.612 57.676L311.13 74.0268L307.341 79.432L305.582 84.4318V89.5667L297.599 95.1071L294.217 92.945L290.969 94.5666L296.923 86.8641L295.435 92.1342L298.817 88.4857L301.523 89.0262L300.711 82.2697L302.47 82.54L306.124 74.4322L304.906 73.216L300.17 79.2968L297.058 79.432L300.441 75.6483L304.229 74.7024L302.876 67.8108L299.088 66.8649L297.193 63.6217L294.893 64.8379L282.445 59.4327L271.485 50.9195L268.509 59.1624L268.238 62.6758L270.538 68.8918L269.05 89.0262L267.967 92.1342L274.056 92.6747L267.967 96.9989L271.215 98.6205L268.644 107.269L267.426 100.512L265.126 108.35L268.238 112.134L271.621 111.863L275.68 114.296L277.709 118.214L280.145 118.214Z" fill="#B0CB1F" stroke="#5D2A42" stroke-width="1.40251" stroke-linejoin="round"/>
<path fill-rule="evenodd" clip-rule="evenodd" d="M518.822 431.447L473.224 425.771L448.733 422.258L413.824 416.717L410.306 416.177V416.447L404.353 442.662L401.241 442.527L396.505 438.338L390.552 443.338L390.416 464.824L388.251 469.418V469.824V469.959L387.981 473.337L392.717 486.039L396.911 491.715L389.334 496.174L386.357 501.714L381.486 513.606L379.051 514.146L378.915 524.011L383.11 527.119L380.945 533.065L376.074 533.335L373.232 538.605L382.974 544.686L401.376 554.956L458.205 585.09L506.374 591.036H506.915L510.703 551.172L511.65 541.308L521.798 436.717L522.34 431.852L518.822 431.447Z" fill="#B0CB1F" stroke="#5D2A42" stroke-width="1.40251" stroke-linejoin="round"/>
<path fill-rule="evenodd" clip-rule="evenodd" d="M287.18 506.444L287.721 509.417V509.957L287.18 506.444ZM267.29 494.823L268.237 496.85L268.779 496.715L267.29 494.823ZM290.969 494.417L291.375 497.931L293.81 499.688L290.969 494.417ZM274.597 475.229L273.108 474.824L274.326 475.364L274.597 475.229ZM259.578 471.175L255.925 473.337L256.872 474.283L259.578 471.175ZM252.542 468.608L252.271 469.689L253.489 469.959L252.542 468.608ZM264.449 471.31L270.402 474.688L271.485 473.743L264.449 471.31ZM232.787 352.936L232.652 352.531V353.071L232.787 352.936ZM310.859 250.372L305.582 249.021L247.671 233.076L226.157 226.589V227.13L224.94 240.508L219.257 256.318L209.785 268.074L209.515 274.02L214.115 282.263L216.415 293.073L213.168 301.857L213.709 310.64L212.085 314.289L217.633 326.315L221.151 330.91L220.88 344.018L229.269 351.99L234.14 343.882L239.417 348.071L241.447 346.18L234.14 347.531L234.005 354.423L235.493 363.071L231.434 359.152L229.134 353.882L228.457 361.179L230.352 375.638L237.929 384.962L232.923 391.448L233.734 399.691L239.147 408.069L248.618 434.014L251.595 435.636L250.648 453.608L252.136 455.77L272.432 463.067L278.656 469.689L280.821 474.013L286.774 477.391L293.269 478.607L295.975 486.039L301.387 488.607L309.506 498.201L317.083 510.768L316.542 522.389L320.736 527.93L376.076 533.335L380.947 533.065L383.112 527.119L378.918 524.011L379.053 514.146L381.489 513.606L386.36 501.715L389.336 496.174L396.913 491.715L392.719 486.039L387.983 473.337L388.254 469.959V469.824L384.736 465.094L373.911 450.635L352.939 421.177L323.713 379.286L307.206 356.449L291.239 333.477L309.641 255.507L310.859 250.372Z" fill="#B0CB1F"/>
<path d="M218.31 352.26L218.174 352.396M287.18 506.444L287.721 509.417V509.957L287.18 506.444ZM267.29 494.823L268.237 496.85L268.779 496.715L267.29 494.823ZM290.969 494.417L291.375 497.931L293.81 499.688L290.969 494.417ZM274.597 475.229L273.108 474.824L274.326 475.364L274.597 475.229ZM259.578 471.175L255.925 473.337L256.872 474.283L259.578 471.175ZM252.542 468.608L252.271 469.689L253.489 469.959L252.542 468.608ZM264.449 471.31L270.402 474.688L271.485 473.743L264.449 471.31ZM232.787 352.936L232.652 352.531V353.071L232.787 352.936ZM310.859 250.372L305.582 249.021L247.671 233.076L226.157 226.589V227.13L224.94 240.508L219.257 256.318L209.785 268.074L209.515 274.02L214.115 282.263L216.415 293.073L213.168 301.857L213.709 310.64L212.085 314.289L217.633 326.315L221.151 330.91L220.88 344.018L229.269 351.99L234.14 343.882L239.417 348.071L241.447 346.18L234.14 347.531L234.005 354.423L235.493 363.071L231.434 359.152L229.134 353.882L228.457 361.179L230.352 375.638L237.929 384.962L232.923 391.448L233.734 399.691L239.147 408.069L248.618 434.014L251.595 435.636L250.648 453.608L252.136 455.77L272.432 463.067L278.656 469.689L280.821 474.013L286.774 477.391L293.269 478.607L295.975 486.039L301.387 488.607L309.506 498.201L317.083 510.768L316.542 522.389L320.736 527.93L376.076 533.335L380.947 533.065L383.112 527.119L378.918 524.011L379.053 514.146L381.489 513.606L386.36 501.715L389.336 496.174L396.913 491.715L392.719 486.039L387.983 473.337L388.254 469.959V469.824L384.736 465.094L373.911 450.635L352.939 421.177L323.713 379.286L307.206 356.449L291.239 333.477L309.641 255.507L310.859 250.372Z" stroke="#5D2A42" stroke-width="1.40251" stroke-linejoin="round"/>
<path fill-rule="evenodd" clip-rule="evenodd" d="M682.544 355.774L683.085 329.288L676.591 329.018L643.576 327.802L640.329 327.667L637.623 327.531L597.437 324.964L570.646 322.802L537.225 319.559L533.978 319.153L533.572 322.667L526.266 393.07L523.695 417.663L522.612 428.339L522.342 431.852L526.536 432.257L594.73 438.203L624.768 440.095L654.671 441.446L659.001 441.581L661.707 441.717L667.39 441.852L670.096 441.987L678.62 442.257H680.785V439.555L682.273 368.071L682.409 360.098V357.531L682.544 355.774Z" fill="#B0CB1F" stroke="#5D2A42" stroke-width="1.40251" stroke-linejoin="round"/>
<path fill-rule="evenodd" clip-rule="evenodd" d="M410.986 411.853L425.058 324.423L432.229 280.641L433.041 276.317L429.117 275.641L413.827 272.803L375.536 265.236L371.747 264.425L367.959 263.615L348.881 259.426L314.648 251.318L310.86 250.372L309.642 255.507L291.24 333.477L307.206 356.449L323.714 379.286L352.94 421.177L373.912 450.635L384.737 465.094L388.255 469.823V469.418L390.42 464.824L390.555 443.338L396.508 438.338L401.244 442.527L404.356 442.662L410.31 416.447V416.177L410.986 411.853Z" fill="#B0CB1F" stroke="#5D2A42" stroke-width="1.40251" stroke-linejoin="round"/>
<path fill-rule="evenodd" clip-rule="evenodd" d="M658.598 452.121L658.733 448.608L658.869 445.095L659.004 441.581L654.674 441.446L624.771 440.095L594.734 438.203L526.539 432.257L522.345 431.852L521.804 436.716L511.656 541.307L510.708 551.172L506.92 591.035L507.461 591.17L526.133 592.927L527.892 583.468L531.275 580.765L569.161 584.144H569.431L566.049 577.522L583.233 578.738L626.125 581.171L652.915 582.387L657.516 455.635L658.463 455.77L658.598 452.121Z" fill="#B0CB1F" stroke="#5D2A42" stroke-width="1.40251" stroke-linejoin="round"/>
<path fill-rule="evenodd" clip-rule="evenodd" d="M226.158 226.589L247.672 233.075L305.583 249.02L310.86 250.371L314.649 251.317L348.881 259.425L367.959 263.614L371.748 264.425L372.289 261.587L385.143 208.346L381.49 199.698L381.896 196.319L395.967 177.942L402.597 161.321L397.997 156.321L397.862 153.753V153.618L395.291 153.078L357.27 144.429L355.24 145.375L347.798 144.159L332.78 145.781L323.579 144.564L313.837 144.429L313.025 141.997L292.458 140.105L285.152 136.186L284.205 133.619L285.016 123.484L280.145 118.214L279.74 118.349L278.792 119.025L272.027 115.511L267.968 116.728L265.262 115.376L262.42 126.997L260.526 130.241L252.137 150.645L249.702 161.861L248.213 161.996L240.366 180.644L235.089 188.617L233.194 189.968L228.323 199.427L227.376 209.427L224.399 218.346L226.158 226.453L226.158 226.589ZM275.68 115.647L275.275 114.43L275.139 115.376L275.68 115.647Z" fill="#B0CB1F" stroke="#5D2A42" stroke-width="1.40251" stroke-linejoin="round"/>
<path fill-rule="evenodd" clip-rule="evenodd" d="M491.222 285.371L456.313 280.101L436.829 276.993L433.04 276.317L432.228 280.641L425.057 324.423L410.985 411.853L410.309 416.177L413.827 416.717L448.735 422.258L473.226 425.771L518.824 431.446L522.342 431.852L522.613 428.338L523.695 417.663L526.266 393.069L533.572 322.667L533.978 319.153L531.272 318.883L496.769 314.694L491.492 314.018L494.875 287.668L495.145 285.911L491.222 285.371Z" fill="#B0CB1F" stroke="#5D2A42" stroke-width="1.40251" stroke-linejoin="round"/>
<path fill-rule="evenodd" clip-rule="evenodd" d="M643.171 267.533L644.254 246.453L645.607 218.075L645.742 214.562L643.983 214.427L609.209 212.4L589.725 210.778L552.787 207.265L506.512 201.589L504.618 214.832L504.483 215.643L503.941 220.102L501.506 237.534L496.905 272.668L495.688 281.451L495.146 285.911L494.876 287.667L491.493 314.018L496.77 314.694L531.273 318.883L533.979 319.153L537.227 319.558L570.647 322.801L597.438 324.963L637.624 327.531L640.33 327.666L640.465 324.153L641.142 309.964L642.359 285.235L642.901 274.695L643.036 271.182L643.171 267.533Z" fill="#B0CB1F" stroke="#5D2A42" stroke-width="1.40251" stroke-linejoin="round"/>
<path fill-rule="evenodd" clip-rule="evenodd" d="M962.488 456.716L947.875 458.878L953.829 449.419L951.258 444.148L899.706 449.148L856.138 452.662L849.778 453.067L850.59 456.851L855.867 484.147L856.002 490.228L857.491 526.983L857.626 533.064L858.032 533.199L860.062 535.361L868.18 535.091L868.992 546.983L869.263 550.361L873.457 549.956L886.311 549.01L937.321 544.28H937.592L937.457 541.307L938.81 540.361L936.374 535.767L941.516 514.146L939.486 511.714L947.199 503.2L946.657 495.903L952.34 486.444V486.309L952.07 486.039L956.941 481.58L955.588 476.174L959.376 470.229L958.564 464.688L962.624 456.851V456.716L962.488 456.716Z" fill="#B0CB1F" stroke="#5D2A42" stroke-width="1.40251" stroke-linejoin="round"/>
<path fill-rule="evenodd" clip-rule="evenodd" d="M922.173 275.236L914.731 271.317L910.672 265.777L909.319 257.804L910.401 254.156L906.477 249.426L899.847 250.102L833.277 255.642L806.621 257.129L799.856 257.534L797.015 257.669L799.315 272.669L797.421 279.831L800.397 284.29V285.236L801.344 285.371L805.674 298.073L809.869 304.695L810.139 312.262L814.74 318.613L813.928 321.316L818.122 338.342V338.748L845.86 337.937L875.492 335.369L904.583 331.721L911.213 337.531L911.484 337.802L912.701 337.261L911.754 331.991L916.76 328.883L918.79 315.1L916.76 314.154L917.978 307.127L924.067 305.911L930.832 301.046L933.809 292.533L933.944 288.209L928.532 283.074L926.908 279.831L921.767 276.588L922.037 275.912L922.173 275.236Z" fill="#B0CB1F" stroke="#5D2A42" stroke-width="1.40251" stroke-linejoin="round"/>
<path fill-rule="evenodd" clip-rule="evenodd" d="M848.835 435.365L845.453 378.205L839.364 374.692L838.823 371.989L833.952 367.665L838.687 361.854L836.793 358.476L833.275 358.611L830.028 356.314L828.675 355.233L824.074 355.503L774.146 357.395L751.28 357.935H705.817L687.55 357.665L682.409 357.53V360.097L682.274 368.07L680.785 439.554V442.257L686.603 442.392L717.994 442.797L791.465 441.716L843.829 439.284L848.97 438.878L848.835 435.365Z" fill="#B0CB1F" stroke="#5D2A42" stroke-width="1.40251" stroke-linejoin="round"/>
<path fill-rule="evenodd" clip-rule="evenodd" d="M911.211 337.531L904.581 331.72L875.49 335.369L845.858 337.936L818.121 338.747L817.985 339.558L821.368 346.044L824.48 348.206L828.133 354.692L828.675 355.233L830.027 356.314L833.275 358.611L836.793 358.476L838.687 361.854L833.951 367.665L838.822 371.989L839.364 374.692L845.452 378.205L848.835 435.365L848.97 438.878L849.241 442.392L849.376 445.905L849.647 449.554L849.782 453.067L856.142 452.662L899.71 449.148L951.262 444.149L953.833 449.419L947.879 458.878L962.492 456.716H962.628V455.635L962.898 449.419L965.604 446.04L964.793 442.257L964.657 442.122L964.522 441.986L965.063 440.23L965.875 440.5L966.281 441.581L966.145 441.986V442.122V443.203L966.687 443.338L967.769 441.987V441.851L967.904 441.446L971.422 439.284L971.964 439.014L973.181 427.933L972.911 427.392L972.505 427.257L962.898 419.42L964.387 416.582L961.68 408.879L956.809 405.096L947.609 401.042L941.79 396.312L942.467 386.583L944.226 377.529L934.484 378.07L931.507 374.962L930.154 368.746L914.729 355.773L910.399 343.747L911.482 337.801L911.211 337.531Z" fill="#B0CB1F" stroke="#5D2A42" stroke-width="1.40251" stroke-linejoin="round"/>
<path fill-rule="evenodd" clip-rule="evenodd" d="M797.828 284.965L793.634 280.776L778.886 276.452L774.15 276.316L766.979 278.343L758.454 272.938L731.799 273.208L692.966 272.803L647.097 271.317L643.038 271.181L642.903 274.695L642.362 285.235L641.144 309.964L640.467 324.152L640.332 327.666L643.579 327.801L676.594 329.017L683.089 329.287L682.548 355.773L682.412 357.53L687.554 357.665L705.82 357.935H751.283L774.15 357.395L824.078 355.503L828.678 355.233L828.137 354.692L824.483 348.206L821.371 346.044L817.989 339.557L818.124 338.747V338.341L813.93 321.315L814.741 318.612L810.141 312.261L809.87 304.694L805.676 298.072L801.346 285.37L800.399 285.235L797.828 284.965Z" fill="#B0CB1F" stroke="#5D2A42" stroke-width="1.40251" stroke-linejoin="round"/>
<path fill-rule="evenodd" clip-rule="evenodd" d="M849.647 449.554L849.376 445.905L849.241 442.392L848.97 438.879L843.828 439.284L791.465 441.716L717.994 442.797L686.603 442.392L680.785 442.257H678.62L670.095 441.987L667.389 441.851L661.707 441.716L659 441.581L658.865 445.094L658.73 448.608L658.594 452.121L658.459 455.77H659.271L692.015 456.581L726.653 456.986L727.059 503.2L729.495 511.308L734.907 516.443L740.725 516.714L741.943 514.281L749.926 521.578L760.344 522.659L762.239 524.821L766.027 523.065L775.499 527.524V530.091L779.017 529.956L782.67 526.848L789.435 531.172L795.795 533.47L800.124 527.524L813.926 534.01L819.067 529.821L823.262 528.2L826.644 529.01L839.363 525.362L846.128 528.2L852.217 532.118L857.494 533.064H857.629L857.494 526.983L856.006 490.228L855.87 484.147L850.593 456.851L849.782 453.067L849.647 449.554Z" fill="#B0CB1F" stroke="#5D2A42" stroke-width="1.40251" stroke-linejoin="round"/>
<path fill-rule="evenodd" clip-rule="evenodd" d="M790.248 188.752L767.382 189.428L712.312 189.833L652.642 188.212L647.365 187.941L647.23 191.049L646.689 203.346L646.283 212.67L646.147 214.562H645.741L645.606 218.075L644.253 246.453L643.171 267.533L643.035 271.182L647.094 271.317L692.963 272.803L731.796 273.209L758.451 272.938L766.975 278.344L774.147 276.317L778.882 276.452L793.631 280.776L797.825 284.965L800.396 285.235V284.289L797.419 279.83L799.314 272.668L797.013 257.669L799.855 257.533L799.584 251.317L792.819 203.752L789.301 197.806L794.713 188.887L794.849 188.482L790.248 188.752Z" fill="#B0CB1F" stroke="#5D2A42" stroke-width="1.40251" stroke-linejoin="round"/>
<path fill-rule="evenodd" clip-rule="evenodd" d="M960.463 653.33L958.704 653.736L957.892 654.547L960.463 653.33ZM966.146 653.33L965.199 652.925L964.928 653.33H966.146ZM969.393 652.249H968.446L967.905 652.925L969.393 652.249ZM967.769 651.303L967.499 650.898L967.363 651.303H967.769ZM978.594 644.142L978.188 644.412H978.865L978.594 644.142ZM997.537 636.169L998.349 635.088L997.401 636.304L997.537 636.169ZM1000.24 632.656L999.972 632.791V632.926L1000.24 632.656ZM930.696 644.547L932.725 641.98L927.178 640.493L924.742 642.52L930.696 644.547ZM986.848 632.791L986.306 632.25L986.171 632.52L986.848 632.791ZM988.336 630.358L986.983 629.953L987.389 631.304L988.336 630.358ZM999.431 628.061V627.656V627.791V628.061ZM1002.14 626.304L1002 626.169L1002.14 626.44V626.304ZM1001.05 626.034L1000.78 625.899L1000.65 626.304L1001.05 626.034ZM991.583 625.629L992.801 625.223V624.818L991.583 625.629ZM992.26 624.953L992.936 624.277L992.801 624.142L992.26 624.953ZM987.524 619.953L987.253 620.224H987.389L987.524 619.953ZM937.596 544.28H937.326L886.315 549.01L873.461 549.956L869.267 550.361L869.402 553.604L872.108 579.684L876.573 585.9L876.709 589.549L881.038 597.116L884.556 608.197L883.339 614.413L882.391 629.818L880.362 634.818H880.632L881.038 638.331L878.738 641.574L895.516 639.682L908.641 643.331L917.977 644.547L922.713 641.169L920.142 637.79L928.801 635.088L928.531 638.061L932.996 636.98L936.649 642.655L939.761 641.574L947.879 647.114L942.873 648.871L954.374 652.249H958.704L961.275 649.141L966.822 646.169L970.746 651.844L973.452 646.709L972.641 638.601L979.947 641.439L980.759 643.871L989.418 644.952L993.748 648.466L993.207 651.303L999.296 645.628L996.996 642.655L986.848 640.088L983.059 637.926L982.924 633.872L987.118 634.412L990.366 627.791L986.171 621.98L983.871 627.521L978.594 626.575L982.247 620.629L979.812 619.953L973.858 624.142L965.334 624.683L962.898 622.791L966.822 615.899L971.423 615.764L979.27 618.332L984.953 618.872L981.841 614.953L975.888 603.332L977.512 596.846L930.831 601.981L932.59 600.224L930.696 595.36L933.537 591.17L935.161 580.63L945.444 563.063L940.438 556.983L940.708 552.523L937.596 545.226L937.596 544.28Z" fill="#B0CB1F" stroke="#5D2A42" stroke-width="1.40251" stroke-linejoin="round"/>
<path fill-rule="evenodd" clip-rule="evenodd" d="M800.124 747.516L793.63 723.058V727.652L800.124 747.516ZM798.636 704.545L794.035 713.193L793.494 716.031L798.636 704.545ZM802.289 698.194L806.619 692.518L803.507 694.41L802.289 698.194ZM817.579 684.41L807.431 689.68L810.272 689.14L817.579 684.41ZM818.932 682.519L821.773 680.221L820.691 680.492L818.932 682.519ZM658.459 455.77L657.512 455.635L652.911 582.387L626.121 581.171L583.229 578.738L566.045 577.522L569.428 584.144L569.563 584.279L584.176 598.873L592.565 608.737L603.66 616.98L611.508 631.304L614.485 646.304L620.844 650.493L625.85 656.033L633.021 658.6L643.44 665.222L648.176 666.979L654.67 660.492L656.7 653.601L660.083 646.979L670.636 642.79L674.696 644.817L686.467 645.763L697.156 652.384L704.463 653.736L702.433 657.519L706.628 660.222L710.552 664.952L711.364 669.951L713.934 673.33L719.888 687.653L725.841 692.653L730.442 700.221L736.26 706.166L738.831 706.977L740.996 722.382L747.355 725.895L747.626 730.76L749.249 730.355L760.344 743.868L765.892 745.084L772.928 749.273H783.752L791.6 753.597L800.936 751.57L796.742 747.651L792.953 736.3L791.465 726.436L789.3 723.193L790.247 716.571L787.406 716.301L783.617 710.085L787.947 714.68L792.953 712.923L795.659 705.761L790.247 698.464L798.365 699.41L802.154 693.599L801.613 691.572L804.995 687.113L804.184 691.032L807.972 688.059L806.484 682.789L811.355 685.356L817.579 681.843L811.49 675.492L815.279 676.978L822.315 677.384L831.515 675.357L841.799 668.465L848.023 663.33L848.97 659.546L852.758 655.628L850.729 649.141L851.135 645.087L857.9 642.115L857.359 649.276H861.418L856.953 653.06L874.949 643.601L877.925 643.466L879.82 634.817H880.361L882.39 629.818L883.337 614.413L884.555 608.197L881.037 597.116L876.707 589.549L876.572 585.9L872.107 579.684L869.401 553.604L869.266 550.361L868.995 546.983L868.183 535.091L860.065 535.362L858.035 533.2L857.629 533.064H857.494L852.217 532.118L846.128 528.2L839.363 525.362L826.644 529.01L823.262 528.2L819.067 529.821L813.925 534.01L800.124 527.524L795.794 533.47L789.435 531.173L782.67 526.848L779.016 529.956L775.498 530.092V527.524L766.027 523.065L762.239 524.821L760.344 522.659L749.926 521.578L741.943 514.281L740.725 516.714L734.907 516.443L729.494 511.308L727.059 503.201L726.653 456.986L692.015 456.581L659.271 455.77L658.459 455.77Z" fill="#B0CB1F" stroke="#5D2A42" stroke-width="1.40251" stroke-linejoin="round"/>
<path fill-rule="evenodd" clip-rule="evenodd" d="M1306.17 199.564L1286.69 206.996L1286.42 206.32L1275.46 209.564L1273.02 210.239L1273.29 211.591L1278.43 231.455L1280.06 233.482L1276.54 237.806L1278.97 240.103L1286.82 232.536L1291.02 226.725L1291.83 228.347L1311.58 219.563L1311.99 219.158L1311.85 215.915L1311.04 213.077L1306.85 201.321L1306.31 199.834L1306.17 199.564Z" fill="#B0CB1F" stroke="#5D2A42" stroke-width="1.40251" stroke-linejoin="round"/>
<path fill-rule="evenodd" clip-rule="evenodd" d="M1287.9 105.782L1286.14 107.944L1284.12 107.539L1283.03 116.458V116.593L1286.28 128.754L1286.01 131.187L1280.19 138.889L1281.68 145.916V154.699L1280.6 162.807L1286.69 184.969L1292.23 183.212L1309.28 177.536L1316.99 169.158V166.996L1317.4 163.483L1316.45 163.888L1316.32 163.077L1307.79 152.672L1307.52 151.727L1287.9 105.782Z" fill="#B0CB1F" stroke="#5D2A42" stroke-width="1.40251" stroke-linejoin="round"/>
<path fill-rule="evenodd" clip-rule="evenodd" d="M1319.43 211.725L1319.3 208.887L1318.89 209.968L1319.43 211.725ZM1322.14 209.562L1320.38 206.184L1320.24 209.698L1322.14 209.562ZM1321.33 205.373L1322.27 207.806L1323.49 209.968L1324.3 208.346L1323.08 206.049L1322.68 204.428H1321.33V205.373ZM1306.31 199.833L1306.85 201.32L1311.04 213.076L1311.85 215.914L1311.99 219.157L1312.26 218.751L1318.75 213.616L1317.54 204.428L1320.24 203.887L1314.29 196.725L1308.07 199.157L1306.31 199.833Z" fill="#B0CB1F" stroke="#5D2A42" stroke-width="1.40251" stroke-linejoin="round"/>
<path fill-rule="evenodd" clip-rule="evenodd" d="M1286.68 184.969L1280.59 162.807L1281.68 154.7V145.916L1280.19 138.889L1286.01 131.187L1286.28 128.754L1283.03 116.593L1281.27 117.268L1273.83 119.971L1266.52 122.809L1249.74 128.89L1248.8 129.16L1254.89 143.349L1256.92 156.726L1264.09 167.942L1270.85 190.104L1271.12 189.968L1272.2 189.563L1275.32 188.617L1278.02 187.671L1285.74 185.374L1286.68 184.969Z" fill="#B0CB1F" stroke="#5D2A42" stroke-width="1.40251" stroke-linejoin="round"/>
<path fill-rule="evenodd" clip-rule="evenodd" d="M1001.32 480.093L1001.86 481.174L1003.76 482.391L1004.57 537.794L1004.84 568.198L1011.74 609.819L1012.28 609.683L1018.37 610.9L1020 598.873L1022.7 605.629L1027.3 609.818L1036.1 604.684L1035.15 603.873L1035.42 604.008L1029.33 590.09L1087.78 580.63L1091.71 579.955V579.82L1088.05 572.928L1087.78 563.063L1084.81 557.658L1086.3 547.118L1088.73 544.415L1078.72 526.578L1060.59 471.445L1060.45 471.175L1056.39 471.85L1034.74 475.364L1023.92 476.715L1001.19 479.823L1001.32 480.093Z" fill="#B0CB1F" stroke="#5D2A42" stroke-width="1.40251" stroke-linejoin="round"/>
<path fill-rule="evenodd" clip-rule="evenodd" d="M1191.43 745.22H1191.16L1191.29 745.355L1191.43 745.22ZM1190.21 745.084V745.22H1190.35L1190.21 745.084ZM1170.59 747.111H1170.46V747.247L1170.59 747.111ZM1209.02 738.598H1208.88L1209.02 738.868V738.598ZM1212.67 737.652V737.382L1212.4 737.787L1212.67 737.652ZM1211.32 737.382L1210.78 736.841L1210.64 736.977L1211.32 737.382ZM1210.91 738.463L1209.29 736.436L1210.24 738.193L1210.91 738.463ZM1223.77 730.49V731.031L1224.04 730.761L1223.77 730.49ZM1225.66 729.139L1226.07 728.463L1225.53 729.004L1225.66 729.139ZM1226.07 727.788H1225.93V727.923L1226.07 727.788ZM1224.85 725.355L1224.71 725.22V725.491L1224.85 725.355ZM1225.8 722.112L1225.53 722.247L1225.93 722.383L1225.8 722.112ZM1226.34 722.112L1226.07 721.842L1226.2 722.247L1226.34 722.112ZM1225.39 721.842L1225.25 721.707V721.977L1225.39 721.842ZM1230.4 720.896V720.761L1230.13 721.301L1230.4 720.896ZM1224.71 721.437H1224.44L1224.71 721.572V721.437ZM1227.56 719.815H1227.15L1227.01 719.95L1227.56 719.815ZM1217.27 719.68V719.41L1217.14 719.68H1217.27ZM1218.49 719.275H1218.08L1218.49 720.085V719.275ZM1215.24 719.41V718.599L1214.57 718.734L1215.24 719.41ZM1213.35 718.058L1214.02 718.734V718.464L1213.35 718.058ZM1233.24 718.869L1230.8 719.95L1231.61 720.085L1233.24 718.869ZM1214.3 717.653H1213.48V717.923L1214.3 717.653ZM1235.67 710.896L1235.81 710.221L1235.94 708.464L1235.67 710.896ZM1235.81 703.329L1235.27 701.978L1235 702.518L1235.81 703.329ZM1204.55 706.707L1204.28 707.113L1204.96 707.248L1204.55 706.707ZM1201.98 705.491L1200.76 705.897L1201.71 706.032L1201.98 705.491ZM1199.28 705.762V705.356L1199.14 705.491L1199.28 705.762ZM1196.43 705.626L1195.62 706.167L1196.71 706.707L1196.43 705.626ZM1200.22 705.762L1200.09 705.356L1199.41 705.221L1200.22 705.762ZM1182.5 692.519L1181.69 692.924L1183.31 693.465L1182.5 692.519ZM1179.25 688.195L1178.17 686.573L1178.57 687.789L1179.25 688.195ZM1183.45 690.897L1181.55 686.573L1180.2 686.168L1183.45 690.897ZM1178.03 685.492L1177.63 684.411L1177.36 683.735L1178.03 685.492ZM1166.8 670.492L1164.37 668.736L1165.31 669.682L1166.8 670.492ZM1227.69 661.439L1217.81 644.953H1217.27L1227.69 661.439ZM1159.36 635.088L1158.96 634.953L1159.36 635.223V635.088ZM1158.55 634.142L1158.41 634.278L1158.55 634.413V634.142ZM1157.6 632.791V632.656L1157.47 632.791H1157.6ZM1158.14 632.251L1158.55 632.521V632.251H1158.14ZM1158.96 631.71L1158.41 631.845H1158.55L1158.96 631.71ZM1158.01 631.575L1157.6 631.169L1157.74 631.305L1158.01 631.575ZM1157.06 630.088H1156.79L1157.2 630.224L1157.06 630.088ZM1158.01 628.467H1157.47L1157.33 628.602L1158.01 628.467ZM1158.55 628.737L1157.87 628.061L1158.14 628.197L1158.55 628.737ZM1153.41 622.927L1153.14 622.791V622.927H1153.41ZM1147.59 622.927L1147.18 622.386L1147.32 623.062L1147.59 622.927ZM1098.34 618.467L1102.4 615.359L1097.93 618.332L1098.34 618.467ZM1106.46 611.981L1106.86 611.576L1105.24 612.251L1106.46 611.981ZM1055.04 602.927L1040.29 607.657L1048.41 605.36L1055.04 602.927ZM1091.71 579.955L1087.78 580.631L1029.33 590.09L1035.42 604.008L1035.83 604.143L1034.34 609.684L1038.67 607.792L1043.4 603.603L1051.52 603.333L1060.86 599.954L1067.22 600.9L1065.73 603.198L1077.37 607.116L1087.38 611.981L1089.68 617.386L1097.12 615.765L1114.71 601.441L1121.2 601.711L1147.72 621.71L1153.14 620.629L1158.82 628.197L1159.9 640.223L1158.14 647.791L1158.96 651.574L1163.69 661.033L1161.53 653.601L1167.61 653.466L1168.16 658.871L1164.91 667.249L1176.14 682.654L1180.33 682.789L1176.82 678.06L1181.15 678.6L1183.72 676.979L1182.63 685.627L1188.45 690.222L1192.38 700.762L1197.65 704.005L1204.42 705.762L1213.75 717.653L1218.63 720.22L1212.13 720.626L1215.11 724.004L1225.8 720.491L1231.07 717.518L1235.94 700.491L1233.51 674.006L1232.97 671.303L1219.98 649.682L1208.88 634.007L1202.66 621.17L1207.94 625.629L1209.02 624.818L1211.32 636.034L1217.27 644.547L1211.45 633.196L1211.72 627.791L1194.27 606.576L1190.08 599.954L1184.53 588.739L1180.74 579.279L1177.76 575.901L1177.09 571.577L1176.95 571.442L1167.61 570.901L1163.96 573.739L1161.93 584.144L1160.04 579.279L1096.17 587.252L1091.57 580.09L1091.71 579.955Z" fill="#B0CB1F"/>
<path d="M1190.48 744.949V744.814M1172.08 746.976V747.111M1171.81 747.111V746.976M1223.63 727.382L1223.5 727.247M1221.2 725.22L1221.06 725.085M1228.64 719.139H1228.5M1191.43 745.22H1191.16L1191.29 745.355L1191.43 745.22ZM1190.21 745.084V745.22H1190.35L1190.21 745.084ZM1170.59 747.111H1170.46V747.247L1170.59 747.111ZM1209.02 738.598H1208.88L1209.02 738.868V738.598ZM1212.67 737.652V737.382L1212.4 737.787L1212.67 737.652ZM1211.32 737.382L1210.78 736.841L1210.64 736.977L1211.32 737.382ZM1210.91 738.463L1209.29 736.436L1210.24 738.193L1210.91 738.463ZM1223.77 730.49V731.031L1224.04 730.761L1223.77 730.49ZM1225.66 729.139L1226.07 728.463L1225.53 729.004L1225.66 729.139ZM1226.07 727.788H1225.93V727.923L1226.07 727.788ZM1224.85 725.355L1224.71 725.22V725.491L1224.85 725.355ZM1225.8 722.112L1225.53 722.247L1225.93 722.383L1225.8 722.112ZM1226.34 722.112L1226.07 721.842L1226.2 722.247L1226.34 722.112ZM1225.39 721.842L1225.25 721.707V721.977L1225.39 721.842ZM1230.4 720.896V720.761L1230.13 721.301L1230.4 720.896ZM1224.71 721.437H1224.44L1224.71 721.572V721.437ZM1227.56 719.815H1227.15L1227.01 719.95L1227.56 719.815ZM1217.27 719.68V719.41L1217.14 719.68H1217.27ZM1218.49 719.275H1218.08L1218.49 720.085V719.275ZM1215.24 719.41V718.599L1214.57 718.734L1215.24 719.41ZM1213.35 718.058L1214.02 718.734V718.464L1213.35 718.058ZM1233.24 718.869L1230.8 719.95L1231.61 720.085L1233.24 718.869ZM1214.3 717.653H1213.48V717.923L1214.3 717.653ZM1235.67 710.896L1235.81 710.221L1235.94 708.464L1235.67 710.896ZM1235.81 703.329L1235.27 701.978L1235 702.518L1235.81 703.329ZM1204.55 706.707L1204.28 707.113L1204.96 707.248L1204.55 706.707ZM1201.98 705.491L1200.76 705.897L1201.71 706.032L1201.98 705.491ZM1199.28 705.762V705.356L1199.14 705.491L1199.28 705.762ZM1196.43 705.626L1195.62 706.167L1196.71 706.707L1196.43 705.626ZM1200.22 705.762L1200.09 705.356L1199.41 705.221L1200.22 705.762ZM1182.5 692.519L1181.69 692.924L1183.31 693.465L1182.5 692.519ZM1179.25 688.195L1178.17 686.573L1178.57 687.789L1179.25 688.195ZM1183.45 690.897L1181.55 686.573L1180.2 686.168L1183.45 690.897ZM1178.03 685.492L1177.63 684.411L1177.36 683.735L1178.03 685.492ZM1166.8 670.492L1164.37 668.736L1165.31 669.682L1166.8 670.492ZM1227.69 661.439L1217.81 644.953H1217.27L1227.69 661.439ZM1159.36 635.088L1158.96 634.953L1159.36 635.223V635.088ZM1158.55 634.142L1158.41 634.278L1158.55 634.413V634.142ZM1157.6 632.791V632.656L1157.47 632.791H1157.6ZM1158.14 632.251L1158.55 632.521V632.251H1158.14ZM1158.96 631.71L1158.41 631.845H1158.55L1158.96 631.71ZM1158.01 631.575L1157.6 631.169L1157.74 631.305L1158.01 631.575ZM1157.06 630.088H1156.79L1157.2 630.224L1157.06 630.088ZM1158.01 628.467H1157.47L1157.33 628.602L1158.01 628.467ZM1158.55 628.737L1157.87 628.061L1158.14 628.197L1158.55 628.737ZM1153.41 622.927L1153.14 622.791V622.927H1153.41ZM1147.59 622.927L1147.18 622.386L1147.32 623.062L1147.59 622.927ZM1098.34 618.467L1102.4 615.359L1097.93 618.332L1098.34 618.467ZM1106.46 611.981L1106.86 611.576L1105.24 612.251L1106.46 611.981ZM1055.04 602.927L1040.29 607.657L1048.41 605.36L1055.04 602.927ZM1091.71 579.955L1087.78 580.631L1029.33 590.09L1035.42 604.008L1035.83 604.143L1034.34 609.684L1038.67 607.792L1043.4 603.603L1051.52 603.333L1060.86 599.954L1067.22 600.9L1065.73 603.198L1077.37 607.116L1087.38 611.981L1089.68 617.386L1097.12 615.765L1114.71 601.441L1121.2 601.711L1147.72 621.71L1153.14 620.629L1158.82 628.197L1159.9 640.223L1158.14 647.791L1158.96 651.574L1163.69 661.033L1161.53 653.601L1167.61 653.466L1168.16 658.871L1164.91 667.249L1176.14 682.654L1180.33 682.789L1176.82 678.06L1181.15 678.6L1183.72 676.979L1182.63 685.627L1188.45 690.222L1192.38 700.762L1197.65 704.005L1204.42 705.762L1213.75 717.653L1218.63 720.22L1212.13 720.626L1215.11 724.004L1225.8 720.491L1231.07 717.518L1235.94 700.491L1233.51 674.006L1232.97 671.303L1219.98 649.682L1208.88 634.007L1202.66 621.17L1207.94 625.629L1209.02 624.818L1211.32 636.034L1217.27 644.547L1211.45 633.196L1211.72 627.791L1194.27 606.576L1190.08 599.954L1184.53 588.739L1180.74 579.279L1177.76 575.901L1177.09 571.577L1176.95 571.442L1167.61 570.901L1163.96 573.739L1161.93 584.144L1160.04 579.279L1096.17 587.252L1091.57 580.09L1091.71 579.955Z" stroke="#5D2A42" stroke-width="1.40251" stroke-linejoin="round"/>
<path fill-rule="evenodd" clip-rule="evenodd" d="M1179.12 551.442L1178.98 547.389L1178.03 550.902L1179.12 551.442ZM1180.6 545.226L1180.06 542.118L1179.66 544.01L1180.6 545.226ZM1117.28 460.094L1115.52 460.5L1110.38 461.581L1091.44 465.5L1089.68 465.905L1087.78 466.175L1077.23 468.202L1074.39 468.743L1062.89 470.905L1060.45 471.175L1060.59 471.445L1078.72 526.578L1088.73 544.416L1086.3 547.118L1084.81 557.658L1087.78 563.064L1088.06 572.928L1091.71 579.82V579.955L1091.57 580.09L1096.17 587.252L1160.04 579.279L1161.93 584.144L1163.96 573.739L1167.62 570.901L1176.95 571.442L1176.14 556.848L1177.9 553.74L1176.95 547.929L1178.85 542.389L1181.69 539.281L1179.66 537.389L1184.39 531.578H1184.26L1176.14 524.011L1165.04 508.201L1158.96 505.363L1132.84 483.472L1126.48 475.364L1114.17 470.229L1113.49 467.527L1117.28 460.094Z" fill="#B0CB1F" stroke="#5D2A42" stroke-width="1.40251" stroke-linejoin="round"/>
<path fill-rule="evenodd" clip-rule="evenodd" d="M999.158 616.44L998.482 616.575V616.71L999.158 616.44ZM1011.74 614.818H1009.85L1011.61 614.953L1011.74 614.818ZM996.046 616.17L995.505 616.71L995.64 616.845L996.046 616.17ZM1008.76 615.088H1003.62L1008.49 615.224L1008.76 615.088ZM952.342 486.309V486.444L946.659 495.904L947.201 503.201L939.488 511.714L941.518 514.146L936.376 535.767L938.812 540.361L937.459 541.307L937.594 544.28V545.226L940.706 552.523L940.435 556.983L945.442 563.063L935.158 580.63L933.535 591.17L930.693 595.36L932.588 600.224L930.829 601.981L977.509 596.846L975.886 603.332L981.839 614.953L984.951 618.872V618.737L989.957 613.061L1000.51 610.764L1010.25 611.845L1011.74 609.954V609.818L1004.84 568.198L1004.57 537.794L1003.76 482.39L1001.86 481.174L1001.32 480.093H1001.05L994.287 481.039L982.38 482.661L955.319 486.039L952.342 486.309Z" fill="#B0CB1F" stroke="#5D2A42" stroke-width="1.40251" stroke-linejoin="round"/>
<path fill-rule="evenodd" clip-rule="evenodd" d="M1117.28 460.094L1113.49 467.526L1114.17 470.229L1126.48 475.364L1132.84 483.472L1158.96 505.363L1165.05 508.201L1176.14 524.011L1184.26 531.578L1185.61 525.362L1183.45 519.416L1189.27 523.741L1192.51 521.173L1186.97 516.579L1193.73 516.173L1204.28 507.255L1203.07 504.957L1209.56 499.958L1208.88 497.525L1213.62 494.552L1213.89 487.661L1221.33 473.878L1226.34 467.526L1226.88 467.256L1196.71 448.203L1185.48 450.365L1170.19 449.824L1162.61 445.906L1117.69 460.094H1117.28Z" fill="#B0CB1F" stroke="#5D2A42" stroke-width="1.40251" stroke-linejoin="round"/>
<path fill-rule="evenodd" clip-rule="evenodd" d="M922.034 275.912L921.763 276.587L926.905 279.831L928.529 283.074L933.941 288.209L933.805 292.533L930.829 301.046L924.063 305.911L917.975 307.127L916.757 314.154L918.786 315.1L916.757 328.883L911.751 331.991L912.698 337.261L911.48 337.801L910.397 343.747L914.727 355.774L930.152 368.746L931.505 374.962L934.482 378.07L944.224 377.53L942.465 386.583L941.788 396.313L947.607 401.042L956.807 405.096L961.678 408.88L964.385 416.582L962.896 419.42L972.503 427.258L972.909 427.393L972.097 426.582L974.803 420.231L985.222 423.069L987.793 420.096L985.763 414.15L994.287 409.15L991.987 405.907L994.017 401.313V400.907L993.475 400.772L993.611 388.746L996.587 386.583L1001.73 374.557L1000.65 369.287L997.264 362.936L999.158 355.774L989.687 289.155L988.334 287.668L984.816 279.695L981.974 276.723L980.757 268.885V268.615L962.49 271.182L951.531 272.534L922.034 275.912Z" fill="#B0CB1F" stroke="#5D2A42" stroke-width="1.40251" stroke-linejoin="round"/>
<path fill-rule="evenodd" clip-rule="evenodd" d="M1045.98 278.749L1025.27 282.397L1020.54 283.343L1003.76 286.046L1000.24 288.884L994.966 291.316L992.937 291.181L990.501 289.965L989.689 289.154L999.161 355.773L997.267 362.935L1000.65 369.286L1001.73 374.556L996.59 386.583L993.613 388.745L993.478 400.771L994.019 400.907L994.56 400.771L996.59 396.988H1001.6L1007.69 394.961L1015.26 397.799L1016.07 394.691L1020.4 391.447L1026.9 392.393L1030.42 385.502L1040.02 386.313L1039.89 382.394L1048.41 371.178L1047.06 366.043L1053.01 365.908L1060.32 360.097L1058.56 353.476L1058.83 353.206L1058.56 350.908L1050.44 303.072L1046.79 282.668L1046.38 280.505L1045.98 278.749Z" fill="#B0CB1F" stroke="#5D2A42" stroke-width="1.40251" stroke-linejoin="round"/>
<path fill-rule="evenodd" clip-rule="evenodd" d="M966.28 441.581L965.875 440.5L965.063 440.23L964.521 441.987L964.657 442.122L966.145 441.987L966.28 441.581ZM1058.83 353.206L1058.56 353.476L1060.32 360.098L1053.01 365.908L1047.06 366.044L1048.41 371.179L1039.89 382.394L1040.02 386.313L1030.42 385.502L1026.9 392.394L1020.4 391.448L1016.07 394.691L1015.26 397.799L1007.68 394.961L1001.6 396.988H996.589L994.559 400.772L994.018 400.907V401.313L991.989 405.907L994.289 409.15L985.765 414.15L987.794 420.096L985.223 423.069L974.805 420.231L972.099 426.582L972.91 427.393L973.181 427.933L971.963 439.014L971.422 439.284L967.904 441.446L967.769 441.852L971.693 441.311L999.024 437.663L997.671 432.258L1002.27 432.122L1057.34 424.825L1096.04 418.339L1096.58 417.934L1097.53 416.853L1107.68 411.447L1115.52 401.177L1116.61 397.664L1121.75 393.61L1128.24 385.367L1129.19 384.016L1128.78 383.881H1125.4L1121.07 381.448L1113.36 372.124L1110.65 362.665V362.395L1110.38 362.125L1104.7 358.882L1102.13 354.557L1096.99 359.557L1093.74 360.368L1089.68 358.747L1086.16 361.449L1078.86 358.206L1076.96 359.017L1070.06 353.071L1066.54 351.314L1059.91 352.125L1058.83 353.206Z" fill="#B0CB1F" stroke="#5D2A42" stroke-width="1.40251" stroke-linejoin="round"/>
<path fill-rule="evenodd" clip-rule="evenodd" d="M1240.95 462.527L1239.47 464.013L1239.74 464.283L1240.95 462.527ZM1242.04 454.689L1241.36 455.77L1241.63 456.851L1242.04 454.689ZM1250.16 442.122L1248.13 443.473L1247.04 445.095L1250.16 442.122ZM1267.61 433.609L1266.8 433.068L1265.04 432.933L1267.61 433.609ZM1263.96 432.798H1262.74L1260.71 433.879L1263.96 432.798ZM1268.15 434.284L1272.07 424.555L1269.37 428.609L1268.15 434.284ZM1273.97 421.447L1275.73 418.879H1274.78L1273.97 421.447ZM1285.33 410.907L1282.36 395.907L1284.93 403.745L1285.33 410.907ZM1268.83 376.719L1268.56 376.854L1268.15 376.989H1268.29L1275.73 389.556L1281.55 395.367L1268.83 376.719ZM1266.39 377.53L1265.31 377.8L1265.58 377.935H1267.88L1267.61 377.124L1267.2 377.259H1266.8V377.53L1266.53 377.665L1266.39 377.53ZM1141.23 408.339L1140.56 410.366L1140.69 416.177L1139.2 416.042L1135.69 423.204L1131.76 423.609L1124.46 430.771L1121.21 429.555L1117.01 435.771L1105.92 445.77L1100.51 447.122L1094.82 452.392L1094.55 455.905L1089.55 458.608L1089.68 464.553V465.905L1091.44 465.499L1110.38 461.581L1115.53 460.499L1117.28 460.094H1117.69L1162.61 445.905L1170.19 449.824L1185.48 450.365L1196.71 448.203L1226.88 467.256L1227.42 466.851L1241.36 461.175L1241.5 453.743L1246.5 444.689L1251.91 439.554L1263.14 432.122L1264.63 429.42L1267.61 430.771L1268.96 421.852L1267.34 424.96L1261.66 426.852L1256.24 426.987L1262.87 422.123L1260.84 419.96L1263.14 415.096L1250.43 413.069L1249.88 412.393L1260.71 410.366L1264.23 412.123L1268.69 411.718L1272.35 409.015L1275.05 403.745L1277.49 403.069L1277.08 395.637L1273.97 392.664L1270.86 395.502L1271.53 402.664L1269.23 393.88L1267.47 393.475L1254.08 399.015L1260.03 393.205L1260.3 390.907L1266.53 389.421L1268.29 384.827L1272.48 387.259L1268.02 380.638L1264.9 377.935L1210.78 393.34L1176.28 402.123L1141.37 408.61L1141.23 408.339Z" fill="#B0CB1F" stroke="#5D2A42" stroke-width="1.40251" stroke-linejoin="round"/>
<path fill-rule="evenodd" clip-rule="evenodd" d="M1140.55 287.668L1137.17 273.074L1136.49 270.101L1132.71 253.48L1127.84 256.588L1117.42 264.561L1110.65 272.804L1105.37 273.615L1095.63 279.155L1090.22 275.912L1073.85 274.02L1065.19 276.182L1056.66 278.209L1047.73 280.101L1046.38 280.506L1046.79 282.668L1050.44 303.073L1058.56 350.909L1058.83 353.206L1059.91 352.125L1066.54 351.314L1070.06 353.071L1076.96 359.017L1078.85 358.206L1086.16 361.449L1089.68 358.747L1093.74 360.368L1096.99 359.557L1102.13 354.558L1104.7 358.882L1110.38 362.125L1110.65 362.395L1116.47 359.557L1118.5 355.098L1116.88 350.504L1121.48 343.477L1124.86 342.936L1124.45 336.991L1130 329.423L1130.95 330.504L1135.95 326.721L1140.28 320.234L1140.96 290.641L1141.23 290.506L1140.55 287.668Z" fill="#B0CB1F" stroke="#5D2A42" stroke-width="1.40251" stroke-linejoin="round"/>
<path fill-rule="evenodd" clip-rule="evenodd" d="M1096.04 418.339L1057.34 424.825L1002.27 432.122L997.67 432.257L999.023 437.663L971.692 441.311L967.768 441.852V441.987L966.685 443.338L966.144 443.203V442.122V441.987L964.656 442.122L964.791 442.257L965.603 446.041L962.897 449.419L962.626 455.635V456.716V456.851L958.567 464.689L959.379 470.229L955.59 476.175L956.943 481.58L952.072 486.039L952.343 486.31L955.32 486.039L982.381 482.661L994.288 481.04L1001.05 480.094H1001.32L1001.19 479.823L1023.92 476.715L1034.74 475.364L1056.39 471.851L1060.45 471.175L1062.89 470.905L1074.39 468.743L1077.23 468.202L1087.78 466.175L1089.68 465.905V464.554L1089.54 458.608L1094.55 455.905L1094.82 452.392L1100.5 447.122L1105.92 445.771L1117.01 435.771L1121.2 429.555L1124.45 430.771L1131.76 423.609L1135.68 423.204L1139.2 416.042L1140.69 416.177L1140.55 410.366L1141.23 408.339L1139.07 408.745L1131.35 410.907L1122.15 412.799L1099.01 417.528L1096.58 417.934L1096.04 418.339Z" fill="#B0CB1F" stroke="#5D2A42" stroke-width="1.40251" stroke-linejoin="round"/>
<path fill-rule="evenodd" clip-rule="evenodd" d="M1266.8 377.259H1267.21L1267.61 377.124L1267.34 376.448L1266.8 377.259ZM1262.2 362.124V362.8L1262.88 362.395L1262.2 362.124ZM1263.82 359.016L1263.55 360.773L1263.15 361.449L1263.82 359.016ZM1265.04 355.503L1265.18 354.692L1264.91 355.503H1265.04ZM1265.85 351.854L1266.26 350.908L1265.58 353.341L1265.85 351.854ZM1265.99 349.827L1266.53 346.855L1265.85 347.53L1265.99 349.827ZM1268.42 336.449L1268.7 335.233L1268.56 335.504L1268.42 336.449ZM1267.88 333.341L1266.12 334.017L1263.42 335.233L1262.47 336.449L1262.88 336.585L1259.63 356.719L1260.85 359.962L1262.74 351.584L1266.26 340.639L1267.88 333.477V333.341ZM1270.59 332.26L1270.18 332.396L1270.05 332.936L1269.37 337.125L1269.91 335.639L1270.59 332.26ZM1129.19 384.015L1128.25 385.367L1121.75 393.61L1116.61 397.664L1115.53 401.177L1107.68 411.447L1097.53 416.852L1096.59 417.933L1099.02 417.528L1122.16 412.798L1131.36 410.906L1139.07 408.744L1141.24 408.339L1141.37 408.609L1176.28 402.123L1210.78 393.339L1264.91 377.935L1264.5 377.259L1264.37 376.853L1265.31 377.799L1266.39 377.529L1266.26 377.394L1265.31 372.799L1265.99 372.935L1268.15 376.989L1268.56 376.853L1268.83 376.718L1268.29 375.637L1262.74 367.124L1255.84 368.34L1252.73 370.908L1249.75 368.205L1239.6 364.827L1232.57 364.556L1246.23 363.34L1253.81 368.475L1255.98 365.097L1249.89 357.395L1254.22 357.665L1251.92 351.449L1246.5 351.719L1233.65 341.314H1232.03L1250.16 350.233L1248.94 344.017L1250.16 341.99L1240.96 338.476L1232.97 337.936L1229.05 334.422L1225.8 336.449L1224.59 327.125L1225.94 327.396L1225.67 319.828L1225.4 319.558L1225.13 319.693L1224.86 319.558L1224.18 319.018L1223.77 318.612L1219.44 316.72L1214.98 313.477L1208.75 311.856L1208.35 311.72V311.856L1207.54 317.531L1194.95 312.126L1195.22 319.963L1188.32 333.071L1184.13 337.666L1181.42 345.638L1173.17 342.8L1169.11 361.178L1165.86 367.394L1165.32 375.502L1162.89 379.421L1153.82 382.123L1146.38 387.934L1142.86 388.475L1139.48 391.447L1130.95 388.339L1129.47 384.15L1129.19 384.015Z" fill="#B0CB1F"/>
<path d="M1264.64 357.395L1264.5 356.314M1266.8 377.259H1267.21L1267.61 377.124L1267.34 376.448L1266.8 377.259ZM1262.2 362.124V362.8L1262.88 362.395L1262.2 362.124ZM1263.82 359.016L1263.55 360.773L1263.15 361.449L1263.82 359.016ZM1265.04 355.503L1265.18 354.692L1264.91 355.503H1265.04ZM1265.85 351.854L1266.26 350.908L1265.58 353.341L1265.85 351.854ZM1265.99 349.827L1266.53 346.855L1265.85 347.53L1265.99 349.827ZM1268.42 336.449L1268.7 335.233L1268.56 335.504L1268.42 336.449ZM1267.88 333.341L1266.12 334.017L1263.42 335.233L1262.47 336.449L1262.88 336.585L1259.63 356.719L1260.85 359.962L1262.74 351.584L1266.26 340.639L1267.88 333.477V333.341ZM1270.59 332.26L1270.18 332.396L1270.05 332.936L1269.37 337.125L1269.91 335.639L1270.59 332.26ZM1129.19 384.015L1128.25 385.367L1121.75 393.61L1116.61 397.664L1115.53 401.177L1107.68 411.447L1097.53 416.852L1096.59 417.933L1099.02 417.528L1122.16 412.798L1131.36 410.906L1139.07 408.744L1141.24 408.339L1141.37 408.609L1176.28 402.123L1210.78 393.339L1264.91 377.935L1264.5 377.259L1264.37 376.853L1265.31 377.799L1266.39 377.529L1266.26 377.394L1265.31 372.799L1265.99 372.935L1268.15 376.989L1268.56 376.853L1268.83 376.718L1268.29 375.637L1262.74 367.124L1255.84 368.34L1252.73 370.908L1249.75 368.205L1239.6 364.827L1232.57 364.556L1246.23 363.34L1253.81 368.475L1255.98 365.097L1249.89 357.395L1254.22 357.665L1251.92 351.449L1246.5 351.719L1233.65 341.314H1232.03L1250.16 350.233L1248.94 344.017L1250.16 341.99L1240.96 338.476L1232.97 337.936L1229.05 334.422L1225.8 336.449L1224.59 327.125L1225.94 327.396L1225.67 319.828L1225.4 319.558L1225.13 319.693L1224.86 319.558L1224.18 319.018L1223.77 318.612L1219.44 316.72L1214.98 313.477L1208.75 311.856L1208.35 311.72V311.856L1207.54 317.531L1194.95 312.126L1195.22 319.963L1188.32 333.071L1184.13 337.666L1181.42 345.638L1173.17 342.8L1169.11 361.178L1165.86 367.394L1165.32 375.502L1162.89 379.421L1153.82 382.123L1146.38 387.934L1142.86 388.475L1139.48 391.447L1130.95 388.339L1129.47 384.15L1129.19 384.015Z" stroke="#5D2A42" stroke-width="1.40251" stroke-linejoin="round"/>
<path fill-rule="evenodd" clip-rule="evenodd" d="M983.872 187.672L980.49 191.861L978.46 197.942L979.407 201.32L983.872 187.672ZM906.207 155.917L908.236 153.079L906.748 154.43L906.207 155.917ZM909.319 151.457L908.642 150.646L907.154 151.592L909.319 151.457ZM879.822 159.025L876.71 162.538L878.198 178.754L869.539 186.591L867.915 194.158L872.651 198.483L871.298 217.131L876.304 220.914L879.551 221.184L889.835 227.4L896.329 234.157L904.583 238.346L906.477 248.751V249.427L910.401 254.156L909.319 257.805L910.672 265.777L914.731 271.318L922.173 275.237L922.037 275.912L951.534 272.534L962.494 271.183L980.76 268.615L980.219 266.588V260.237L976.566 253.481L975.619 244.967L977.378 235.508L976.43 228.211L979.678 219.158L978.46 217.671L978.731 209.293L980.49 202.942L978.46 200.78L974.536 202.131L972.371 207.807L967.23 210.779L968.853 203.618L973.454 197.537L973.724 194.834L973.86 194.699L967.365 188.213V179.024L960.058 173.078L950.046 172.402L939.763 169.7L917.572 162.943L913.243 160.511L912.837 160.916L905.936 159.97L903.636 161.322L904.583 151.457L893.488 157.133L879.957 159.295L879.822 159.025ZM906.342 151.863L906.071 150.917L905.124 151.322L906.342 151.863ZM901.471 150.917L901.877 150.106L901.606 149.836L901.471 150.917ZM911.348 148.619L910.942 146.728L910.536 149.025L911.348 148.619Z" fill="#B0CB1F" stroke="#5D2A42" stroke-width="1.40251" stroke-linejoin="round"/>
<path fill-rule="evenodd" clip-rule="evenodd" d="M1166.4 311.451L1147.19 316.18L1141.23 290.506L1140.96 290.641L1140.29 320.234L1135.96 326.721L1130.95 330.504L1130 329.423L1124.46 336.991L1124.86 342.936L1121.48 343.477L1116.88 350.504L1118.5 355.098L1116.47 359.557L1110.65 362.395V362.665L1113.36 372.124L1121.07 381.448L1125.4 383.881H1128.79L1129.19 384.016L1129.46 384.151L1130.95 388.34L1139.47 391.448L1142.86 388.475L1146.38 387.935L1153.82 382.124L1162.88 379.422L1165.32 375.503L1165.86 367.395L1169.11 361.179L1173.17 342.801L1181.42 345.639L1184.13 337.666L1188.32 333.072L1195.22 319.964L1194.95 312.127L1207.53 317.532L1208.35 311.856V311.721L1204.42 304.965L1196.3 304.019L1191.57 307.667V310.37L1187.51 311.316L1181.55 315.505L1178.44 316.181L1172.22 324.964L1169.11 310.775L1166.4 311.451Z" fill="#B0CB1F" stroke="#5D2A42" stroke-width="1.40251" stroke-linejoin="round"/>
<path fill-rule="evenodd" clip-rule="evenodd" d="M1245.96 289.154L1246.5 291.181L1257.73 323.207L1270.58 319.424L1270.45 319.153H1270.72L1271.13 319.289L1271.4 319.153L1271.13 318.613L1267.88 309.965L1252.05 294.965L1252.72 284.56H1249.48L1247.04 286.452L1245.96 289.154Z" fill="#B0CB1F" stroke="#5D2A42" stroke-width="1.40251" stroke-linejoin="round"/>
<path fill-rule="evenodd" clip-rule="evenodd" d="M1224.18 319.018L1224.85 319.559L1225.12 319.694L1225.39 319.559L1225.66 319.694L1226.61 320.234L1226.88 320.64V321.586L1227.15 322.126L1228.91 318.883L1227.02 317.802L1224.72 317.937L1224.18 319.018Z" fill="#B0CB1F" stroke="#5D2A42" stroke-width="1.40251" stroke-linejoin="round"/>
<path fill-rule="evenodd" clip-rule="evenodd" d="M1270.72 331.72L1271.67 324.423L1270.86 329.829L1270.32 332.126L1270.18 332.396L1270.59 332.261L1270.72 331.72ZM1271.4 319.153L1271.13 319.288L1271.4 320.099V321.721V319.153ZM1169.11 310.775L1172.22 324.964L1178.44 316.18L1181.56 315.505L1187.51 311.316L1191.57 310.37V307.667L1196.3 304.019L1204.42 304.965L1208.35 311.721L1208.75 311.856L1214.98 313.478L1219.44 316.721L1223.77 318.613L1224.18 319.018L1224.72 317.937L1227.02 317.802L1228.91 318.883L1227.15 322.126V322.261L1224.58 330.099L1232.97 335.504L1241.36 335.909L1246.91 338.477L1244.61 331.991L1237.44 329.558L1235.68 324.018L1240.14 329.964L1243.8 330.504L1240.55 327.261L1237.98 317.667L1238.65 312.127L1235.81 306.046L1238.79 303.613L1240.95 295.776L1240.14 307.397L1242.44 311.316L1244.61 306.721L1245.83 314.289L1243.53 319.829L1250.16 322.261L1244.47 324.153L1247.45 329.693L1252.32 331.315L1255.03 326.585L1254.76 333.207L1259.36 333.072L1262.33 336.45H1262.47L1263.42 335.234L1266.12 334.018L1267.88 333.342L1267.75 333.072L1271.26 322.667V322.261L1270.59 319.559V319.423L1257.73 323.207L1246.5 291.181L1245.96 289.154L1243.66 289.83L1234.05 292.803L1181.15 307.532L1171.54 310.099L1169.11 310.775Z" fill="#B0CB1F" stroke="#5D2A42" stroke-width="1.40251" stroke-linejoin="round"/>
<path fill-rule="evenodd" clip-rule="evenodd" d="M1278.02 288.615L1277.35 286.993V288.615H1278.02ZM1279.38 283.615L1279.78 279.561L1278.97 283.075L1279.38 283.615ZM1273.83 242.13L1259.62 238.617L1257.19 237.941L1254.89 237.401L1249.2 249.968L1251.64 252.94L1251.5 261.994L1254.07 262.4L1259.35 276.183L1259.08 276.588L1252.45 286.318L1253.13 293.75L1269.09 299.155L1269.23 305.371L1272.88 300.236L1273.42 292.804L1277.21 290.236L1275.72 284.696L1278.56 278.075V263.616L1277.62 258.886L1271.26 259.021L1272.88 252.535L1273.83 242.13Z" fill="#B0CB1F" stroke="#5D2A42" stroke-width="1.40251" stroke-linejoin="round"/>
<path fill-rule="evenodd" clip-rule="evenodd" d="M1273.43 253.074L1271.4 255.912L1270.86 256.722L1273.43 253.074ZM1292.1 246.452L1298.87 240.507V240.236L1292.1 246.452ZM1274.38 250.641V246.047L1273.97 248.479L1274.38 250.641ZM1305.77 229.021L1304.14 228.615L1303.87 229.831L1305.77 229.021ZM1309.42 226.588L1309.29 227.94L1309.56 227.129L1309.42 226.588ZM1305.63 226.723L1296.57 235.102L1282.63 241.047L1278.98 244.155L1278.71 247.128L1274.92 250.236L1275.46 254.29L1281.28 251.993L1289.8 245.101L1299.27 240.101L1313.62 226.588L1303.47 234.291L1300.22 235.642L1305.63 226.723ZM1309.83 221.048L1310.37 220.237L1308.75 222.129L1309.83 221.048ZM1157.74 216.048L1155.58 215.778L1157.2 217.94L1157.74 216.048ZM1202.67 174.698L1202.94 173.212L1201.85 174.563L1202.67 174.698ZM1203.34 164.969L1202.8 165.239L1202.12 166.726L1203.34 164.969ZM1146.11 241.723L1147.05 245.777L1154.23 247.534L1195.36 236.318L1236.76 223.886L1244.34 229.696L1245.83 233.075L1254.62 236.858L1254.89 237.399L1257.19 237.939L1259.63 238.615L1273.84 242.128L1273.57 241.453L1274.78 246.993L1277.49 246.317L1278.98 240.237V240.101L1276.54 237.804L1280.06 233.48L1278.44 231.453L1273.3 211.589L1273.02 210.238L1272.35 209.832L1271.94 203.886L1271.54 197.4L1271.13 190.373V189.968L1270.86 190.103L1264.09 167.942L1256.92 156.726L1254.89 143.348L1248.8 129.159L1247.99 129.565L1219.71 139.024L1214.03 145.105L1207.67 157.267L1207.94 159.969L1199.55 172.671L1204.69 174.428L1206.18 184.022L1200.23 191.86L1182.37 202.67L1178.99 201.319L1165.73 203.211L1153.41 210.643L1154.09 214.562L1158.42 218.345L1155.98 230.237L1146.24 241.588L1146.11 241.723Z" fill="#B0CB1F" stroke="#5D2A42" stroke-width="1.40251" stroke-linejoin="round"/>
<path fill-rule="evenodd" clip-rule="evenodd" d="M1254.62 236.86L1245.82 233.076L1244.33 229.698L1236.76 223.887L1195.35 236.319L1154.22 247.535L1147.05 245.779L1146.1 241.725L1143.8 243.481L1140.15 246.049L1133.52 252.805L1132.71 253.481L1136.49 270.102L1137.17 273.075L1140.55 287.669L1141.23 290.507L1147.18 316.181L1166.4 311.452L1169.1 310.776L1171.54 310.101L1181.14 307.533L1234.05 292.804L1243.66 289.831L1245.96 289.155L1247.04 286.453L1249.47 284.561H1252.72L1253.13 283.345L1258.4 277.399L1258.95 276.453L1259.35 276.183L1254.07 262.4L1251.5 261.994L1251.64 252.94L1249.2 249.968L1254.89 237.4L1254.62 236.86Z" fill="#B0CB1F" stroke="#5D2A42" stroke-width="1.40251" stroke-linejoin="round"/>
<path fill-rule="evenodd" clip-rule="evenodd" d="M1319.83 164.835H1319.7L1319.97 164.97L1319.83 164.835ZM1329.85 136.052L1328.76 134.43V135.241L1329.85 136.052ZM1327.95 134.565V133.214L1327.82 132.403L1327.95 134.565ZM1332.82 128.89L1332.55 128.755L1332.69 129.16L1332.82 128.89ZM1346.35 122.133L1346.08 120.106L1345.54 121.052L1346.35 122.133ZM1342.97 122.944L1343.11 121.458L1341.48 121.728L1342.97 122.944ZM1347.98 118.485H1347.44V118.755L1347.98 118.485ZM1341.21 120.512L1340 120.242L1339.86 121.458L1341.21 120.512ZM1348.11 116.323L1349.33 117.269L1348.93 116.188L1348.11 116.323ZM1344.46 116.458L1343.24 118.755L1344.87 117.944L1344.46 116.458ZM1338.64 116.593L1338.1 117.404L1338.51 118.62L1338.64 116.593ZM1346.63 112.134L1346.49 111.053L1346.08 111.728L1346.63 112.134ZM1345.95 112.674L1344.73 111.593V112.539L1345.95 112.674ZM1338.37 115.782L1338.1 114.296L1337.56 115.512L1338.37 115.782ZM1351.23 111.053L1349.2 114.026L1349.06 111.864L1351.23 111.053ZM1361.1 101.999L1360.16 100.648L1359.61 100.918L1361.1 101.999ZM1364.76 95.9181L1363.94 95.5127L1363.81 95.9181H1364.76ZM1366.52 85.378H1365.3L1366.65 85.7834L1366.52 85.378ZM1368.54 86.7293L1368.14 84.2969L1367.06 84.1618L1368.54 86.7293ZM1366.38 84.5672L1366.11 81.9997L1365.16 83.7564L1366.38 84.5672ZM1287.9 105.783L1307.52 151.727L1307.79 152.673L1316.32 163.078V162.943L1317.67 162.537L1317.94 154.835L1320.11 152.132L1321.46 144.97L1320.24 143.754L1322.54 136.727L1330.39 133.079L1335.53 126.863L1337.42 116.052L1345.68 115.512L1344.6 109.972L1354.88 106.053L1355.56 99.972L1357.99 100.512L1364.76 94.9722L1367.73 87.8103L1360.83 80.9186L1353.53 79.4322L1350.82 73.8918V70.6487L1346.35 72L1341.35 70.2433V64.703L1327.82 35.5148L1317.94 30.3799L1306.98 39.5687L1304 39.0282L1301.43 34.2987L1297.91 35.65L1292.91 60.5139L1294.67 68.6218L1296.16 85.1076L1292.23 97.8099L1294.94 99.8369L1291.69 106.053L1288.17 105.512L1287.9 105.783Z" fill="#B0CB1F" stroke="#5D2A42" stroke-width="1.40251" stroke-linejoin="round"/>
<path fill-rule="evenodd" clip-rule="evenodd" d="M1003.62 192.4L1002.95 191.319L1002.81 192.671L1003.62 192.4ZM1005.79 189.968L1004.17 187.806L1003.9 188.752L1005.79 189.968ZM1007.14 180.239L1005.79 179.022V179.293L1007.14 180.239ZM1003.76 286.046L1020.54 283.343L1025.27 282.397L1045.98 278.749L1046.38 280.505L1047.73 280.1L1056.66 278.208L1065.19 276.181L1073.85 274.019L1073.71 273.614L1078.18 264.83L1077.77 257.533L1082.78 244.966L1086.7 247.263L1088.19 244.425L1087.78 233.615L1084.13 226.859L1078.72 212.535L1073.98 207.265L1071.55 206.589L1062.75 212.67L1063.7 213.886L1059.1 222.534L1054.63 221.724L1053.28 212.67L1055.18 211.994L1059.1 202.94L1059.51 186.995L1053.42 173.482L1039.89 171.185L1038.53 169.158L1025.95 165.509L1020.27 172.536L1020.81 178.617L1016.48 184.022L1017.43 192.4L1013.23 195.373V184.833L1009.44 192.806L1004.98 199.832L1002 202.13L1003.49 209.562L1001.59 217.264L1002.68 226.859L1001.32 231.588L1011.07 250.236L1012.28 257.398L1011.07 270.641L1004.57 285.505L1003.76 286.046ZM1032.72 164.293L1029.2 164.563L1031.36 166.185L1032.72 164.293ZM1012.15 167.807H1011.07L1012.28 168.347L1012.15 167.807ZM1035.83 150.645L1034.47 148.483L1033.93 148.618L1035.83 150.645ZM913.24 160.509L917.57 162.942L939.76 169.698L950.043 172.401L960.056 173.077L967.363 179.022V188.211L973.857 194.697V194.562L979.134 179.293L985.494 174.833L990.365 169.428L991.176 174.293L996.183 166.59L1008.23 161.996L1009.17 160.104L1021.35 161.59L1026.09 164.023L1028.39 158.077L1030.55 159.428L1040.02 157.942L1037.72 154.158L1033.53 151.726L1034.34 142.942L1026.09 147.537L1018.51 146.591L1016.07 140.78L1016.88 138.889L1006.6 143.753L999.971 144.159L988.064 151.456L986.711 154.158L979.405 152.402L974.804 154.429L965.604 146.456L945.172 140.24L944.766 137.808L931.642 150.375L924.2 152.266L913.646 160.239L913.24 160.509ZM961.139 129.835L945.308 137.672L950.585 142.807L952.614 137.672L958.026 131.051L961.139 129.835ZM943.413 111.322L932.589 118.754L932.048 122.403L940.572 116.187L943.413 111.322Z" fill="#B0CB1F" stroke="#5D2A42" stroke-width="1.40251" stroke-linejoin="round"/>
<path fill-rule="evenodd" clip-rule="evenodd" d="M141.184 755.894L140.508 756.164L141.049 756.299L141.184 755.894ZM143.755 754.408V754.813L144.026 754.678L143.755 754.408ZM145.108 755.083V754.813L144.973 754.948L145.108 755.083ZM144.838 754.813V754.678H144.567L144.838 754.813ZM39.2991 666.032L39.1637 666.978L39.4344 669.681L39.2991 666.032ZM38.6225 662.384L38.7578 663.6L38.8931 663.195L38.6225 662.384ZM144.838 753.191L144.973 752.381L144.432 752.651L144.838 753.191ZM160.263 759.813L160.127 759.678L160.398 760.218L160.263 759.813ZM150.25 755.083L148.762 753.732V756.975L150.25 755.083ZM153.633 758.056L153.497 757.11L151.197 756.975L153.633 758.056ZM161.751 759.948L161.616 760.218H161.886L161.751 759.948ZM162.292 760.083H162.022L162.563 760.218L162.292 760.083ZM163.916 760.624H163.781H163.645H163.916ZM44.4407 669.005L44.9819 669.14L45.3878 669.005H44.4407ZM160.939 758.732L159.857 758.597L160.263 759.002L160.939 758.732ZM37.1342 658.465L35.2399 657.654L35.1046 658.06L37.1342 658.465ZM164.322 759.002L164.051 758.867V759.002H164.322ZM172.575 760.624L167.299 761.029L166.081 761.57L172.575 760.624ZM27.5274 637.25H26.0391L26.3097 637.655L27.5274 637.25ZM188.947 766.84V766.299H188.677L188.947 766.84ZM195.983 766.975L196.254 766.705L195.983 766.434V766.975ZM201.26 768.461L201.531 768.326H201.396L201.26 768.461ZM196.931 766.029L196.795 765.488H196.525L196.931 766.029ZM205.996 768.056L205.861 768.191H205.996V768.056ZM28.3393 630.358L26.3097 630.628L28.8805 632.926L28.3393 630.358ZM198.825 766.029L199.095 765.218H198.96L198.825 766.029ZM221.692 764.002L221.827 763.732L221.556 763.596L221.692 764.002ZM218.309 762.786L213.573 766.975L216.956 766.705L220.88 763.597L218.309 762.786ZM226.833 764.272L225.886 764.002L226.563 764.542L226.833 764.272ZM228.727 764.407L227.239 764.002L226.968 764.137L228.727 764.407ZM223.586 762.516H222.097L224.668 763.191L223.586 762.516ZM229.81 763.867L229.675 763.597L229.133 763.732L229.81 763.867ZM225.751 762.245L225.21 761.975V763.461L225.751 762.245ZM243.07 765.624L242.935 765.488H242.664L243.07 765.624ZM243.34 765.488V765.353L243.07 765.218L243.34 765.488ZM241.04 764.678L241.311 765.218V765.083L241.04 764.678ZM242.258 764.678L241.04 764.272L242.529 765.353L242.258 764.678ZM260.118 765.353L259.848 764.813H259.712L260.118 765.353ZM405.708 756.3L405.437 756.029L405.572 756.3H405.708ZM241.717 760.489V760.353L241.581 760.489H241.717ZM409.632 753.867L410.038 754.408H410.308L409.632 753.867ZM261.742 764.002L261.607 764.137V764.543L261.742 764.002ZM244.964 761.57L245.235 760.489H245.099L244.964 761.57ZM417.479 750.759L416.262 751.435L417.344 751.975L417.479 750.759ZM237.252 757.921L233.869 758.597L230.892 762.516L237.252 757.921ZM261.471 763.056L260.66 763.732L261.471 763.596V763.056ZM417.479 750.084L417.209 749.543L417.073 749.813L417.479 750.084ZM248.482 759.543L247.535 759.408L248.482 760.353V759.543ZM408.549 751.84L408.279 752.11L408.549 753.056V751.84ZM250.647 759.408L250.241 759.543L250.782 759.948L250.647 759.408ZM260.66 762.245H260.254L259.983 761.975L260.66 762.245ZM249.565 759.408L248.888 759.002L249.159 759.408H249.565ZM258.63 760.894L257.412 761.299L256.6 763.461L258.63 760.894ZM405.572 751.435V752.381L406.114 751.705L405.572 751.435ZM242.664 756.57L243.746 756.3H243.611L242.664 756.57ZM241.311 755.759L241.04 755.489V755.624L241.311 755.759ZM405.572 750.489L405.302 750.354L405.166 750.759L405.572 750.489ZM257.142 758.597L256.871 758.462L256.6 758.867L257.142 758.597ZM404.219 750.759L404.355 750.084L404.084 749.948L404.219 750.759ZM403.137 750.084L402.731 750.624L403.408 750.759L403.137 750.084ZM262.825 756.705L262.554 756.435H262.419L262.825 756.705ZM402.731 747.651L403.813 748.057L404.219 747.516L402.731 747.651ZM404.355 746.705L403.949 746.976L404.625 747.381L404.355 746.705ZM401.243 747.516L400.972 746.976L400.701 747.246L401.243 747.516ZM414.773 742.516L413.014 747.516L414.773 746.435V742.516ZM402.866 744.408L401.649 745.624L401.919 746.976L402.866 744.408ZM276.896 755.218V754.678L276.761 754.948L276.896 755.218ZM401.378 743.057L405.302 749.003L414.097 754.543L412.067 749.813L403.678 742.651L401.378 743.057ZM271.484 753.056L271.349 752.651L271.078 752.786L271.484 753.056ZM405.978 740.76L405.437 742.787L406.384 742.111L405.978 740.76ZM408.82 740.76L408.684 742.111L409.902 742.516L408.82 740.76ZM275.814 751.3L275.137 751.164L274.461 751.435L275.814 751.3ZM289.75 752.381L289.209 753.327L289.48 752.516L289.75 752.381ZM291.78 752.516L290.562 752.651L291.239 753.462L291.78 752.516ZM209.785 735.219L211.138 735.895L210.867 735.625L209.785 735.219ZM263.907 748.462H264.042V748.327L263.907 748.462ZM403.813 738.057L404.49 740.624L405.843 739.814L403.813 738.057ZM397.995 739.138L398.672 745.354L400.025 744.003L397.995 739.138ZM398.672 737.111L401.784 741.435L401.378 738.597L398.672 737.111ZM389.065 738.192L388.253 740.76L389.336 739.003L389.065 738.192ZM293.674 745.084L293.404 744.678L293.674 745.219V745.084ZM389.336 736.165L394.748 745.084L393.936 739.003L389.336 736.165ZM301.251 740.895L300.846 741.3L301.522 741.57L301.251 740.895ZM299.492 741.165L299.628 740.76H299.087L299.492 741.165ZM298.139 741.165L294.621 743.462L290.292 749.138L292.457 751.435L302.469 744.003L298.139 741.165ZM383.518 732.381L382.57 731.841V732.652L383.518 732.381ZM297.328 739.543L297.463 740.084L298.41 740.624L297.328 739.543ZM386.088 729.814L383.382 731.165L385.953 731.976L386.088 729.814ZM384.329 729.814L384.059 729.544L383.923 729.814H384.329ZM392.583 727.652L391.501 727.247L391.23 728.057L392.583 727.652ZM386.765 728.598L385.818 728.463V728.733L386.765 728.598ZM389.742 727.517L395.289 735.625L393.801 728.192L389.742 727.517ZM300.44 736.3L297.192 738.733L298.681 740.354L303.01 737.111L300.44 736.3ZM263.636 731.165L263.501 731.03V731.165H263.636ZM262.148 730.49L262.013 729.814V730.084L262.148 730.49ZM303.687 732.246L303.416 732.381V732.517L303.687 732.246ZM302.334 731.976H302.199L301.928 732.381L302.334 731.976ZM305.581 730.895L305.175 730.625V730.76L305.581 730.895ZM306.664 730.76L306.258 730.49V730.625L306.664 730.76ZM304.905 730.354H304.363V730.49L304.905 730.354ZM331.831 727.652L331.966 727.247L331.695 727.517L331.831 727.652ZM340.084 723.328L341.708 721.301L341.167 721.706L340.084 723.328ZM323.577 723.057L324.118 722.652L324.254 722.112L323.577 723.057ZM323.577 721.571L323.036 721.976L323.983 721.706L323.577 721.571ZM301.387 721.571L301.251 721.03H301.116L301.387 721.571ZM323.036 721.436L322.494 721.976L322.224 722.517L323.036 721.436ZM337.919 719.814H338.055H338.19H337.919ZM338.596 719.814L338.325 719.679V719.814H338.596ZM336.972 719.679L337.108 719.814V719.679H336.972ZM325.877 720.49L326.418 719.949L325.742 720.49H325.877ZM327.501 719.274L324.253 724.544L328.448 719.679L327.501 719.274ZM323.306 719.949L322.9 719.409L322.765 719.679L323.306 719.949ZM333.59 718.733L333.319 718.598L333.454 718.733H333.59ZM337.108 719.003V718.057L336.837 718.463L337.108 719.003ZM237.793 708.598L231.298 708.328L235.763 713.058L237.793 708.598ZM330.207 718.193L330.478 719.139L331.154 718.057L330.207 718.193ZM324.795 718.057L324.389 721.03L325.065 719.139L324.795 718.057ZM323.442 716.166L323.577 716.571L323.848 716.436L323.442 716.166ZM322.765 716.706L322.494 715.895L322.089 716.166L322.765 716.706ZM329.124 715.085V714.544L328.719 714.814L329.124 715.085ZM323.036 714.274V715.625L323.442 714.679L323.036 714.274ZM242.123 695.896L242.393 695.085L242.258 695.22L242.123 695.896ZM242.529 694.545L242.393 694.41L242.258 694.545H242.529ZM251.729 687.518L251.188 687.248V687.383L251.729 687.518ZM250.918 686.978V686.707L250.647 686.978H250.918ZM229.269 680.626L228.998 679.951L228.863 679.545L229.269 680.626ZM231.298 678.194H231.434L231.569 678.329L231.298 678.194ZM227.645 677.518L226.563 676.167L227.374 677.248L227.645 677.518ZM225.48 675.356H225.21L225.615 675.491L225.48 675.356ZM261.336 684.41L259.848 684.545L260.66 684.951L261.336 684.41ZM223.992 671.302L222.909 675.356L226.292 675.897L230.757 680.491L233.463 679.275L223.992 671.302ZM247.67 672.924V672.654V672.789V672.924ZM240.905 658.6L240.634 658.465L240.77 658.6H240.905ZM244.829 659.951L245.235 659.816H245.099L244.829 659.951ZM247.535 659.141H247.941L249.159 658.6L247.535 659.141ZM252.406 657.654L252.677 657.384L252.271 657.654H252.406ZM253.083 657.519L253.894 657.114L253.218 657.249L253.083 657.519ZM255.112 656.708L254.436 656.843V656.979L255.112 656.708ZM341.979 632.25L341.437 631.844L340.49 631.439L341.979 632.25ZM271.078 629.277L272.296 627.655L271.619 628.196L271.078 629.277ZM272.702 627.385L273.243 626.574L272.973 626.844L272.702 627.385ZM273.514 626.304L274.461 625.493L273.92 625.763L273.514 626.304ZM316.135 626.574L316.812 627.25H317.218L316.135 626.574ZM294.351 617.656L288.803 622.25L285.421 621.304L277.573 625.763L276.085 624.817L267.154 634.817L258.089 636.844L258.901 641.709L262.96 647.249L270.537 654.546L269.319 657.384L275.002 659.816L272.025 660.357L268.372 657.519L270.266 661.708L267.831 663.194L260.118 656.168L254.03 657.249L243.611 661.167L248.347 666.438L247.67 669.681L250.782 673.464L261.066 677.518L268.507 673.735L269.725 676.572L267.696 685.086H261.471L254.165 688.329L253.759 686.031L249.97 687.518L248.212 691.437L241.987 696.166V703.058L244.423 704.139L242.529 709.949L250.647 716.976L255.789 714.814L254.706 723.463L256.195 725.354L262.419 726.706L264.719 729.273L270.131 729.679L272.702 732.381L278.249 730.76L275.679 734.273L273.649 741.435L257.142 752.11L254.977 754.272L251.865 753.056L246.858 754.272L239.687 759.002L250.918 755.759L252.541 758.191L267.019 753.461L267.425 755.353L273.108 749.678L285.015 741.435L285.962 741.975L296.38 733.732L293.674 730.489L297.192 724.679L306.393 713.733L313.429 712.382L315.594 713.868L307.07 716.301L304.769 725.354L305.04 730.219L308.017 729.949L322.359 721.3L323.442 718.057L322.224 713.057L326.554 714.139L329.666 712.112L338.596 717.517L337.919 719.003L358.215 721.571L362.951 720.084L364.304 722.111L381.894 730.489L384.871 728.733L385.141 718.598L387.441 723.192L398.807 731.435L399.754 734.813L409.632 740.354L412.202 747.516L414.638 741.975L419.644 751.705L423.027 746.164L420.321 739.273L409.902 738.192L393.936 722.922L385.277 716.571L378.647 723.057H374.723L365.657 717.111L356.727 716.706L344.008 636.574L341.843 632.79L336.702 629.682L328.989 631.169L323.036 629.952L315.459 626.979L307.476 627.52L305.446 623.736L299.087 622.79L298.004 620.493L295.163 623.736L294.351 617.656Z" fill="#B0CB1F"/>
<path d="M146.191 756.705V756.84M142.538 753.732V753.597M244.017 763.326V763.461M247.4 760.894L247.264 760.624M254.436 752.921H254.3M263.501 748.597L263.636 748.462M267.56 746.976L267.696 746.84M280.82 744.813L280.685 744.678M207.349 695.626L207.484 695.085M312.752 712.652V712.247M248.482 691.302V691.166M248.482 690.761L248.347 690.491M250.918 687.248H250.782M225.751 673.87L225.48 673.735M141.184 755.894L140.508 756.164L141.049 756.299L141.184 755.894ZM143.755 754.408V754.813L144.026 754.678L143.755 754.408ZM145.108 755.083V754.813L144.973 754.948L145.108 755.083ZM144.838 754.813V754.678H144.567L144.838 754.813ZM39.2991 666.032L39.1637 666.978L39.4344 669.681L39.2991 666.032ZM38.6225 662.384L38.7578 663.6L38.8931 663.195L38.6225 662.384ZM144.838 753.191L144.973 752.381L144.432 752.651L144.838 753.191ZM160.263 759.813L160.127 759.678L160.398 760.218L160.263 759.813ZM150.25 755.083L148.762 753.732V756.975L150.25 755.083ZM153.633 758.056L153.497 757.11L151.197 756.975L153.633 758.056ZM161.751 759.948L161.616 760.218H161.886L161.751 759.948ZM162.292 760.083H162.022L162.563 760.218L162.292 760.083ZM163.916 760.624H163.781H163.645H163.916ZM44.4407 669.005L44.9819 669.14L45.3878 669.005H44.4407ZM160.939 758.732L159.857 758.597L160.263 759.002L160.939 758.732ZM37.1342 658.465L35.2399 657.654L35.1046 658.06L37.1342 658.465ZM164.322 759.002L164.051 758.867V759.002H164.322ZM172.575 760.624L167.299 761.029L166.081 761.57L172.575 760.624ZM27.5274 637.25H26.0391L26.3097 637.655L27.5274 637.25ZM188.947 766.84V766.299H188.677L188.947 766.84ZM195.983 766.975L196.254 766.705L195.983 766.434V766.975ZM201.26 768.461L201.531 768.326H201.396L201.26 768.461ZM196.931 766.029L196.795 765.488H196.525L196.931 766.029ZM205.996 768.056L205.861 768.191H205.996V768.056ZM28.3393 630.358L26.3097 630.628L28.8805 632.926L28.3393 630.358ZM198.825 766.029L199.095 765.218H198.96L198.825 766.029ZM221.692 764.002L221.827 763.732L221.556 763.596L221.692 764.002ZM218.309 762.786L213.573 766.975L216.956 766.705L220.88 763.597L218.309 762.786ZM226.833 764.272L225.886 764.002L226.563 764.542L226.833 764.272ZM228.727 764.407L227.239 764.002L226.968 764.137L228.727 764.407ZM223.586 762.516H222.097L224.668 763.191L223.586 762.516ZM229.81 763.867L229.675 763.597L229.133 763.732L229.81 763.867ZM225.751 762.245L225.21 761.975V763.461L225.751 762.245ZM243.07 765.624L242.935 765.488H242.664L243.07 765.624ZM243.34 765.488V765.353L243.07 765.218L243.34 765.488ZM241.04 764.678L241.311 765.218V765.083L241.04 764.678ZM242.258 764.678L241.04 764.272L242.529 765.353L242.258 764.678ZM260.118 765.353L259.848 764.813H259.712L260.118 765.353ZM405.708 756.3L405.437 756.029L405.572 756.3H405.708ZM241.717 760.489V760.353L241.581 760.489H241.717ZM409.632 753.867L410.037 754.408H410.308L409.632 753.867ZM261.742 764.002L261.607 764.137V764.543L261.742 764.002ZM244.964 761.57L245.235 760.489H245.099L244.964 761.57ZM417.479 750.759L416.262 751.435L417.344 751.975L417.479 750.759ZM237.252 757.921L233.869 758.597L230.892 762.516L237.252 757.921ZM261.471 763.056L260.66 763.732L261.471 763.596V763.056ZM417.479 750.084L417.209 749.543L417.073 749.813L417.479 750.084ZM248.482 759.543L247.535 759.408L248.482 760.353V759.543ZM408.549 751.84L408.278 752.11L408.549 753.056V751.84ZM250.647 759.408L250.241 759.543L250.782 759.948L250.647 759.408ZM260.66 762.245H260.254L259.983 761.975L260.66 762.245ZM249.565 759.408L248.888 759.002L249.159 759.408H249.565ZM258.63 760.894L257.412 761.299L256.6 763.461L258.63 760.894ZM405.572 751.435V752.381L406.114 751.705L405.572 751.435ZM242.664 756.57L243.746 756.3H243.611L242.664 756.57ZM241.311 755.759L241.04 755.489V755.624L241.311 755.759ZM405.572 750.489L405.302 750.354L405.166 750.759L405.572 750.489ZM257.142 758.597L256.871 758.462L256.6 758.867L257.142 758.597ZM404.219 750.759L404.355 750.084L404.084 749.948L404.219 750.759ZM403.137 750.084L402.731 750.624L403.407 750.759L403.137 750.084ZM262.825 756.705L262.554 756.435H262.419L262.825 756.705ZM402.731 747.651L403.813 748.057L404.219 747.516L402.731 747.651ZM404.355 746.705L403.949 746.976L404.625 747.381L404.355 746.705ZM401.243 747.516L400.972 746.976L400.701 747.246L401.243 747.516ZM414.773 742.516L413.014 747.516L414.773 746.435V742.516ZM402.866 744.408L401.649 745.624L401.919 746.976L402.866 744.408ZM276.896 755.218V754.678L276.761 754.948L276.896 755.218ZM401.378 743.057L405.302 749.003L414.097 754.543L412.067 749.813L403.678 742.651L401.378 743.057ZM271.484 753.056L271.349 752.651L271.078 752.786L271.484 753.056ZM405.978 740.76L405.437 742.787L406.384 742.111L405.978 740.76ZM408.82 740.76L408.684 742.111L409.902 742.516L408.82 740.76ZM275.814 751.3L275.137 751.164L274.461 751.435L275.814 751.3ZM289.75 752.381L289.209 753.327L289.48 752.516L289.75 752.381ZM291.78 752.516L290.562 752.651L291.239 753.462L291.78 752.516ZM209.785 735.219L211.138 735.895L210.867 735.625L209.785 735.219ZM263.907 748.462H264.042V748.327L263.907 748.462ZM403.813 738.057L404.49 740.624L405.843 739.814L403.813 738.057ZM397.995 739.138L398.672 745.354L400.025 744.003L397.995 739.138ZM398.672 737.111L401.784 741.435L401.378 738.597L398.672 737.111ZM389.065 738.192L388.253 740.76L389.336 739.003L389.065 738.192ZM293.674 745.084L293.404 744.678L293.674 745.219V745.084ZM389.336 736.165L394.748 745.084L393.936 739.003L389.336 736.165ZM301.251 740.895L300.846 741.3L301.522 741.57L301.251 740.895ZM299.492 741.165L299.628 740.76H299.087L299.492 741.165ZM298.139 741.165L294.621 743.462L290.292 749.138L292.457 751.435L302.469 744.003L298.139 741.165ZM383.518 732.381L382.57 731.841V732.652L383.518 732.381ZM297.328 739.543L297.463 740.084L298.41 740.624L297.328 739.543ZM386.088 729.814L383.382 731.165L385.953 731.976L386.088 729.814ZM384.329 729.814L384.059 729.544L383.923 729.814H384.329ZM392.583 727.652L391.501 727.247L391.23 728.057L392.583 727.652ZM386.765 728.598L385.818 728.463V728.733L386.765 728.598ZM389.742 727.517L395.289 735.625L393.801 728.192L389.742 727.517ZM300.44 736.3L297.192 738.733L298.681 740.354L303.01 737.111L300.44 736.3ZM263.636 731.165L263.501 731.03V731.165H263.636ZM262.148 730.49L262.013 729.814V730.084L262.148 730.49ZM303.687 732.246L303.416 732.381V732.517L303.687 732.246ZM302.334 731.976H302.199L301.928 732.381L302.334 731.976ZM305.581 730.895L305.175 730.625V730.76L305.581 730.895ZM306.664 730.76L306.258 730.49V730.625L306.664 730.76ZM304.905 730.354H304.364V730.49L304.905 730.354ZM331.831 727.652L331.966 727.247L331.695 727.517L331.831 727.652ZM340.084 723.328L341.708 721.301L341.167 721.706L340.084 723.328ZM323.577 723.057L324.118 722.652L324.254 722.112L323.577 723.057ZM323.577 721.571L323.036 721.976L323.983 721.706L323.577 721.571ZM301.387 721.571L301.251 721.03H301.116L301.387 721.571ZM323.036 721.436L322.494 721.976L322.224 722.517L323.036 721.436ZM337.919 719.814H338.055H338.19H337.919ZM338.596 719.814L338.325 719.679V719.814H338.596ZM336.972 719.679L337.108 719.814V719.679H336.972ZM325.877 720.49L326.418 719.949L325.742 720.49H325.877ZM327.501 719.274L324.253 724.544L328.448 719.679L327.501 719.274ZM323.306 719.949L322.9 719.409L322.765 719.679L323.306 719.949ZM333.59 718.733L333.319 718.598L333.454 718.733H333.59ZM337.108 719.003V718.057L336.837 718.463L337.108 719.003ZM237.793 708.598L231.298 708.328L235.763 713.058L237.793 708.598ZM330.207 718.193L330.478 719.139L331.154 718.057L330.207 718.193ZM324.795 718.057L324.389 721.03L325.065 719.139L324.795 718.057ZM323.442 716.166L323.577 716.571L323.848 716.436L323.442 716.166ZM322.765 716.706L322.494 715.895L322.089 716.166L322.765 716.706ZM329.124 715.085V714.544L328.719 714.814L329.124 715.085ZM323.036 714.274V715.625L323.442 714.679L323.036 714.274ZM242.123 695.896L242.393 695.085L242.258 695.22L242.123 695.896ZM242.529 694.545L242.393 694.41L242.258 694.545H242.529ZM251.729 687.518L251.188 687.248V687.383L251.729 687.518ZM250.918 686.978V686.707L250.647 686.978H250.918ZM229.269 680.626L228.998 679.951L228.863 679.545L229.269 680.626ZM231.298 678.194H231.434L231.569 678.329L231.298 678.194ZM227.645 677.518L226.563 676.167L227.374 677.248L227.645 677.518ZM225.48 675.356H225.21L225.615 675.491L225.48 675.356ZM261.336 684.41L259.848 684.545L260.66 684.951L261.336 684.41ZM223.992 671.302L222.909 675.356L226.292 675.897L230.757 680.491L233.463 679.275L223.992 671.302ZM247.67 672.924V672.654V672.789V672.924ZM240.905 658.6L240.634 658.465L240.77 658.6H240.905ZM244.829 659.951L245.235 659.816H245.099L244.829 659.951ZM247.535 659.141H247.941L249.159 658.6L247.535 659.141ZM252.406 657.654L252.677 657.384L252.271 657.654H252.406ZM253.083 657.519L253.894 657.114L253.218 657.249L253.083 657.519ZM255.112 656.708L254.436 656.843V656.979L255.112 656.708ZM341.979 632.25L341.437 631.844L340.49 631.439L341.979 632.25ZM271.078 629.277L272.296 627.655L271.619 628.196L271.078 629.277ZM272.702 627.385L273.243 626.574L272.973 626.844L272.702 627.385ZM273.514 626.304L274.461 625.493L273.92 625.763L273.514 626.304ZM316.135 626.574L316.812 627.25H317.218L316.135 626.574ZM294.351 617.656L288.803 622.25L285.421 621.304L277.573 625.763L276.085 624.817L267.154 634.817L258.089 636.844L258.901 641.709L262.96 647.249L270.537 654.546L269.319 657.384L275.002 659.816L272.025 660.357L268.372 657.519L270.266 661.708L267.831 663.194L260.118 656.168L254.03 657.249L243.611 661.167L248.347 666.438L247.67 669.681L250.782 673.464L261.066 677.518L268.507 673.735L269.725 676.572L267.696 685.086H261.471L254.165 688.329L253.759 686.031L249.97 687.518L248.212 691.437L241.987 696.166V703.058L244.423 704.139L242.529 709.949L250.647 716.976L255.789 714.814L254.706 723.463L256.195 725.354L262.419 726.706L264.719 729.273L270.131 729.679L272.702 732.381L278.249 730.76L275.679 734.273L273.649 741.435L257.142 752.11L254.977 754.272L251.865 753.056L246.858 754.272L239.687 759.002L250.918 755.759L252.541 758.191L267.019 753.461L267.425 755.353L273.108 749.678L285.015 741.435L285.962 741.975L296.38 733.732L293.674 730.489L297.192 724.679L306.393 713.733L313.429 712.382L315.594 713.868L307.07 716.301L304.769 725.354L305.04 730.219L308.017 729.949L322.359 721.3L323.442 718.057L322.224 713.057L326.554 714.139L329.666 712.112L338.596 717.517L337.919 719.003L358.215 721.571L362.951 720.084L364.304 722.111L381.894 730.489L384.871 728.733L385.141 718.598L387.441 723.192L398.807 731.435L399.754 734.813L409.632 740.354L412.202 747.516L414.638 741.975L419.644 751.705L423.027 746.164L420.321 739.273L409.902 738.192L393.936 722.922L385.277 716.571L378.647 723.057H374.723L365.657 717.111L356.727 716.706L344.008 636.574L341.843 632.79L336.702 629.682L328.989 631.169L323.036 629.952L315.459 626.979L307.476 627.52L305.446 623.736L299.087 622.79L298.004 620.493L295.163 623.736L294.351 617.656Z" stroke="#5D2A42" stroke-width="1.40251" stroke-linejoin="round"/>
</svg>
