<svg xmlns="http://www.w3.org/2000/svg" viewBox="0 0 32 32" fill="white">
  <path d="M16 1C7.716 1 1 7.715 1 16c0 3.106 1.073 6.142 2.999 8.573L2 31l7.001-1.999C11.855 30.215 13.943 31 16 31c8.284 0 15-6.716 15-15S24.284 1 16 1zm0 2c7.18 0 13 5.82 13 13s-5.82 13-13 13c-2.695 0-5.2-.833-7.296-2.236L4 29l2.349-5.693C4.835 20.202 4 18.142 4 16 4 8.82 8.82 4 16 4zm-3.668 5.332c-.429 0-.855.008-1.28.024a1.634 1.634 0 0 0-1.236.556 1.614 1.614 0 0 0-.44 1.22c.08 1.88 1.023 3.695 2.585 5.036 1.042.896 2.183 1.635 3.516 2.01.803.224 1.483-.154 2.073-.614.485-.38 1.093-.82 1.572-.284.455.528.916 1.036 1.364 1.552.371.43.363.86-.1 1.272-.832.75-1.698 1.466-2.673 1.984-1.268.686-2.684.9-4.088.63a10.996 10.996 0 0 1-5.187-2.48c-1.542-1.326-2.57-3.195-2.855-5.232-.128-.94-.184-1.884-.04-2.832.156-.986.633-1.856 1.46-2.44.542-.392 1.156-.5 1.806-.514.334-.005.668-.007 1.001-.007.38 0 .76.003 1.14.012.397.008.69.153.906.537.266.466.49.947.735 1.417.144.276.036.572-.194.734-.17.117-.34.244-.497.377-.593.496-1.06 1.096-1.481 1.755a.58.58 0 0 1-.817.166c-.633-.43-1.268-.86-1.864-1.34-.165-.13-.297-.303-.353-.513a8.556 8.556 0 0 1-.283-2.257 1.458 1.458 0 0 1 1.464-1.464c.016 0 .032-.001.048-.001z"/>
</svg>
