<svg width="38" height="37" viewBox="0 0 38 37" fill="none" xmlns="http://www.w3.org/2000/svg">
<rect x="0.951782" width="36.4759" height="36.4759" rx="6.38328" fill="white" fill-opacity="0.5"/>
<path fill-rule="evenodd" clip-rule="evenodd" d="M11.222 24.673C10.8643 24.5672 10.5379 24.3789 10.2704 24.1241C10.0029 23.8693 9.80207 23.5554 9.68493 23.2089C9.01557 21.418 8.81725 13.9401 10.1064 12.4638C10.5354 11.9836 11.1412 11.688 11.7922 11.641C15.2505 11.278 25.9354 11.3264 27.1626 11.762C27.5077 11.8713 27.8231 12.0555 28.085 12.3007C28.3468 12.5458 28.5485 12.8457 28.6748 13.1778C29.4061 15.0291 29.4309 21.7568 28.5757 23.5356C28.3488 23.9986 27.9689 24.3736 27.4972 24.6004C26.2081 25.2296 12.9325 25.2175 11.222 24.673ZM16.7132 21.1639L22.9109 18.0179L16.7132 14.8476V21.1639Z" fill="#000000"/>
</svg>
